#N canvas 0 28 1440 900 12;
#X obj 5 4 cnv 19 1420 880 empty empty empty 20 12 0 12 #000000 #404040 0;
#X obj 9 10 cnv 19 705 870 empty empty empty 20 12 0 12 #7c7c7c #404040 0;
#X obj 717 10 cnv 19 705 870 empty empty empty 20 12 0 12 #7c7c7c #404040 0;
#X obj 12 652 cnv 19 700 190 empty empty empty 20 12 0 12 #c6ffc7 #404040 0;
#X obj 13 236 cnv 19 700 200 empty empty empty 20 12 0 12 #ffc7c6 #404040 0;
#X obj 13 441 cnv 19 700 50 empty empty empty 20 12 0 12 #feffc6 #404040 0;
#X obj 33 698 vsl 19 125 0 127 0 0 1slide 1slide empty 0 -9 0 12 #ffffff #000000 #000000 0 1;
#X obj 119 698 vsl 19 125 1.27 127 1 0 2slide 2slide empty 0 -9 0 12 #ffffff #000000 #000000 0 1;
#X obj 206 700 vsl 19 125 0 127 0 0 3slide 3slide empty 0 -9 0 12 #ffffff #000000 #000000 0 1;
#X obj 297 699 vsl 19 125 1.27 127 1 0 4slide 4slide empty 0 -9 0 12 #ffffff #000000 #000000 0 1;
#X obj 392 699 vsl 19 125 1.27 127 1 0 5slide 5slide empty 0 -9 0 12 #ffffff #000000 #000000 0 1;
#X obj 483 700 vsl 19 125 1.27 127 1 0 6slide 6slide empty 0 -9 0 12 #ffffff #000000 #000000 0 1;
#X obj 573 698 vsl 19 125 1.27 127 1 0 7slide 7slide empty 0 -9 0 12 #ffffff #000000 #000000 0 1;
#X obj 662 697 vsl 19 125 1.27 127 1 0 8slide 8slide empty 0 -9 0 12 #ffffff #000000 #000000 0 1;
#X obj 299 458 hradio 20 1 0 8 empty track-select empty 0 -10 0 12 #feffc6 #000000 #000000 0;
#X obj 36 266 tgl 19 0 1-1 1-1 bounce 0 -10 0 8 #c6ffc7 #000000 #000000 0 1;
#X obj 36 303 bng 19 250 50 0 1-2 1-2 spin 0 -5 0 8 #c6ffc7 #000000 #000000;
#X obj 204 266 bng 19 250 50 0 3-1 3-1 Rst\ Clr 0 -10 0 8 #c6ffc7 #000000 #000000;
#X obj 205 302 bng 19 250 50 0 3-2 3-2 Pulse 0 -10 0 8 #c6ffc7 #000000 #000000;
#X obj 205 342 bng 19 250 50 0 3-3 3-3 Flip 0 -10 0 8 #c6ffc7 #000000 #000000;
#X obj 397 268 tgl 19 0 5-1 5-1 Rotate 0 -10 0 8 #c6ffc7 #000000 #000000 0 1;
#X obj 666 303 tgl 19 0 8-1 8-1 Flip\ Y 0 -10 0 8 #c6ffc7 #000000 #000000 0 1;
#X obj 666 264 tgl 19 0 8-2 8-2 FlipX 0 -10 0 8 #c6ffc7 #000000 #000000 0 1;
#X obj 36 371 tgl 19 0 1-4 1-4 scale 0 -5 0 8 #e3c6ff #000000 #000000 0 1;
#X obj 36 406 tgl 19 0 1-5 1-5 size 0 -5 0 8 #e3c6ff #000000 #000000 0 1;
#X obj 36 336 tgl 19 0 1-3 1-3 spin 0 -5 0 8 #e3c6ff #000000 #000000 0 1;
#X obj 204 406 tgl 19 0 3-5 3-5 empty 0 -10 0 8 #e3c6ff #000000 #000000 0 1;
#X obj 204 374 tgl 19 0 3-4 3-4 empty 0 -10 0 8 #e3c6ff #000000 #000000 0 1;
#X obj 576 375 tgl 19 0 7-5 7-5 empty 0 -10 0 8 #e3c6ff #000000 #000000 0 1;
#X obj 666 377 tgl 19 0 8-4 8-4 sap 0 -5 0 8 #e3c6ff #000000 #000000 0 1;
#X obj 666 346 tgl 19 0 8-3 8-3 rlp 0 -5 0 8 #e3c6ff #000000 #000000 0 1;
#X obj 666 411 tgl 19 0 8-5 8-5 spin 0 -5 0 8 #e3c6ff #000000 #000000 0 1;
#X obj 291 256 bng 19 250 50 0 4-1 4-1 Ripple 0 -5 0 8 #c6ffc7 #000000 #000000;
#X obj 290 369 bng 19 250 50 0 4-4 4-4 FlipY 0 -5 0 8 #c6ffc7 #000000 #000000;
#X obj 290 410 bng 19 250 50 0 4-5 4-5 Flip\ X 0 -5 0 8 #c6ffc7 #000000 #000000;
#X obj 290 290 tgl 19 0 4-2 4-2 Width 0 -5 0 8 #c6ffc7 #000000 #000000 0 1;
#X obj 291 329 tgl 19 0 4-3 4-3 Height 0 -5 0 8 #c6ffc7 #000000 #000000 0 1;
#X obj 491 255 bng 19 250 50 0 6-1 6-1 Noise1 0 -10 0 8 #c6ffc7 #000000 #000000;
#X obj 491 292 bng 19 250 50 0 6-2 6-2 Noise2 0 -10 0 8 #c6ffc7 #000000 #000000;
#X obj 491 332 bng 19 250 50 0 6-3 6-3 Noise3 0 -10 0 8 #c6ffc7 #000000 #000000;
#X obj 492 366 bng 19 250 50 0 6-4 6-4 Noise4 0 -10 0 8 #c6ffc7 #000000 #000000;
#X obj 492 401 bng 19 250 50 0 6-5 6-5 Wave 0 -10 0 8 #c6ffc7 #000000 #000000;
#X obj 397 304 tgl 19 0 5-2 5-2 Rotate 0 -5 0 8 #c6ffc7 #000000 #000000 0 1;
#X obj 397 342 tgl 19 0 5-3 5-3 Flip 0 -5 0 8 #c6ffc7 #000000 #000000 0 1;
#X obj 117 291 vradio 19 1 0 5 2pad 2pad Particle\ Domains 0 -10 0 6 #c6ffc7 #000000 #000000 0;
#X obj 575 268 vradio 19 1 0 4 7pad 7pad Img\ Select 0 -10 0 6 #c6ffc7 #000000 #000000 0;
#X obj 26 459 gui-track-control;
#X obj 720 131 cnv 19 700 630 empty empty empty 20 12 0 12 #202020 #404040 0;
#X obj 726 138 cnv 19 340 150 empty empty empty 20 12 0 12 #dfdfdf #404040 0;
#X obj 1073 138 cnv 19 340 150 empty empty empty 20 12 0 12 #dfdfdf #404040 0;
#X obj 726 293 cnv 19 340 150 empty empty empty 20 12 0 12 #dfdfdf #404040 0;
#X obj 1073 293 cnv 19 340 150 empty empty empty 20 12 0 12 #dfdfdf #404040 0;
#X obj 726 447 cnv 19 340 150 empty empty empty 20 12 0 12 #dfdfdf #404040 0;
#X obj 1073 447 cnv 19 340 150 empty empty empty 20 12 0 12 #dfdfdf #404040 0;
#X obj 726 602 cnv 19 340 150 empty empty empty 20 12 0 12 #dfdfdf #404040 0;
#X obj 1073 602 cnv 19 340 150 empty empty empty 20 12 0 12 #dfdfdf #404040 0;
#X obj 12 847 cnv 19 700 30 empty empty empty 20 12 0 12 #dfdfdf #404040 0;
#X obj 21 853 track1;
#X obj 105 853 track2;
#X obj 190 852 track3;
#X obj 282 852 track4;
#X obj 380 853 track5;
#X obj 469 854 track6;
#X obj 560 854 track7;
#X obj 649 852 track8;
#X obj 740 172 cnv 19 310 90 empty empty empty 20 12 0 12 #000000 #404040 0;
#X obj 742 174 cnv 19 305 85 empty empty empty 20 12 0 12 #ffffff #404040 0;
#X obj 1088 173 cnv 19 310 90 empty empty empty 20 12 0 12 #000000 #404040 0;
#X obj 1090 175 cnv 19 305 85 empty empty empty 20 12 0 12 #ffffff #404040 0;
#X obj 742 332 cnv 19 310 90 empty empty empty 20 12 0 12 #000000 #404040 0;
#X obj 744 334 cnv 19 305 85 empty empty empty 20 12 0 12 #ffffff #404040 0;
#X obj 742 478 cnv 19 310 90 empty empty empty 20 12 0 12 #000000 #404040 0;
#X obj 744 480 cnv 19 305 85 empty empty empty 20 12 0 12 #ffffff #404040 0;
#X obj 741 637 cnv 19 310 90 empty empty empty 20 12 0 12 #000000 #404040 0;
#X obj 743 639 cnv 19 305 85 empty empty empty 20 12 0 12 #ffffff #404040 0;
#X obj 1088 333 cnv 19 310 90 empty empty empty 20 12 0 12 #000000 #404040 0;
#X obj 1090 335 cnv 19 305 85 empty empty empty 20 12 0 12 #ffffff #404040 0;
#X obj 1086 478 cnv 19 310 90 empty empty empty 20 12 0 12 #000000 #404040 0;
#X obj 1088 480 cnv 19 305 85 empty empty empty 20 12 0 12 #ffffff #404040 0;
#X obj 1085 637 cnv 19 310 90 empty empty empty 20 12 0 12 #000000 #404040 0;
#X obj 1087 639 cnv 19 305 85 empty empty empty 20 12 0 12 #ffffff #404040 0;
#X obj 755 178 hsl 60 15 0 127 0 0 16-1 16-1 empty -2 -10 0 12 #ffe3c6 #000000 #000000 0 1;
#X obj 829 179 hsl 60 15 0 127 0 0 17-1 17-1 empty -2 -10 0 12 #ffe3c6 #000000 #000000 0 1;
#X obj 901 179 hsl 60 15 0 127 0 0 18-1 18-1 empty -2 -10 0 12 #ffe3c6 #000000 #000000 0 1;
#X obj 973 179 hsl 60 15 0 127 0 0 19-1 19-1 empty -2 -10 0 12 #ffe3c6 #000000 #000000 0 1;
#X obj 757 221 hsl 60 15 0 127 0 0 20-1 20-1 empty -2 -10 0 12 #ffe3c6 #000000 #000000 0 1;
#X text 781 193 fdbk;
#X text 853 194 sprd;
#X text 927 194 dcy;
#X text 999 195 scaleZ;
#X obj 831 224 hsl 60 15 0 127 0 0 21-1 21-1 empty -2 -10 0 12 #ffe3c6 #000000 #000000 0 1;
#X obj 902 223 hsl 60 15 0 127 0 0 22-1 22-1 empty -2 -10 0 12 #ffe3c6 #000000 #000000 0 1;
#X obj 973 222 hsl 60 15 0 127 0 0 23-1 23-1 empty -2 -10 0 12 #ffe3c6 #000000 #000000 0 1;
#X text 782 238 rotX;
#X text 855 238 rotY;
#X text 926 238 rotZ;
#X text 997 239 vrtx#;
#X obj 1102 180 hsl 60 15 0 127 0 0 16-2 16-2 empty -2 -10 0 12 #ffe3c6 #000000 #000000 0 1;
#X obj 1176 181 hsl 60 15 1.27 127 1 0 17-2 17-2 empty -2 -10 0 12 #ffe3c6 #000000 #000000 0 1;
#X obj 1248 181 hsl 60 15 0 127 0 0 18-2 18-2 empty -2 -10 0 12 #ffe3c6 #000000 #000000 0 1;
#X obj 1320 181 hsl 60 15 0 127 0 0 19-2 19-2 empty -2 -10 0 12 #ffe3c6 #000000 #000000 0 1;
#X obj 1104 223 hsl 60 15 0 127 0 0 20-2 20-2 empty -2 -10 0 12 #ffe3c6 #000000 #000000 0 1;
#X text 1128 195 fdbk;
#X text 1200 196 sprd;
#X text 1274 196 dcy;
#X text 1346 197 scaleZ;
#X obj 1178 226 hsl 60 15 0 127 0 0 21-2 21-2 empty -2 -10 0 12 #ffe3c6 #000000 #000000 0 1;
#X obj 1249 225 hsl 60 15 0 127 0 0 22-2 22-2 empty -2 -10 0 12 #ffe3c6 #000000 #000000 0 1;
#X obj 1320 224 hsl 60 15 0 127 0 0 23-2 23-2 empty -2 -10 0 12 #ffe3c6 #000000 #000000 0 1;
#X text 1129 240 rotX;
#X text 1202 240 rotY;
#X text 1273 240 rotZ;
#X text 1344 241 vrtx#;
#X obj 754 339 hsl 60 15 0 127 0 0 16-3 16-3 empty -2 -10 0 12 #ffe3c6 #000000 #000000 0 1;
#X obj 828 340 hsl 60 15 0 127 0 0 17-3 17-3 empty -2 -10 0 12 #ffe3c6 #000000 #000000 0 1;
#X obj 900 340 hsl 60 15 1.27 127 1 0 18-3 18-3 empty -2 -10 0 12 #ffe3c6 #000000 #000000 0 1;
#X obj 972 340 hsl 60 15 1.27 127 1 0 19-3 19-3 empty -2 -10 0 12 #ffe3c6 #000000 #000000 0 1;
#X obj 756 382 hsl 60 15 0 127 0 0 20-3 20-3 empty -2 -10 0 12 #ffe3c6 #000000 #000000 0 1;
#X text 926 355 dcy;
#X obj 830 385 hsl 60 15 0 127 0 0 21-3 21-3 empty -2 -10 0 12 #ffe3c6 #000000 #000000 0 1;
#X obj 901 384 hsl 60 15 0 127 0 0 22-3 22-3 empty -2 -10 0 12 #ffe3c6 #000000 #000000 0 1;
#X obj 972 383 hsl 60 15 0 127 0 0 23-3 23-3 empty -2 -10 0 12 #ffe3c6 #000000 #000000 0 1;
#X text 781 399 rotX;
#X text 854 399 rotY;
#X text 925 399 rotZ;
#X obj 1102 341 hsl 60 15 0 127 0 0 16-4 16-4 empty -2 -10 0 12 #ffe3c6 #000000 #000000 0 1;
#X obj 1176 342 hsl 60 15 0 127 0 0 17-4 17-4 empty -2 -10 0 12 #ffe3c6 #000000 #000000 0 1;
#X obj 1248 342 hsl 60 15 0 127 0 0 18-4 18-4 empty -2 -10 0 12 #ffe3c6 #000000 #000000 0 1;
#X obj 1320 342 hsl 60 15 0 127 0 0 19-4 19-4 empty -2 -10 0 12 #ffe3c6 #000000 #000000 0 1;
#X obj 754 486 hsl 60 15 0 127 0 0 16-5 16-5 empty -2 -10 0 12 #ffe3c6 #000000 #000000 0 1;
#X obj 828 487 hsl 60 15 0 127 0 0 17-5 17-5 empty -2 -10 0 12 #ffe3c6 #000000 #000000 0 1;
#X obj 900 487 hsl 60 15 0 127 0 0 18-5 18-5 empty -2 -10 0 12 #ffe3c6 #000000 #000000 0 1;
#X obj 972 487 hsl 60 15 0 127 0 0 empty empty empty -2 -10 0 12 #dfdfdf #000000 #000000 0 1;
#X obj 756 529 hsl 60 15 0 127 0 0 empty empty empty -2 -10 0 12 #dfdfdf #000000 #000000 0 1;
#X text 852 502 sprd;
#X text 926 502 dcy;
#X obj 830 532 hsl 60 15 0 127 0 0 empty empty empty -2 -10 0 12 #dfdfdf #000000 #000000 0 1;
#X obj 901 531 hsl 60 15 0 127 0 0 empty empty empty -2 -10 0 12 #dfdfdf #000000 #000000 0 1;
#X obj 972 530 hsl 60 15 0 127 0 0 empty empty empty -2 -10 0 12 #dfdfdf #000000 #000000 0 1;
#X obj 1098 486 hsl 60 15 0 127 0 0 16-6 16-6 empty -2 -10 0 12 #ffe3c6 #000000 #000000 0 1;
#X obj 1101 530 hsl 60 15 0 127 0 0 20-6 20-6 empty -2 -10 0 12 #ffe3c6 #000000 #000000 0 1;
#X obj 1175 530 hsl 60 15 0 127 0 0 21-6 21-6 empty -2 -10 0 12 #ffe3c6 #000000 #000000 0 1;
#X obj 1255 530 hsl 60 15 0 127 0 0 22-6 22-6 empty -2 -10 0 12 #ffe3c6 #000000 #000000 0 1;
#X text 1118 546 rotX;
#X text 1191 546 rotY;
#X text 1279 545 rotZ;
#X obj 753 644 hsl 60 15 0 127 0 0 16-7 16-7 empty -2 -10 0 12 #ffe3c6 #000000 #000000 0 1;
#X obj 827 645 hsl 60 15 0 127 0 0 17-7 17-7 empty -2 -10 0 12 #ffe3c6 #000000 #000000 0 1;
#X obj 899 645 hsl 60 15 0 127 0 0 18-7 18-7 empty -2 -10 0 12 #ffe3c6 #000000 #000000 0 1;
#X obj 971 645 hsl 60 15 0 127 0 0 19-7 19-7 empty -2 -10 0 12 #ffe3c6 #000000 #000000 0 1;
#X obj 755 687 hsl 60 15 0 127 0 0 20-7 20-7 empty -2 -10 0 12 #ffe3c6 #000000 #000000 0 1;
#X obj 829 690 hsl 60 15 0 127 0 0 21-7 21-7 empty -2 -10 0 12 #ffe3c6 #000000 #000000 0 1;
#X obj 908 688 hsl 60 15 0 127 0 0 22-7 22-7 empty -2 -10 0 12 #ffe3c6 #000000 #000000 0 1;
#X obj 979 687 hsl 60 15 0 127 0 0 23-7 23-7 empty -2 -10 0 12 #ffe3c6 #000000 #000000 0 1;
#X obj 1098 647 hsl 60 15 0 127 0 0 16-8 16-8 empty -2 -10 0 12 #ffe3c6 #000000 #000000 0 1;
#X obj 1177 647 hsl 60 15 0 127 0 0 17-8 17-8 empty -2 -10 0 12 #ffe3c6 #000000 #000000 0 1;
#X text 846 302 TRACK 3 WEBCAM;
#X text 1193 455 TRACK 6 WAVE;
#X text 1181 146 TRACK 2 PARTICLES;
#X text 1187 304 TRACK 4 RIPPLE;
#X text 780 354 size;
#X text 852 355 cube;
#X text 998 356 dcy2;
#X text 981 399 metaimg;
#X text 1200 357 rotY;
#X text 1274 357 rotX;
#X text 1346 358 rotZ;
#X text 780 501 amnt;
#X text 1124 501 scale;
#X text 851 660 sgmts;
#X text 779 659 size;
#X text 925 660 angin;
#X text 997 661 angin2;
#X text 780 704 angot;
#X text 853 704 angot2;
#X text 1003 704 sap;
#X text 1124 662 sizeX;
#X text 1199 663 sizeY;
#X text 1128 356 amnt;
#X obj 839 199 tgl 10 0 1-dcy-dsp empty empty 0 -10 0 8 #e3c6ff #000000 #000000 0 1;
#X text 932 703 rlp;
#X text 837 454 TRACK 5 PARTICLES;
#X obj 720 15 cnv 19 700 110 empty empty empty 20 12 0 12 #202020 #404040 0;
#X obj 724 19 cnv 19 690 100 empty empty empty 20 12 0 12 #ffffff #404040 0;
#X obj 1067 88 colour-selector;
#X obj 1183 97 hradio 10 1 0 8 colour empty empty 0 -10 0 12 #fcfcfc #000000 #000000 0;
#X obj 1067 54 cnv 19 20 20 empty empty empty 20 12 0 12 #ff0400 #404040 0;
#X obj 1085 54 cnv 19 20 20 empty empty empty 20 12 0 12 #00ff04 #404040 0;
#X obj 1105 54 cnv 19 20 20 empty empty empty 20 12 0 12 #0400ff #404040 0;
#X obj 1124 54 cnv 19 20 20 empty empty empty 20 12 0 12 #faff00 #404040 0;
#X obj 1143 54 cnv 19 20 20 empty empty empty 20 12 0 12 #ffc7c6 #404040 0;
#X obj 1162 54 cnv 19 20 20 empty empty empty 20 12 0 12 #c6feff #404040 0;
#X obj 1200 54 cnv 19 20 20 empty empty empty 20 12 0 12 #9f9f9f #404040 0;
#X obj 1067 53 hradio 19 1 0 9 empty 54-1 empty 0 -10 0 12 #ffffff #000000 #000000 0;
#X text 1065 35 Colour Selector;
#X obj 1316 99 hsl 50 10 0 127 0 0 55-1 55-1 empty -2 -10 0 12 #ffe3c6 #000000 #000000 0 1;
#X text 1299 78 Colour Speed;
#X obj 732 30 cnv 19 320 80 empty empty empty 20 12 0 12 #000000 #404040 0;
#X obj 736 35 cnv 19 310 70 empty empty empty 20 12 0 12 #ffffff #404040 0;
#X floatatom 748 65 5 0 0 2 BPM bpm-mon bpm 16;
#X obj 809 68 bng 19 250 50 0 empty bar bar 0 -10 0 8 #fcfcfc #000000 #000000;
#X obj 839 68 bng 19 250 50 0 empty beat beat 0 -10 0 8 #fcfcfc #000000 #000000;
#X obj 869 68 bng 19 250 50 0 empty sub-beat sub-beat 0 -10 0 8 #fcfcfc #000000 #000000;
#X obj 1011 63 bng 19 250 50 0 tap tap TAP 0 -10 0 12 #faff00 #000000 #000000;
#X obj 962 67 bng 19 250 50 0 start start start 0 -5 0 8 #ffc7c6 #000000 #000000;
#X obj 924 66 bng 19 250 50 0 stop-bpm stop-bpm stop 0 -5 0 8 #c7c6ff #000000 #000000;
#X text 1283 33 Webcam Colour;
#X obj 1287 55 hsl 30 10 0 127 0 0 48-1 48-1 empty -2 -10 0 12 #ffc7c6 #000000 #000000 0 1;
#X obj 1323 55 hsl 30 10 0 127 0 0 49-1 49-1 empty -2 -10 0 12 #c6ffc7 #000000 #000000 0 1;
#X obj 1360 55 hsl 30 10 0 127 0 0 50-1 50-1 empty -2 -10 0 12 #c7c6ff #000000 #000000 0 1;
#X text 1296 51 R;
#X text 1338 51 G;
#X text 1375 51 B;
#X obj 720 766 cnv 19 700 110 empty empty empty 20 12 0 12 #202020 #404040 0;
#X obj 724 770 cnv 19 690 100 empty empty empty 20 12 0 12 #ffffff #404040 0;
#X obj 1140 812 tgl 25 0 dsp dsp DSP 0 -10 0 12 #9c00ff #000000 #9c00ff 0 1;
#X obj 1034 811 bng 25 250 50 0 play play PLAY 0 -10 0 12 #ff0400 #000000 #ff0400;
#X obj 1088 811 bng 25 250 50 0 stop stop STOP 0 -10 0 12 #0400ff #000000 #0400ff;
#X obj 1207 817 tgl 19 0 light light-mon World\ Light 0 -10 0 10 #fcfcfc #000000 #000000 0 1;
#X obj 1301 818 hsl 90 19 0 127 0 0 15-1 15-1 Light\ Angle -2 -10 0 10 #feffc6 #000000 #000000 0 1;
#X obj 743 782 vu 10 80 vu-meter empty -1 -10 0 6 #404040 #000000 1 0;
#X obj 797 801 cnv 19 200 40 empty empty empty 20 12 0 12 #000000 #404040 0;
#X obj 802 803 cnv 19 190 35 empty empty empty 20 12 0 12 #ffffff #404040 0;
#X floatatom 922 809 5 0 0 0 CPU\ USAGE cpu - 16;
#X obj 13 16 cnv 19 700 215 empty empty empty 20 12 0 12 #ffffff #404040 0;
#X obj 633 203 gem-window;
#X obj 448 203 gui-pad-control;
#X obj 293 203 gui-transport-control;
#X obj 17 202 gui-knob-control;
#X obj 138 203 gui-activator-control;
#X obj 561 203 gui-tempo;
#X text 283 22 Welcome to ESPER v1.5;
#X obj 13 496 cnv 19 700 150 empty empty empty 20 12 0 12 #c6feff #404040 0;
#X obj 663 528 tgl 25 0 a-8 a-8 on/off 0 -10 0 12 #00ff04 #000000 #000000 0 1;
#X obj 664 576 tgl 19 0 s-8 s-8 double 0 -10 0 8 #00faff #000000 #000000 0 1;
#X obj 663 618 tgl 19 0 r-8 r-8 dsp-size 0 -10 0 8 #e3c6ff #000000 #000000 0 1;
#X obj 32 528 tgl 25 0 a-1 a-1 on/off 0 -10 0 12 #00ff04 #000000 #000000 0 1;
#X obj 35 572 tgl 19 0 s-1 s-1 fill 0 -10 0 8 #00faff #000000 #000000 0 1;
#X obj 35 610 tgl 19 0 r-1 r-1 point 0 -10 0 8 #ffc7c6 #000000 #000000 0 1;
#X obj 117 526 tgl 25 0 a-2 a-2 on/off 0 -10 0 12 #00ff04 #000000 #000000 0 1;
#X obj 120 573 tgl 19 0 r-2 r-2 fill 0 -10 0 8 #00faff #000000 #000000 0 1;
#X obj 118 614 tgl 19 0 s-2 s-2 point 0 -10 0 8 #ffc7c6 #000000 #000000 0 1;
#X obj 204 526 tgl 25 0 a-3 a-3 on/off 0 -10 0 12 #00ff04 #000000 #000000 0 1;
#X obj 207 574 tgl 19 0 s-3 s-3 fill 0 -10 0 8 #00faff #000000 #000000 0 1;
#X obj 205 616 tgl 19 0 r-3 r-3 smooth 0 -10 0 8 #ffc7c6 #000000 #000000 0 1;
#X obj 292 530 tgl 25 0 a-4 a-4 on/off 0 -10 0 12 #00ff04 #000000 #000000 0 1;
#X obj 293 576 tgl 19 0 s-4 s-4 fill 0 -10 0 8 #00faff #000000 #000000 0 1;
#X obj 294 617 tgl 19 0 r-4 r-4 point 0 -10 0 8 #ffc7c6 #000000 #000000 0 1;
#X obj 391 528 tgl 25 0 a-5 a-5 on/off 0 -10 0 12 #00ff04 #000000 #000000 0 1;
#X obj 391 571 tgl 19 0 s-5 s-5 fill 0 -10 0 8 #00faff #000000 #000000 0 1;
#X obj 392 617 tgl 19 0 r-5 r-5 point 0 -10 0 8 #ffc7c6 #000000 #000000 0 1;
#X obj 484 530 tgl 25 0 a-6 a-6 on/off 0 -10 0 12 #00ff04 #000000 #000000 0 1;
#X obj 484 576 tgl 19 0 s-6 s-6 fill 0 -10 0 8 #00faff #000000 #000000 0 1;
#X obj 484 615 tgl 19 0 r-6 r-6 point 0 -10 0 8 #ffc7c6 #000000 #000000 0 1;
#X obj 573 530 tgl 25 0 a-7 a-7 on/off 0 -10 0 12 #00ff04 #000000 #000000 0 1;
#X obj 575 576 tgl 19 0 s-7 s-7 puzzle 0 -10 0 8 #00faff #000000 #000000 0 1;
#X obj 574 618 tgl 19 0 r-7 r-7 puzzle2 0 -10 0 8 #ffc7c6 #000000 #000000 0 1;
#X text 846 611 TRACK 7 IMAGE;
#X text 840 150 TRACK 1 SPHERE;
#X text 1200 611 TRACK 8 PIXELS;
#X text 22 50 This Visual Synthesizer is made for the Akai APC 40 to create real-time audio-reactive visuals. Press 'Play' on your APC. This will start the GEM Window. You will see the GEM window pop up with all 8 tracks enabled. I like to go through and toggle all tracks off so as to start with a blank canvas There are 8 'tracks' or 'layers' in ESPER. Much like you would use the APC40 for Music production \, each track corresponds to one layer. The 'Track Select' buttons on the APC allows you to toggle through the effects knobs for each track. The activator buttons turn on and off each layer. The send knobs are for global and in some case webcam effects. Images are loaded from the "Images" directory https://github.com/aidanwobrien/ESPER, f 97;
#X text 21 663 SPHERE;
#X text 102 663 PARTICLES;
#X text 198 662 WEBCAM;
#X text 290 662 RIPPLE;
#X text 378 662 PARTICLES;
#X text 478 664 WAVE;
#X text 564 664 IMAGE;
#X text 652 663 PIXELS;
#X obj 19 176 gui-stop-control;
#X obj 396 379 tgl 19 0 5-4 5-4 pixnoise 0 -5 0 8 #c6ffc7 #000000 #000000 0 1;
#X obj 397 412 tgl 19 0 5-5 5-5 pixnoise2 0 -5 0 8 #c6ffc7 #000000 #000000 0 1;
#X obj 1101 689 hsl 60 15 0 127 0 0 20-8 20-8 empty -2 -10 0 12 #ffe3c6 #000000 #000000 0 1;
#X obj 1180 689 hsl 60 15 0 127 0 0 21-8 21-8 empty -2 -10 0 12 #ffe3c6 #000000 #000000 0 1;
#X obj 1252 689 hsl 60 15 0 127 0 0 22-8 22-8 empty -2 -10 0 12 #ffe3c6 #000000 #000000 0 1;
#X text 1111 706 rotX;
#X text 1184 705 rotY;
#X text 1264 706 rotZ;
#X obj 1182 202 tgl 10 0 2-dcy-dsp empty empty 0 -10 0 8 #e3c6ff #000000 #000000 0 1;
#X connect 184 1 185 0;
#X connect 193 0 184 0;
