#N canvas 0 0 1440 872 12;
#X obj 698 65 / 127;
#X obj 101 312 expr $f1<1;
#X obj 223 381 sel 1;
#X obj 296 381 sel 1;
#X obj 223 403 bng 19 250 50 0 empty empty empty 0 -10 0 12 #fcfcfc #000000 #000000;
#X obj 296 402 bng 19 250 50 0 empty empty empty 0 -10 0 12 #fcfcfc #000000 #000000;
#X obj 258 459 +;
#X msg 224 430 1;
#X msg 295 430 1;
#X obj 252 280 t b f;
#X msg 256 429 0;
#X msg 327 430 0;
#X obj 259 517 sel 2;
#X obj 259 543 bng 19 250 50 0 empty empty empty 0 -10 0 12 #fcfcfc #000000 #000000;
#X obj 100 374 sel 1;
#X obj 94 541 bng 19 250 50 0 empty empty empty 0 -10 0 12 #fcfcfc #000000 #000000;
#X msg 515 853 1 0 0;
#X msg 568 853 0 1 0;
#X obj 405 366 sel 1;
#X obj 478 366 sel 1;
#X obj 405 388 bng 19 250 50 0 empty empty empty 0 -10 0 12 #fcfcfc #000000 #000000;
#X obj 478 387 bng 19 250 50 0 empty empty empty 0 -10 0 12 #fcfcfc #000000 #000000;
#X obj 440 444 +;
#X msg 406 415 1;
#X msg 477 415 1;
#X obj 434 265 t b f;
#X msg 438 414 0;
#X msg 509 415 0;
#X obj 441 507 sel 2;
#X obj 441 546 bng 19 250 50 0 empty empty empty 0 -10 0 12 #fcfcfc #000000 #000000;
#X obj 574 367 sel 1;
#X obj 647 367 sel 1;
#X obj 574 389 bng 19 250 50 0 empty empty empty 0 -10 0 12 #fcfcfc #000000 #000000;
#X obj 647 388 bng 19 250 50 0 empty empty empty 0 -10 0 12 #fcfcfc #000000 #000000;
#X obj 609 445 +;
#X msg 575 416 1;
#X msg 646 416 1;
#X obj 603 266 t b f;
#X msg 607 415 0;
#X msg 678 416 0;
#X obj 610 503 sel 2;
#X obj 611 547 bng 19 250 50 0 empty empty empty 0 -10 0 12 #fcfcfc #000000 #000000;
#X msg 622 853 0 0 1;
#X msg 935 903 0;
#X msg 968 903 1;
#X msg 1002 903 2;
#X msg 1037 903 3;
#X obj 109 948 outlet col;
#X obj 1038 948 outlet rad;
#X obj 729 368 sel 1;
#X obj 802 368 sel 1;
#X obj 729 390 bng 19 250 50 0 empty empty empty 0 -10 0 12 #fcfcfc #000000 #000000;
#X obj 802 389 bng 19 250 50 0 empty empty empty 0 -10 0 12 #fcfcfc #000000 #000000;
#X obj 764 446 +;
#X msg 730 417 1;
#X msg 801 417 1;
#X obj 758 267 t b f;
#X msg 762 416 0;
#X msg 833 417 0;
#X obj 765 504 sel 2;
#X obj 902 370 sel 1;
#X obj 975 370 sel 1;
#X obj 902 392 bng 19 250 50 0 empty empty empty 0 -10 0 12 #fcfcfc #000000 #000000;
#X obj 975 391 bng 19 250 50 0 empty empty empty 0 -10 0 12 #fcfcfc #000000 #000000;
#X obj 937 448 +;
#X msg 903 419 1;
#X msg 974 419 1;
#X obj 931 269 t b f;
#X msg 935 418 0;
#X msg 1006 419 0;
#X obj 938 506 sel 2;
#X obj 1071 371 sel 1;
#X obj 1144 371 sel 1;
#X obj 1071 393 bng 19 250 50 0 empty empty empty 0 -10 0 12 #fcfcfc #000000 #000000;
#X obj 1144 392 bng 19 250 50 0 empty empty empty 0 -10 0 12 #fcfcfc #000000 #000000;
#X obj 1106 449 +;
#X msg 1072 420 1;
#X msg 1143 420 1;
#X obj 1100 270 t b f;
#X msg 1104 419 0;
#X msg 1175 420 0;
#X obj 1107 507 sel 2;
#X msg 1071 903 4;
#X msg 1104 903 5;
#X msg 1138 903 6;
#X msg 1173 903 7;
#X obj 765 546 bng 19 250 50 0 empty empty empty 0 -10 0 12 #fcfcfc #000000 #000000;
#X obj 938 545 bng 19 250 50 0 empty empty empty 0 -10 0 12 #fcfcfc #000000 #000000;
#X obj 1107 546 bng 19 250 50 0 empty empty empty 0 -10 0 12 #fcfcfc #000000 #000000;
#X msg 831 854 1 1 1;
#X msg 676 853 1 1 0;
#X msg 731 854 1 0 1;
#X msg 782 854 0 1 1;
#X obj 241 316 expr $f1 > 1 \; $f1 < 2 \;;
#X obj 423 301 expr $f1 > 2 \; $f1 < 3 \;;
#X obj 592 302 expr $f1 > 3 \; $f1 < 4 \;;
#X obj 747 303 expr $f1 > 4 \; $f1 < 5 \;;
#X obj 920 305 expr $f1 > 5 \; $f1 < 6 \;;
#X obj 1089 306 expr $f1 > 7 \; $f1 < 8 \;;
#X msg 1454 308 1;
#X obj 693 41 ctlin 54 1;
#X obj 1176 799 bng 19 250 50 0 empty empty empty 0 -10 0 12 #fcfcfc #000000 #000000;
#X obj 1218 799 bng 19 250 50 0 empty empty empty 0 -10 0 12 #fcfcfc #000000 #000000;
#X obj 1260 800 bng 19 250 50 0 empty empty empty 0 -10 0 12 #fcfcfc #000000 #000000;
#X obj 1302 800 bng 19 250 50 0 empty empty empty 0 -10 0 12 #fcfcfc #000000 #000000;
#X obj 1344 799 bng 19 250 50 0 empty empty empty 0 -10 0 12 #fcfcfc #000000 #000000;
#X obj 1386 799 bng 19 250 50 0 empty empty empty 0 -10 0 12 #fcfcfc #000000 #000000;
#X obj 1428 798 bng 19 250 50 0 empty empty empty 0 -10 0 12 #fcfcfc #000000 #000000;
#X obj 1470 798 bng 19 250 50 0 empty empty empty 0 -10 0 12 #fcfcfc #000000 #000000;
#X obj 1455 403 bng 19 250 50 0 empty empty empty 0 -10 0 12 #fcfcfc #000000 #000000;
#X msg 1368 592 0;
#X obj 1220 368 sel 1;
#X obj 1293 368 sel 1;
#X obj 1220 390 bng 19 250 50 0 empty empty empty 0 -10 0 12 #fcfcfc #000000 #000000;
#X obj 1293 389 bng 19 250 50 0 empty empty empty 0 -10 0 12 #fcfcfc #000000 #000000;
#X obj 1255 446 +;
#X msg 1221 417 1;
#X msg 1292 417 1;
#X obj 1249 267 t b f;
#X msg 1253 416 0;
#X msg 1324 417 0;
#X obj 1256 504 sel 2;
#X obj 1256 543 bng 19 250 50 0 empty empty empty 0 -10 0 12 #fcfcfc #000000 #000000;
#X obj 1238 303 expr $f1 > 8 \; $f1 < 9 \;;
#X obj 699 126 * 9;
#X obj 1454 281 sel 9;
#X obj 1464 366 loadbang;
#X obj 1589 486 / 127;
#X floatatom 1589 538 5 0 0 0 - - - 0;
#X obj 1591 566 + 50;
#X obj 1176 774 sel 0;
#X obj 1218 774 sel 1;
#X obj 1260 774 sel 2;
#X obj 1302 774 sel 3;
#X obj 1344 775 sel 4;
#X obj 1386 775 sel 5;
#X obj 1428 775 sel 6;
#X obj 1470 775 sel 7;
#X floatatom 1487 492 5 0 0 2 bpm bpm - 0;
#X obj 1457 703 random 8;
#X obj 1382 498 tgl 19 0 empty empty empty 0 -10 0 12 #fcfcfc #000000 #000000 0 1;
#X msg 1476 614 tempo \$1 permin;
#X obj 1589 510 * 100;
#X obj 1417 664 metro 1 120 permin;
#X floatatom 1659 642 5 0 0 0 - - - 0;
#X obj 1659 618 expr 1/$f1;
#X obj 1495 542 spigot;
#X obj 1540 495 tgl 19 0 empty empty empty 0 -10 0 12 #fcfcfc #000000 #000000 0 1;
#X obj 1316 720 bng 19 250 50 0 empty beat beat 0 -10 0 12 #fcfcfc #000000 #000000;
#X obj 1660 563 loadbang;
#X msg 1662 588 0.5;
#X msg 885 855 0.5 0.5 0.5;
#X obj 1397 434 bng 19 250 50 0 empty stop-bpm empty 0 -10 0 12 #fcfcfc #000000 #000000;
#X msg 1396 462 0;
#X obj 1369 434 bng 19 250 50 0 empty start empty 0 -10 0 12 #fcfcfc #000000 #000000;
#X msg 1356 462 1;
#X obj 1587 454 ctlin 55 1;
#X connect 0 0 124 0;
#X connect 1 0 14 0;
#X connect 2 0 4 0;
#X connect 2 1 10 0;
#X connect 3 0 5 0;
#X connect 3 1 11 0;
#X connect 4 0 7 0;
#X connect 5 0 8 0;
#X connect 6 0 12 0;
#X connect 7 0 6 0;
#X connect 8 0 6 1;
#X connect 9 0 93 0;
#X connect 9 1 93 0;
#X connect 10 0 6 0;
#X connect 11 0 6 1;
#X connect 12 0 13 0;
#X connect 13 0 110 0;
#X connect 13 0 17 0;
#X connect 14 0 15 0;
#X connect 15 0 110 0;
#X connect 15 0 16 0;
#X connect 16 0 47 0;
#X connect 16 0 43 0;
#X connect 17 0 47 0;
#X connect 17 0 44 0;
#X connect 18 0 20 0;
#X connect 18 1 26 0;
#X connect 19 0 21 0;
#X connect 19 1 27 0;
#X connect 20 0 23 0;
#X connect 21 0 24 0;
#X connect 22 0 28 0;
#X connect 23 0 22 0;
#X connect 24 0 22 1;
#X connect 25 0 94 0;
#X connect 25 1 94 0;
#X connect 26 0 22 0;
#X connect 27 0 22 1;
#X connect 28 0 29 0;
#X connect 29 0 110 0;
#X connect 29 0 42 0;
#X connect 30 0 32 0;
#X connect 30 1 38 0;
#X connect 31 0 33 0;
#X connect 31 1 39 0;
#X connect 32 0 35 0;
#X connect 33 0 36 0;
#X connect 34 0 40 0;
#X connect 35 0 34 0;
#X connect 36 0 34 1;
#X connect 37 0 95 0;
#X connect 37 1 95 0;
#X connect 38 0 34 0;
#X connect 39 0 34 1;
#X connect 40 0 41 0;
#X connect 41 0 110 0;
#X connect 41 0 90 0;
#X connect 42 0 47 0;
#X connect 42 0 45 0;
#X connect 43 0 48 0;
#X connect 44 0 48 0;
#X connect 45 0 48 0;
#X connect 46 0 48 0;
#X connect 49 0 51 0;
#X connect 49 1 57 0;
#X connect 50 0 52 0;
#X connect 50 1 58 0;
#X connect 51 0 54 0;
#X connect 52 0 55 0;
#X connect 53 0 59 0;
#X connect 54 0 53 0;
#X connect 55 0 53 1;
#X connect 56 0 96 0;
#X connect 56 1 96 0;
#X connect 57 0 53 0;
#X connect 58 0 53 1;
#X connect 59 0 86 0;
#X connect 60 0 62 0;
#X connect 60 1 68 0;
#X connect 61 0 63 0;
#X connect 61 1 69 0;
#X connect 62 0 65 0;
#X connect 63 0 66 0;
#X connect 64 0 70 0;
#X connect 65 0 64 0;
#X connect 66 0 64 1;
#X connect 67 0 97 0;
#X connect 67 1 97 0;
#X connect 68 0 64 0;
#X connect 69 0 64 1;
#X connect 70 0 87 0;
#X connect 71 0 73 0;
#X connect 71 1 79 0;
#X connect 72 0 74 0;
#X connect 72 1 80 0;
#X connect 73 0 76 0;
#X connect 74 0 77 0;
#X connect 75 0 81 0;
#X connect 76 0 75 0;
#X connect 77 0 75 1;
#X connect 78 0 98 0;
#X connect 78 1 98 0;
#X connect 79 0 75 0;
#X connect 80 0 75 1;
#X connect 81 0 88 0;
#X connect 82 0 48 0;
#X connect 83 0 48 0;
#X connect 84 0 48 0;
#X connect 85 0 48 0;
#X connect 86 0 110 0;
#X connect 86 0 91 0;
#X connect 87 0 110 0;
#X connect 87 0 92 0;
#X connect 88 0 110 0;
#X connect 88 0 89 0;
#X connect 89 0 47 0;
#X connect 89 0 84 0;
#X connect 90 0 47 0;
#X connect 90 0 46 0;
#X connect 91 0 47 0;
#X connect 91 0 82 0;
#X connect 92 0 47 0;
#X connect 92 0 83 0;
#X connect 93 0 2 0;
#X connect 93 1 3 0;
#X connect 94 0 18 0;
#X connect 94 1 19 0;
#X connect 95 0 30 0;
#X connect 95 1 31 0;
#X connect 96 0 49 0;
#X connect 96 1 50 0;
#X connect 97 0 60 0;
#X connect 97 1 61 0;
#X connect 98 0 71 0;
#X connect 98 1 72 0;
#X connect 99 0 109 0;
#X connect 100 0 0 0;
#X connect 101 0 16 0;
#X connect 102 0 17 0;
#X connect 103 0 42 0;
#X connect 104 0 90 0;
#X connect 105 0 91 0;
#X connect 106 0 92 0;
#X connect 107 0 89 0;
#X connect 108 0 151 0;
#X connect 109 0 143 0;
#X connect 110 0 143 0;
#X connect 111 0 113 0;
#X connect 111 1 119 0;
#X connect 112 0 114 0;
#X connect 112 1 120 0;
#X connect 113 0 116 0;
#X connect 114 0 117 0;
#X connect 115 0 121 0;
#X connect 116 0 115 0;
#X connect 117 0 115 1;
#X connect 118 0 123 0;
#X connect 118 1 123 0;
#X connect 119 0 115 0;
#X connect 120 0 115 1;
#X connect 121 0 122 0;
#X connect 122 0 151 0;
#X connect 122 0 110 0;
#X connect 123 0 111 0;
#X connect 123 1 112 0;
#X connect 124 0 1 0;
#X connect 124 0 9 0;
#X connect 124 0 25 0;
#X connect 124 0 37 0;
#X connect 124 0 56 0;
#X connect 124 0 67 0;
#X connect 124 0 78 0;
#X connect 124 0 118 0;
#X connect 124 0 125 0;
#X connect 125 0 99 0;
#X connect 126 0 109 0;
#X connect 127 0 142 0;
#X connect 128 0 129 0;
#X connect 129 0 141 0;
#X connect 130 0 101 0;
#X connect 131 0 102 0;
#X connect 132 0 103 0;
#X connect 133 0 104 0;
#X connect 134 0 105 0;
#X connect 135 0 106 0;
#X connect 136 0 107 0;
#X connect 137 0 108 0;
#X connect 138 0 146 0;
#X connect 139 0 130 0;
#X connect 139 0 131 0;
#X connect 139 0 132 0;
#X connect 139 0 133 0;
#X connect 139 0 134 0;
#X connect 139 0 135 0;
#X connect 139 0 136 0;
#X connect 139 0 137 0;
#X connect 140 0 143 0;
#X connect 141 0 143 0;
#X connect 142 0 128 0;
#X connect 143 0 139 0;
#X connect 144 0 143 1;
#X connect 145 0 144 0;
#X connect 146 0 141 0;
#X connect 147 0 146 1;
#X connect 149 0 150 0;
#X connect 150 0 145 0;
#X connect 151 0 47 0;
#X connect 151 0 85 0;
#X connect 152 0 153 0;
#X connect 153 0 140 0;
#X connect 154 0 155 0;
#X connect 155 0 140 0;
#X connect 155 0 147 0;
#X connect 156 0 127 0;
