#N canvas 0 25 1440 847 12;
#X obj 705 64 / 127;
#X obj 223 381 sel 1;
#X obj 223 403 bng 19 250 50 0 empty empty empty 0 -10 0 12 #fcfcfc #000000 #000000;
#X obj 296 402 bng 19 250 50 0 empty empty empty 0 -10 0 12 #fcfcfc #000000 #000000;
#X obj 258 459 +;
#X msg 224 430 1;
#X msg 295 430 1;
#X obj 252 280 t b f;
#X msg 256 429 0;
#X msg 327 430 0;
#X obj 259 517 sel 2;
#X obj 259 543 bng 19 250 50 0 empty empty empty 0 -10 0 12 #fcfcfc #000000 #000000;
#X obj 100 374 sel 1;
#X obj 94 541 bng 19 250 50 0 empty empty empty 0 -10 0 12 #fcfcfc #000000 #000000;
#X obj 405 366 sel 1;
#X obj 478 366 sel 1;
#X obj 405 388 bng 19 250 50 0 empty empty empty 0 -10 0 12 #fcfcfc #000000 #000000;
#X obj 478 387 bng 19 250 50 0 empty empty empty 0 -10 0 12 #fcfcfc #000000 #000000;
#X obj 440 444 +;
#X msg 406 415 1;
#X msg 477 415 1;
#X obj 434 265 t b f;
#X msg 438 414 0;
#X msg 509 415 0;
#X obj 441 507 sel 2;
#X obj 441 546 bng 19 250 50 0 empty empty empty 0 -10 0 12 #fcfcfc #000000 #000000;
#X obj 574 367 sel 1;
#X obj 647 367 sel 1;
#X obj 574 389 bng 19 250 50 0 empty empty empty 0 -10 0 12 #fcfcfc #000000 #000000;
#X obj 647 388 bng 19 250 50 0 empty empty empty 0 -10 0 12 #fcfcfc #000000 #000000;
#X obj 609 445 +;
#X msg 575 416 1;
#X msg 646 416 1;
#X obj 603 266 t b f;
#X msg 607 415 0;
#X msg 678 416 0;
#X obj 610 503 sel 2;
#X obj 611 547 bng 19 250 50 0 empty empty empty 0 -10 0 12 #fcfcfc #000000 #000000;
#X msg 935 903 0;
#X msg 968 903 1;
#X msg 1002 903 2;
#X msg 1037 903 3;
#X obj 109 948 outlet col;
#X obj 1038 948 outlet rad;
#X obj 729 368 sel 1;
#X obj 802 368 sel 1;
#X obj 729 390 bng 19 250 50 0 empty empty empty 0 -10 0 12 #fcfcfc #000000 #000000;
#X obj 802 389 bng 19 250 50 0 empty empty empty 0 -10 0 12 #fcfcfc #000000 #000000;
#X obj 764 446 +;
#X msg 730 417 1;
#X msg 801 417 1;
#X obj 758 267 t b f;
#X msg 762 416 0;
#X msg 833 417 0;
#X obj 765 504 sel 2;
#X obj 902 370 sel 1;
#X obj 975 370 sel 1;
#X obj 902 392 bng 19 250 50 0 empty empty empty 0 -10 0 12 #fcfcfc #000000 #000000;
#X obj 975 391 bng 19 250 50 0 empty empty empty 0 -10 0 12 #fcfcfc #000000 #000000;
#X obj 937 448 +;
#X msg 903 419 1;
#X msg 974 419 1;
#X obj 931 269 t b f;
#X msg 935 418 0;
#X msg 1006 419 0;
#X obj 938 506 sel 2;
#X obj 1071 371 sel 1;
#X obj 1144 371 sel 1;
#X obj 1071 393 bng 19 250 50 0 empty empty empty 0 -10 0 12 #fcfcfc #000000 #000000;
#X obj 1144 392 bng 19 250 50 0 empty empty empty 0 -10 0 12 #fcfcfc #000000 #000000;
#X obj 1106 449 +;
#X msg 1072 420 1;
#X msg 1143 420 1;
#X obj 1100 270 t b f;
#X msg 1104 419 0;
#X msg 1175 420 0;
#X obj 1107 507 sel 2;
#X msg 1071 903 4;
#X msg 1104 903 5;
#X msg 1138 903 6;
#X msg 1173 903 7;
#X obj 765 546 bng 19 250 50 0 empty empty empty 0 -10 0 12 #fcfcfc #000000 #000000;
#X obj 938 545 bng 19 250 50 0 empty empty empty 0 -10 0 12 #fcfcfc #000000 #000000;
#X obj 1107 546 bng 19 250 50 0 empty empty empty 0 -10 0 12 #fcfcfc #000000 #000000;
#X msg 1454 308 1;
#X obj 700 40 ctlin 54 1;
#X obj 1176 799 bng 19 250 50 0 empty empty empty 0 -10 0 12 #fcfcfc #000000 #000000;
#X obj 1218 799 bng 19 250 50 0 empty empty empty 0 -10 0 12 #fcfcfc #000000 #000000;
#X obj 1260 800 bng 19 250 50 0 empty empty empty 0 -10 0 12 #fcfcfc #000000 #000000;
#X obj 1302 800 bng 19 250 50 0 empty empty empty 0 -10 0 12 #fcfcfc #000000 #000000;
#X obj 1344 799 bng 19 250 50 0 empty empty empty 0 -10 0 12 #fcfcfc #000000 #000000;
#X obj 1386 799 bng 19 250 50 0 empty empty empty 0 -10 0 12 #fcfcfc #000000 #000000;
#X obj 1428 798 bng 19 250 50 0 empty empty empty 0 -10 0 12 #fcfcfc #000000 #000000;
#X obj 1470 798 bng 19 250 50 0 empty empty empty 0 -10 0 12 #fcfcfc #000000 #000000;
#X obj 1455 403 bng 19 250 50 0 empty empty empty 0 -10 0 12 #fcfcfc #000000 #000000;
#X msg 1368 592 0;
#X obj 1220 368 sel 1;
#X obj 1293 368 sel 1;
#X obj 1220 390 bng 19 250 50 0 empty empty empty 0 -10 0 12 #fcfcfc #000000 #000000;
#X obj 1293 389 bng 19 250 50 0 empty empty empty 0 -10 0 12 #fcfcfc #000000 #000000;
#X obj 1255 446 +;
#X msg 1221 417 1;
#X msg 1292 417 1;
#X obj 1249 267 t b f;
#X msg 1253 416 0;
#X msg 1324 417 0;
#X obj 1256 504 sel 2;
#X obj 1256 543 bng 19 250 50 0 empty empty empty 0 -10 0 12 #fcfcfc #000000 #000000;
#X obj 1464 366 loadbang;
#X obj 1589 486 / 127;
#X floatatom 1589 538 5 0 0 0 - - - 0;
#X obj 1591 566 + 50;
#X obj 1176 774 sel 0;
#X obj 1218 774 sel 1;
#X obj 1260 774 sel 2;
#X obj 1302 774 sel 3;
#X obj 1344 775 sel 4;
#X obj 1386 775 sel 5;
#X obj 1428 775 sel 6;
#X obj 1470 775 sel 7;
#X floatatom 1487 492 5 0 0 2 bpm bpm - 0;
#X obj 1457 703 random 8;
#X obj 1382 498 tgl 19 0 empty empty empty 0 -10 0 12 #fcfcfc #000000 #000000 0 1;
#X msg 1476 614 tempo \$1 permin;
#X obj 1589 510 * 100;
#X obj 1417 664 metro 1 120 permin;
#X floatatom 1659 642 5 0 0 0 - - - 0;
#X obj 1659 618 expr 1/$f1;
#X obj 1495 542 spigot;
#X obj 1540 495 tgl 19 0 empty empty empty 0 -10 0 12 #fcfcfc #000000 #000000 0 1;
#X obj 1316 720 bng 19 250 50 0 empty beat beat 0 -10 0 12 #fcfcfc #000000 #000000;
#X obj 1660 563 loadbang;
#X msg 1662 588 0.5;
#X obj 1397 434 bng 19 250 50 0 empty stop-bpm empty 0 -10 0 12 #fcfcfc #000000 #000000;
#X msg 1396 462 0;
#X obj 1369 434 bng 19 250 50 0 empty start empty 0 -10 0 12 #fcfcfc #000000 #000000;
#X msg 1356 462 1;
#X obj 1587 454 ctlin 55 1;
#X obj 915 99 cnv 19 20 20 empty empty empty 20 12 0 12 #ff0400 #404040 0;
#X obj 935 99 cnv 19 20 20 empty empty empty 20 12 0 12 #00ff04 #404040 0;
#X obj 955 99 cnv 19 20 20 empty empty empty 20 12 0 12 #0400ff #404040 0;
#X obj 974 99 cnv 19 20 20 54-1 54-1 empty 20 12 0 12 #faff00 #404040 0;
#X obj 993 99 cnv 19 20 20 54-1 empty empty 20 12 0 12 #ffc7c6 #404040 0;
#X obj 1012 99 cnv 19 20 20 empty empty empty 20 12 0 12 #c6feff #404040 0;
#X obj 1050 99 cnv 19 20 20 empty empty empty 20 12 0 12 #9f9f9f #404040 0;
#X obj 917 98 hradio 19 1 0 9 empty empty empty 0 -10 0 12 #ffffff #000000 #000000 0;
#X floatatom 917 141 5 0 0 0 - - - 0;
#X obj 296 381 sel 1;
#X obj 101 312 expr $f1 < 1;
#X obj 241 316 expr $f1 >= 1 \; $f1 < 2 \;;
#X obj 423 301 expr $f1 >= 2 \; $f1 < 3 \;;
#X obj 592 302 expr $f1 >= 3 \; $f1 < 4 \;;
#X obj 747 303 expr $f1 >= 4 \; $f1 < 5 \;;
#X obj 920 305 expr $f1 >= 5 \; $f1 < 6 \;;
#X obj 1089 306 expr $f1 >= 6 \; $f1 < 7 \;;
#X obj 1238 303 expr $f1 >= 7 \; $f1 < 8 \;;
#X obj 833 46 inlet;
#X obj 1454 281 sel 8;
#X floatatom 983 143 4 0 0 0 - - 54-1 0;
#X obj 706 125 * 8;
#X obj 56 244 loadbang;
#X msg 433 857 1 0 0 0.5;
#X msg 518 856 0 1 0 0.5;
#X msg 597 856 0 0 1 0.5;
#X msg 713 853 1 1 0 0.5;
#X msg 798 852 1 0 1 0.5;
#X msg 881 851 0 1 1 0.5;
#X msg 976 850 1 1 1 0.5;
#X msg 1073 851 0.5 0.5 0.5 0.5;
#X connect 0 0 159 0;
#X connect 1 0 2 0;
#X connect 1 1 8 0;
#X connect 2 0 5 0;
#X connect 3 0 6 0;
#X connect 4 0 10 0;
#X connect 5 0 4 0;
#X connect 6 0 4 1;
#X connect 7 0 149 0;
#X connect 7 1 149 0;
#X connect 8 0 4 0;
#X connect 9 0 4 1;
#X connect 10 0 11 0;
#X connect 11 0 95 0;
#X connect 11 0 162 0;
#X connect 12 0 13 0;
#X connect 13 0 95 0;
#X connect 13 0 161 0;
#X connect 14 0 16 0;
#X connect 14 1 22 0;
#X connect 15 0 17 0;
#X connect 15 1 23 0;
#X connect 16 0 19 0;
#X connect 17 0 20 0;
#X connect 18 0 24 0;
#X connect 19 0 18 0;
#X connect 20 0 18 1;
#X connect 21 0 150 0;
#X connect 21 1 150 0;
#X connect 22 0 18 0;
#X connect 23 0 18 1;
#X connect 24 0 25 0;
#X connect 25 0 95 0;
#X connect 25 0 163 0;
#X connect 26 0 28 0;
#X connect 26 1 34 0;
#X connect 27 0 29 0;
#X connect 27 1 35 0;
#X connect 28 0 31 0;
#X connect 29 0 32 0;
#X connect 30 0 36 0;
#X connect 31 0 30 0;
#X connect 32 0 30 1;
#X connect 33 0 151 0;
#X connect 33 1 151 0;
#X connect 34 0 30 0;
#X connect 35 0 30 1;
#X connect 36 0 37 0;
#X connect 37 0 95 0;
#X connect 37 0 164 0;
#X connect 38 0 43 0;
#X connect 39 0 43 0;
#X connect 40 0 43 0;
#X connect 41 0 43 0;
#X connect 44 0 46 0;
#X connect 44 1 52 0;
#X connect 45 0 47 0;
#X connect 45 1 53 0;
#X connect 46 0 49 0;
#X connect 47 0 50 0;
#X connect 48 0 54 0;
#X connect 49 0 48 0;
#X connect 50 0 48 1;
#X connect 51 0 152 0;
#X connect 51 1 152 0;
#X connect 52 0 48 0;
#X connect 53 0 48 1;
#X connect 54 0 81 0;
#X connect 55 0 57 0;
#X connect 55 1 63 0;
#X connect 56 0 58 0;
#X connect 56 1 64 0;
#X connect 57 0 60 0;
#X connect 58 0 61 0;
#X connect 59 0 65 0;
#X connect 60 0 59 0;
#X connect 61 0 59 1;
#X connect 62 0 153 0;
#X connect 62 1 153 0;
#X connect 63 0 59 0;
#X connect 64 0 59 1;
#X connect 65 0 82 0;
#X connect 66 0 68 0;
#X connect 66 1 74 0;
#X connect 67 0 69 0;
#X connect 67 1 75 0;
#X connect 68 0 71 0;
#X connect 69 0 72 0;
#X connect 70 0 76 0;
#X connect 71 0 70 0;
#X connect 72 0 70 1;
#X connect 73 0 154 0;
#X connect 73 1 154 0;
#X connect 74 0 70 0;
#X connect 75 0 70 1;
#X connect 76 0 83 0;
#X connect 77 0 43 0;
#X connect 78 0 43 0;
#X connect 79 0 43 0;
#X connect 80 0 43 0;
#X connect 81 0 95 0;
#X connect 81 0 165 0;
#X connect 82 0 95 0;
#X connect 82 0 166 0;
#X connect 83 0 95 0;
#X connect 83 0 167 0;
#X connect 84 0 94 0;
#X connect 85 0 0 0;
#X connect 86 0 161 0;
#X connect 87 0 162 0;
#X connect 88 0 163 0;
#X connect 89 0 164 0;
#X connect 90 0 165 0;
#X connect 91 0 166 0;
#X connect 92 0 167 0;
#X connect 93 0 168 0;
#X connect 94 0 125 0;
#X connect 95 0 125 0;
#X connect 96 0 98 0;
#X connect 96 1 104 0;
#X connect 97 0 99 0;
#X connect 97 1 105 0;
#X connect 98 0 101 0;
#X connect 99 0 102 0;
#X connect 100 0 106 0;
#X connect 101 0 100 0;
#X connect 102 0 100 1;
#X connect 103 0 155 0;
#X connect 103 1 155 0;
#X connect 104 0 100 0;
#X connect 105 0 100 1;
#X connect 106 0 107 0;
#X connect 107 0 168 0;
#X connect 107 0 95 0;
#X connect 108 0 94 0;
#X connect 109 0 124 0;
#X connect 110 0 111 0;
#X connect 111 0 123 0;
#X connect 112 0 86 0;
#X connect 113 0 87 0;
#X connect 114 0 88 0;
#X connect 115 0 89 0;
#X connect 116 0 90 0;
#X connect 117 0 91 0;
#X connect 118 0 92 0;
#X connect 119 0 93 0;
#X connect 120 0 128 0;
#X connect 121 0 112 0;
#X connect 121 0 113 0;
#X connect 121 0 114 0;
#X connect 121 0 115 0;
#X connect 121 0 116 0;
#X connect 121 0 117 0;
#X connect 121 0 118 0;
#X connect 121 0 119 0;
#X connect 122 0 125 0;
#X connect 123 0 125 0;
#X connect 124 0 110 0;
#X connect 125 0 121 0;
#X connect 126 0 125 1;
#X connect 127 0 126 0;
#X connect 128 0 123 0;
#X connect 129 0 128 1;
#X connect 131 0 132 0;
#X connect 132 0 127 0;
#X connect 133 0 134 0;
#X connect 134 0 122 0;
#X connect 135 0 136 0;
#X connect 136 0 122 0;
#X connect 136 0 129 0;
#X connect 137 0 109 0;
#X connect 145 0 146 0;
#X connect 145 0 158 0;
#X connect 146 0 51 0;
#X connect 146 0 157 0;
#X connect 146 0 103 0;
#X connect 146 0 73 0;
#X connect 146 0 62 0;
#X connect 146 0 33 0;
#X connect 146 0 21 0;
#X connect 146 0 7 0;
#X connect 146 0 148 0;
#X connect 147 0 3 0;
#X connect 147 1 9 0;
#X connect 148 0 12 0;
#X connect 149 0 1 0;
#X connect 149 1 147 0;
#X connect 150 0 14 0;
#X connect 150 1 15 0;
#X connect 151 0 26 0;
#X connect 151 1 27 0;
#X connect 152 0 44 0;
#X connect 152 1 45 0;
#X connect 153 0 55 0;
#X connect 153 1 56 0;
#X connect 154 0 66 0;
#X connect 154 1 67 0;
#X connect 155 0 96 0;
#X connect 155 1 97 0;
#X connect 156 0 146 0;
#X connect 157 0 84 0;
#X connect 159 0 145 0;
#X connect 160 0 13 0;
#X connect 161 0 42 0;
#X connect 161 0 38 0;
#X connect 162 0 42 0;
#X connect 162 0 39 0;
#X connect 163 0 42 0;
#X connect 163 0 40 0;
#X connect 164 0 42 0;
#X connect 164 0 41 0;
#X connect 165 0 42 0;
#X connect 165 0 77 0;
#X connect 166 0 42 0;
#X connect 166 0 78 0;
#X connect 167 0 42 0;
#X connect 167 0 79 0;
#X connect 168 0 42 0;
#X connect 168 0 80 0;
