#N canvas 0 28 1440 900 12;
#X obj 731 496 loadbang;
#X symbolatom 731 553 10 0 0 0 - - - 0;
#X obj 731 580 s domain;
#X obj 812 526 bng 19 250 50 0 empty empty empty 0 -10 0 12 #fcfcfc #000000 #000000;
#X obj 812 605 s arg;
#X obj 504 490 loadbang;
#X symbolatom 504 547 10 0 0 0 - - - 0;
#X obj 504 574 s domain;
#X obj 585 520 bng 19 250 50 0 empty empty empty 0 -10 0 12 #fcfcfc #000000 #000000;
#X obj 585 573 s arg;
#X msg 504 515 set line;
#X obj 1016 251 loadbang;
#X symbolatom 1016 308 10 0 0 0 - - - 0;
#X obj 1016 335 s domain;
#X obj 1097 281 bng 19 250 50 0 empty empty empty 0 -10 0 12 #fcfcfc #000000 #000000;
#X obj 1097 334 s arg;
#X msg 1016 276 set sphere;
#X msg 1097 309 0 0 0 0.3 0.5;
#X obj 169 295 loadbang;
#X symbolatom 169 352 10 0 0 0 - - - 0;
#X obj 169 379 s domain;
#X obj 250 325 bng 19 250 50 0 empty empty empty 0 -10 0 12 #fcfcfc #000000 #000000;
#X obj 250 378 s arg;
#X msg 169 320 set blob;
#X obj 910 438 loadbang;
#X symbolatom 910 495 10 0 0 0 - - - 0;
#X obj 910 522 s domain;
#X obj 991 468 bng 19 250 50 0 empty empty empty 0 -10 0 12 #fcfcfc #000000 #000000;
#X obj 991 521 s arg;
#X msg 910 463 set cone;
#X floatatom 261 131 5 0 0 0 - - - 0;
#X obj 261 185 sel 0;
#X obj 310 185 sel 1;
#X obj 358 186 sel 2;
#X obj 407 186 sel 3;
#X obj 453 186 sel 4;
#X obj 261 103 inlet;
#X msg 250 353 0 0 0 0.1;
#X obj 295 425 loadbang;
#X symbolatom 295 482 10 0 0 0 - - - 0;
#X obj 295 509 s domain;
#X obj 376 455 bng 19 250 50 0 empty empty empty 0 -10 0 12 #fcfcfc #000000 #000000;
#X obj 376 508 s arg;
#X msg 295 450 set line;
#X msg 376 483 0 1 0 0 -0.5 0;
#X obj 498 186 sel 5;
#X msg 585 548 -0.5 0 0 1 0 0;
#X msg 991 496 0 0.2 0 0 -0.5 0 0.8 0.1;
#X obj 659 59 notein;
#X obj 657 131 spigot;
#X msg 667 108 1;
#X msg 701 108 0;
#X obj 711 81 sel 2;
#X obj 659 81 sel 53;
#X msg 657 153 0;
#X msg 756 153 1;
#X msg 858 154 2;
#X msg 956 154 3;
#X msg 1055 153 4;
#X obj 758 59 notein;
#X obj 756 131 spigot;
#X msg 766 108 1;
#X msg 800 108 0;
#X obj 810 81 sel 2;
#X obj 758 81 sel 54;
#X obj 860 57 notein;
#X obj 858 129 spigot;
#X msg 868 106 1;
#X msg 902 106 0;
#X obj 912 79 sel 2;
#X obj 860 79 sel 55;
#X obj 958 59 notein;
#X obj 956 131 spigot;
#X msg 966 108 1;
#X msg 1000 108 0;
#X obj 1010 81 sel 2;
#X obj 958 81 sel 56;
#X obj 1057 57 notein;
#X obj 1055 129 spigot;
#X msg 1065 106 1;
#X msg 1099 106 0;
#X obj 1106 80 sel 2;
#X obj 656 176 s d0;
#X obj 753 184 s d1;
#X obj 855 191 s d2;
#X obj 956 188 s d3;
#X obj 1055 188 s d4;
#X obj 1057 79 sel 57;
#X obj 1195 63 notein;
#X obj 1193 135 spigot;
#X msg 1203 112 1;
#X msg 1237 112 0;
#X obj 1195 85 sel 53;
#X msg 1193 157 0;
#X msg 1292 157 1;
#X msg 1394 158 2;
#X msg 1492 158 3;
#X msg 1591 157 4;
#X obj 1294 63 notein;
#X obj 1292 135 spigot;
#X msg 1302 112 1;
#X msg 1336 112 0;
#X obj 1294 85 sel 54;
#X obj 1396 61 notein;
#X obj 1394 133 spigot;
#X msg 1404 110 1;
#X msg 1438 110 0;
#X obj 1396 83 sel 55;
#X obj 1494 63 notein;
#X obj 1492 135 spigot;
#X msg 1502 112 1;
#X msg 1536 112 0;
#X obj 1494 85 sel 56;
#X obj 1593 61 notein;
#X obj 1591 133 spigot;
#X msg 1601 110 1;
#X msg 1635 110 0;
#X obj 1593 83 sel 57;
#X obj 1192 180 s d5;
#X obj 1289 188 s d6;
#X obj 1391 195 s d7;
#X obj 1492 192 s d8;
#X obj 1591 192 s d9;
#X obj 1247 85 sel 5;
#X obj 1346 85 sel 5;
#X obj 1448 83 sel 5;
#X obj 1546 85 sel 5;
#X obj 1642 84 sel 5;
#X msg 731 521 set disc;
#X msg 812 580 0 0.1 0 0.1 0.1 0.1;
#X connect 0 0 128 0;
#X connect 1 0 2 0;
#X connect 3 0 1 0;
#X connect 3 0 129 0;
#X connect 5 0 10 0;
#X connect 6 0 7 0;
#X connect 8 0 6 0;
#X connect 8 0 46 0;
#X connect 10 0 6 0;
#X connect 11 0 16 0;
#X connect 12 0 13 0;
#X connect 14 0 12 0;
#X connect 14 0 17 0;
#X connect 16 0 12 0;
#X connect 17 0 15 0;
#X connect 18 0 23 0;
#X connect 19 0 20 0;
#X connect 21 0 19 0;
#X connect 21 0 37 0;
#X connect 23 0 19 0;
#X connect 24 0 29 0;
#X connect 25 0 26 0;
#X connect 27 0 25 0;
#X connect 27 0 47 0;
#X connect 29 0 25 0;
#X connect 30 0 31 0;
#X connect 30 0 32 0;
#X connect 30 0 33 0;
#X connect 30 0 34 0;
#X connect 30 0 35 0;
#X connect 30 0 45 0;
#X connect 31 0 21 0;
#X connect 32 0 41 0;
#X connect 33 0 8 0;
#X connect 34 0 3 0;
#X connect 35 0 27 0;
#X connect 36 0 30 0;
#X connect 37 0 22 0;
#X connect 38 0 43 0;
#X connect 39 0 40 0;
#X connect 41 0 39 0;
#X connect 41 0 44 0;
#X connect 43 0 39 0;
#X connect 44 0 42 0;
#X connect 46 0 9 0;
#X connect 47 0 28 0;
#X connect 48 0 53 0;
#X connect 48 2 52 0;
#X connect 49 0 54 0;
#X connect 50 0 49 1;
#X connect 51 0 49 1;
#X connect 52 0 50 0;
#X connect 52 1 51 0;
#X connect 53 0 49 0;
#X connect 54 0 82 0;
#X connect 55 0 83 0;
#X connect 56 0 84 0;
#X connect 57 0 85 0;
#X connect 58 0 86 0;
#X connect 59 0 64 0;
#X connect 59 2 63 0;
#X connect 60 0 55 0;
#X connect 61 0 60 1;
#X connect 62 0 60 1;
#X connect 63 0 61 0;
#X connect 63 1 62 0;
#X connect 64 0 60 0;
#X connect 65 0 70 0;
#X connect 65 2 69 0;
#X connect 66 0 56 0;
#X connect 67 0 66 1;
#X connect 68 0 66 1;
#X connect 69 0 67 0;
#X connect 69 1 68 0;
#X connect 70 0 66 0;
#X connect 71 0 76 0;
#X connect 71 2 75 0;
#X connect 72 0 57 0;
#X connect 73 0 72 1;
#X connect 74 0 72 1;
#X connect 75 0 73 0;
#X connect 75 1 74 0;
#X connect 76 0 72 0;
#X connect 77 0 87 0;
#X connect 77 2 81 0;
#X connect 78 0 58 0;
#X connect 79 0 78 1;
#X connect 80 0 78 1;
#X connect 81 0 79 0;
#X connect 81 1 80 0;
#X connect 87 0 78 0;
#X connect 88 0 92 0;
#X connect 88 2 123 0;
#X connect 89 0 93 0;
#X connect 90 0 89 1;
#X connect 91 0 89 1;
#X connect 92 0 89 0;
#X connect 93 0 118 0;
#X connect 94 0 119 0;
#X connect 95 0 120 0;
#X connect 96 0 121 0;
#X connect 97 0 122 0;
#X connect 98 0 102 0;
#X connect 98 2 124 0;
#X connect 99 0 94 0;
#X connect 100 0 99 1;
#X connect 101 0 99 1;
#X connect 102 0 99 0;
#X connect 103 0 107 0;
#X connect 103 2 125 0;
#X connect 104 0 95 0;
#X connect 105 0 104 1;
#X connect 106 0 104 1;
#X connect 107 0 104 0;
#X connect 108 0 112 0;
#X connect 108 2 126 0;
#X connect 109 0 96 0;
#X connect 110 0 109 1;
#X connect 111 0 109 1;
#X connect 112 0 109 0;
#X connect 113 0 117 0;
#X connect 113 2 127 0;
#X connect 114 0 97 0;
#X connect 115 0 114 1;
#X connect 116 0 114 1;
#X connect 117 0 114 0;
#X connect 123 0 90 0;
#X connect 123 1 91 0;
#X connect 124 0 100 0;
#X connect 124 1 101 0;
#X connect 125 0 105 0;
#X connect 125 1 106 0;
#X connect 126 0 110 0;
#X connect 126 1 111 0;
#X connect 127 0 115 0;
#X connect 127 1 116 0;
#X connect 128 0 1 0;
#X connect 129 0 4 0;
