#N canvas 0 25 1440 847 12;
#X declare -lib Gem;
#X obj 47 16 declare -lib Gem;
#X obj 64 692 gemwin;
#X msg 47 271 create \, 1;
#X msg 147 272 0 \, destroy;
#X msg 251 616 dimen 640 480;
#X obj 251 594 loadbang;
#X msg 282 259 \; pd dsp \$1;
#X obj 282 217 tgl 19 0 empty dsp empty 0 -10 0 12 #e3c6ff #000000 #000000 0 1;
#X obj 449 448 world_light;
#X msg 541 422 1 1 0;
#X msg 357 449 lighting \$1;
#X obj 466 341 tgl 19 0 empty light empty 0 -10 0 12 #ffe3c6 #000000 #000000 0 1;
#X obj 499 326 gemhead;
#X obj 499 353 rotateXYZ 0 -120 0;
#X obj 47 220 tgl 19 0 empty play empty 0 -10 0 12 #c6ffc7 #000000 #000000 0 1;
#X obj 148 230 bng 19 250 50 0 empty stop empty 0 -10 0 12 #fcfcfc #000000 #000000;
#X obj 828 361 colour-selector;
#X obj 1034 365 spigot;
#X msg 1080 346 1;
#X msg 1113 345 0;
#X obj 1033 300 notein;
#X obj 1034 386 bng 19 250 50 0 empty empty empty 0 -10 0 12 #fcfcfc #000000 #000000;
#X obj 1082 323 sel 127;
#X msg 1144 345 1;
#X msg 1174 345 0;
#X obj 1144 323 sel 1;
#X obj 1033 324 sel 90;
#X obj 731 450 spigot;
#X obj 784 425 tgl 19 0 empty empty empty 0 -10 0 12 #fcfcfc #000000 #000000 0 1;
#X obj 670 317 * 1.5;
#X floatatom 613 725 5 0 0 0 - - cpu 0;
#X obj 613 637 cputime;
#X obj 613 517 loadbang;
#X obj 613 581 metro 1000;
#X obj 613 609 t b b;
#X obj 613 697 * 0.1;
#X obj 613 666 int;
#X obj 613 548 tgl 19 0 empty empty empty 17 7 0 10 #dfdfdf #000000 #000000 0 1;
#X text 637 548 <-- on/off;
#X obj 182 438 loadbang;
#X floatatom 740 333 5 0 0 0 - - - 0;
#X msg 166 503 frame 10;
#X msg 482 422 1 1 1;
#X obj 518 398 loadbang;
#X floatatom 671 238 5 0 0 0 - 15-1 - 0;
#X obj 778 63 ctlin 14 1;
#X obj 778 98 / 127;
#X floatatom 884 105 5 0 0 0 - - - 0;
#X obj 776 147 expr $f1 > 0.5;
#X obj 797 220 tgl 19 0 light-mon empty empty 0 -10 0 12 #fcfcfc #000000 #000000 0 1;
#X connect 2 0 1 0;
#X connect 3 0 1 0;
#X connect 4 0 1 0;
#X connect 5 0 4 0;
#X connect 7 0 6 0;
#X connect 9 0 8 1;
#X connect 10 0 1 0;
#X connect 11 0 8 0;
#X connect 11 0 10 0;
#X connect 12 0 13 0;
#X connect 13 0 8 0;
#X connect 14 0 2 0;
#X connect 15 0 3 0;
#X connect 16 0 27 0;
#X connect 17 0 21 0;
#X connect 18 0 17 1;
#X connect 19 0 17 1;
#X connect 20 0 26 0;
#X connect 20 1 22 0;
#X connect 20 2 25 0;
#X connect 21 0 28 0;
#X connect 22 0 18 0;
#X connect 22 1 19 0;
#X connect 23 0 28 0;
#X connect 24 0 28 0;
#X connect 25 0 23 0;
#X connect 25 1 24 0;
#X connect 26 0 17 0;
#X connect 28 0 27 1;
#X connect 29 0 13 1;
#X connect 29 0 13 2;
#X connect 31 0 36 0;
#X connect 32 0 37 0;
#X connect 33 0 34 0;
#X connect 34 0 31 0;
#X connect 34 1 31 1;
#X connect 35 0 30 0;
#X connect 36 0 35 0;
#X connect 37 0 33 0;
#X connect 39 0 41 0;
#X connect 40 0 13 2;
#X connect 41 0 1 0;
#X connect 42 0 8 1;
#X connect 43 0 42 0;
#X connect 44 0 29 0;
#X connect 45 0 46 0;
#X connect 46 0 47 0;
#X connect 46 0 48 0;
#X connect 48 0 11 0;
#X connect 48 0 49 0;
