#N canvas 0 28 1440 900 12;
#X obj 116 99 spigot;
#X msg 162 80 1;
#X msg 195 79 0;
#X obj 115 34 notein;
#X obj 115 58 sel 53;
#X obj 116 120 bng 19 250 50 0 empty empty empty 0 -10 0 12 #fcfcfc #000000 #000000;
#X obj 164 57 sel 127;
#X obj 116 143 spigot;
#X msg 226 79 1;
#X msg 256 79 0;
#X obj 226 57 sel 1;
#X obj 116 165 bng 19 250 50 0 1-1 empty empty 0 -10 0 12 #fcfcfc #000000 #000000;
#X obj 117 279 spigot;
#X msg 163 260 1;
#X msg 196 259 0;
#X obj 116 214 notein;
#X obj 117 300 bng 19 250 50 0 empty empty empty 0 -10 0 12 #fcfcfc #000000 #000000;
#X obj 165 237 sel 127;
#X obj 117 323 spigot;
#X msg 227 259 1;
#X msg 257 259 0;
#X obj 227 237 sel 1;
#X obj 117 345 bng 19 250 50 0 1-2 empty empty 0 -10 0 12 #fcfcfc #000000 #000000;
#X obj 119 460 spigot;
#X msg 165 441 1;
#X msg 198 440 0;
#X obj 118 395 notein;
#X obj 119 481 bng 19 250 50 0 empty empty empty 0 -10 0 12 #fcfcfc #000000 #000000;
#X obj 167 418 sel 127;
#X obj 119 504 spigot;
#X msg 229 440 1;
#X msg 259 440 0;
#X obj 229 418 sel 1;
#X obj 119 526 bng 19 250 50 0 1-3 empty empty 0 -10 0 12 #fcfcfc #000000 #000000;
#X obj 120 642 spigot;
#X msg 166 623 1;
#X msg 199 622 0;
#X obj 119 577 notein;
#X obj 120 663 bng 19 250 50 0 empty empty empty 0 -10 0 12 #fcfcfc #000000 #000000;
#X obj 168 600 sel 127;
#X obj 120 686 spigot;
#X msg 230 622 1;
#X msg 260 622 0;
#X obj 230 600 sel 1;
#X obj 120 708 bng 19 250 50 0 1-4 empty empty 0 -10 0 12 #fcfcfc #000000 #000000;
#X obj 119 828 spigot;
#X msg 165 809 1;
#X msg 198 808 0;
#X obj 121 764 notein;
#X obj 119 849 bng 19 250 50 0 empty empty empty 0 -10 0 12 #fcfcfc #000000 #000000;
#X obj 170 787 sel 127;
#X obj 119 872 spigot;
#X msg 229 808 1;
#X msg 259 808 0;
#X obj 232 787 sel 1;
#X obj 119 894 bng 19 250 50 0 1-5 empty empty 0 -10 0 12 #fcfcfc #000000 #000000;
#X obj 116 238 sel 54;
#X obj 118 419 sel 55;
#X obj 119 601 sel 56;
#X obj 425 104 spigot;
#X msg 471 85 1;
#X msg 504 84 0;
#X obj 424 39 notein;
#X obj 424 63 sel 53;
#X obj 425 125 bng 19 250 50 0 empty empty empty 0 -10 0 12 #fcfcfc #000000 #000000;
#X obj 473 62 sel 127;
#X obj 425 148 spigot;
#X msg 535 84 1;
#X msg 565 84 0;
#X obj 426 284 spigot;
#X msg 472 265 1;
#X msg 505 264 0;
#X obj 425 219 notein;
#X obj 426 305 bng 19 250 50 0 empty empty empty 0 -10 0 12 #fcfcfc #000000 #000000;
#X obj 474 242 sel 127;
#X obj 426 328 spigot;
#X msg 536 264 1;
#X msg 566 264 0;
#X obj 428 465 spigot;
#X msg 474 446 1;
#X msg 507 445 0;
#X obj 427 400 notein;
#X obj 428 486 bng 19 250 50 0 empty empty empty 0 -10 0 12 #fcfcfc #000000 #000000;
#X obj 476 423 sel 127;
#X obj 428 509 spigot;
#X msg 538 445 1;
#X msg 568 445 0;
#X obj 429 647 spigot;
#X msg 475 628 1;
#X msg 508 627 0;
#X obj 428 582 notein;
#X obj 429 668 bng 19 250 50 0 empty empty empty 0 -10 0 12 #fcfcfc #000000 #000000;
#X obj 477 605 sel 127;
#X obj 429 691 spigot;
#X msg 539 627 1;
#X msg 569 627 0;
#X obj 428 833 spigot;
#X msg 474 814 1;
#X msg 507 813 0;
#X obj 430 769 notein;
#X obj 428 854 bng 19 250 50 0 empty empty empty 0 -10 0 12 #fcfcfc #000000 #000000;
#X obj 479 792 sel 127;
#X obj 428 877 spigot;
#X msg 538 813 1;
#X msg 568 813 0;
#X obj 425 243 sel 54;
#X obj 427 424 sel 55;
#X obj 428 606 sel 56;
#X obj 737 102 spigot;
#X msg 783 83 1;
#X msg 816 82 0;
#X obj 736 37 notein;
#X obj 736 61 sel 53;
#X obj 737 123 bng 19 250 50 0 empty empty empty 0 -10 0 12 #fcfcfc #000000 #000000;
#X obj 785 60 sel 127;
#X obj 737 146 spigot;
#X msg 847 82 1;
#X msg 877 82 0;
#X obj 737 168 bng 19 250 50 0 3-1 empty empty 0 -10 0 12 #fcfcfc #000000 #000000;
#X obj 738 282 spigot;
#X msg 784 263 1;
#X msg 817 262 0;
#X obj 737 217 notein;
#X obj 738 303 bng 19 250 50 0 empty empty empty 0 -10 0 12 #fcfcfc #000000 #000000;
#X obj 786 240 sel 127;
#X obj 738 326 spigot;
#X msg 848 262 1;
#X msg 878 262 0;
#X obj 738 348 bng 19 250 50 0 3-2 empty empty 0 -10 0 12 #fcfcfc #000000 #000000;
#X obj 740 463 spigot;
#X msg 786 444 1;
#X msg 819 443 0;
#X obj 739 398 notein;
#X obj 740 484 bng 19 250 50 0 empty empty empty 0 -10 0 12 #fcfcfc #000000 #000000;
#X obj 788 421 sel 127;
#X obj 740 507 spigot;
#X msg 850 443 1;
#X msg 880 443 0;
#X obj 740 529 bng 19 250 50 0 3-3 empty empty 0 -10 0 12 #fcfcfc #000000 #000000;
#X obj 741 645 spigot;
#X msg 787 626 1;
#X msg 820 625 0;
#X obj 740 580 notein;
#X obj 741 666 bng 19 250 50 0 empty empty empty 0 -10 0 12 #fcfcfc #000000 #000000;
#X obj 789 603 sel 127;
#X obj 741 689 spigot;
#X msg 851 625 1;
#X msg 881 625 0;
#X obj 741 711 bng 19 250 50 0 3-4 empty empty 0 -10 0 12 #fcfcfc #000000 #000000;
#X obj 740 831 spigot;
#X msg 786 812 1;
#X msg 819 811 0;
#X obj 742 767 notein;
#X obj 740 852 bng 19 250 50 0 empty empty empty 0 -10 0 12 #fcfcfc #000000 #000000;
#X obj 791 790 sel 127;
#X obj 740 875 spigot;
#X msg 850 811 1;
#X msg 880 811 0;
#X obj 740 897 bng 19 250 50 0 3-5 empty empty 0 -10 0 12 #fcfcfc #000000 #000000;
#X obj 737 241 sel 54;
#X obj 739 422 sel 55;
#X obj 740 604 sel 56;
#X obj 1009 95 spigot;
#X msg 1055 76 1;
#X msg 1088 75 0;
#X obj 1008 30 notein;
#X obj 1008 54 sel 53;
#X obj 1009 116 bng 19 250 50 0 empty empty empty 0 -10 0 12 #fcfcfc #000000 #000000;
#X obj 1057 53 sel 127;
#X obj 1009 139 spigot;
#X msg 1119 75 1;
#X msg 1149 75 0;
#X obj 1009 161 bng 19 250 50 0 4-1 empty empty 0 -10 0 12 #fcfcfc #000000 #000000;
#X obj 1010 275 spigot;
#X msg 1056 256 1;
#X msg 1089 255 0;
#X obj 1009 210 notein;
#X obj 1010 296 bng 19 250 50 0 empty empty empty 0 -10 0 12 #fcfcfc #000000 #000000;
#X obj 1058 233 sel 127;
#X obj 1010 319 spigot;
#X msg 1120 255 1;
#X msg 1150 255 0;
#X obj 1010 341 bng 19 250 50 0 4-2 empty empty 0 -10 0 12 #fcfcfc #000000 #000000;
#X obj 1012 456 spigot;
#X msg 1058 437 1;
#X msg 1091 436 0;
#X obj 1011 391 notein;
#X obj 1012 477 bng 19 250 50 0 empty empty empty 0 -10 0 12 #fcfcfc #000000 #000000;
#X obj 1060 414 sel 127;
#X obj 1012 500 spigot;
#X msg 1122 436 1;
#X msg 1152 436 0;
#X obj 1012 522 bng 19 250 50 0 4-3 empty empty 0 -10 0 12 #fcfcfc #000000 #000000;
#X obj 1013 638 spigot;
#X msg 1059 619 1;
#X msg 1092 618 0;
#X obj 1012 573 notein;
#X obj 1013 659 bng 19 250 50 0 empty empty empty 0 -10 0 12 #fcfcfc #000000 #000000;
#X obj 1061 596 sel 127;
#X obj 1013 682 spigot;
#X msg 1123 618 1;
#X msg 1153 618 0;
#X obj 1013 704 bng 19 250 50 0 4-4 empty empty 0 -10 0 12 #fcfcfc #000000 #000000;
#X obj 1012 824 spigot;
#X msg 1058 805 1;
#X msg 1091 804 0;
#X obj 1014 760 notein;
#X obj 1012 845 bng 19 250 50 0 empty empty empty 0 -10 0 12 #fcfcfc #000000 #000000;
#X obj 1063 783 sel 127;
#X obj 1012 868 spigot;
#X msg 1122 804 1;
#X msg 1152 804 0;
#X obj 1012 890 bng 19 250 50 0 4-5 empty empty 0 -10 0 12 #fcfcfc #000000 #000000;
#X obj 1009 234 sel 54;
#X obj 1011 415 sel 55;
#X obj 1012 597 sel 56;
#X obj 535 62 sel 2;
#X obj 536 242 sel 2;
#X obj 538 423 sel 2;
#X obj 540 605 sel 2;
#X obj 541 792 sel 2;
#X obj 853 790 sel 3;
#X obj 851 603 sel 3;
#X obj 850 421 sel 3;
#X obj 848 240 sel 3;
#X obj 847 60 sel 3;
#X obj 1119 53 sel 4;
#X obj 1120 233 sel 4;
#X obj 1122 414 sel 4;
#X obj 1123 596 sel 4;
#X obj 1125 783 sel 4;
#X obj 1300 101 spigot;
#X msg 1346 82 1;
#X msg 1379 81 0;
#X obj 1299 36 notein;
#X obj 1299 60 sel 53;
#X obj 1300 122 bng 19 250 50 0 empty empty empty 0 -10 0 12 #fcfcfc #000000 #000000;
#X obj 1348 59 sel 127;
#X obj 1300 145 spigot;
#X msg 1410 81 1;
#X msg 1440 81 0;
#X obj 1300 167 bng 19 250 50 0 5-1 empty empty 0 -10 0 12 #fcfcfc #000000 #000000;
#X obj 1301 281 spigot;
#X msg 1347 262 1;
#X msg 1380 261 0;
#X obj 1300 216 notein;
#X obj 1301 302 bng 19 250 50 0 empty empty empty 0 -10 0 12 #fcfcfc #000000 #000000;
#X obj 1349 239 sel 127;
#X obj 1301 325 spigot;
#X msg 1411 261 1;
#X msg 1441 261 0;
#X obj 1301 347 bng 19 250 50 0 5-2 empty empty 0 -10 0 12 #fcfcfc #000000 #000000;
#X obj 1303 462 spigot;
#X msg 1349 443 1;
#X msg 1382 442 0;
#X obj 1302 397 notein;
#X obj 1303 483 bng 19 250 50 0 empty empty empty 0 -10 0 12 #fcfcfc #000000 #000000;
#X obj 1351 420 sel 127;
#X obj 1303 506 spigot;
#X msg 1413 442 1;
#X msg 1443 442 0;
#X obj 1303 528 bng 19 250 50 0 5-3 empty empty 0 -10 0 12 #fcfcfc #000000 #000000;
#X obj 1304 644 spigot;
#X msg 1350 625 1;
#X msg 1383 624 0;
#X obj 1303 579 notein;
#X obj 1304 665 bng 19 250 50 0 empty empty empty 0 -10 0 12 #fcfcfc #000000 #000000;
#X obj 1352 602 sel 127;
#X obj 1304 688 spigot;
#X msg 1414 624 1;
#X msg 1444 624 0;
#X obj 1304 710 bng 19 250 50 0 5-4 empty empty 0 -10 0 12 #fcfcfc #000000 #000000;
#X obj 1303 830 spigot;
#X msg 1349 811 1;
#X msg 1382 810 0;
#X obj 1305 766 notein;
#X obj 1303 851 bng 19 250 50 0 empty empty empty 0 -10 0 12 #fcfcfc #000000 #000000;
#X obj 1354 789 sel 127;
#X obj 1303 874 spigot;
#X msg 1413 810 1;
#X msg 1443 810 0;
#X obj 1303 896 bng 19 250 50 0 5-5 empty empty 0 -10 0 12 #fcfcfc #000000 #000000;
#X obj 1300 240 sel 54;
#X obj 1302 421 sel 55;
#X obj 1303 603 sel 56;
#X obj 1609 106 spigot;
#X msg 1655 87 1;
#X msg 1688 86 0;
#X obj 1608 41 notein;
#X obj 1608 65 sel 53;
#X obj 1609 127 bng 19 250 50 0 empty empty empty 0 -10 0 12 #fcfcfc #000000 #000000;
#X obj 1657 64 sel 127;
#X obj 1609 150 spigot;
#X msg 1719 86 1;
#X msg 1749 86 0;
#X obj 1609 172 bng 19 250 50 0 6-1 empty empty 0 -10 0 12 #fcfcfc #000000 #000000;
#X obj 1610 286 spigot;
#X msg 1656 267 1;
#X msg 1689 266 0;
#X obj 1609 221 notein;
#X obj 1610 307 bng 19 250 50 0 empty empty empty 0 -10 0 12 #fcfcfc #000000 #000000;
#X obj 1658 244 sel 127;
#X obj 1610 330 spigot;
#X msg 1720 266 1;
#X msg 1750 266 0;
#X obj 1610 352 bng 19 250 50 0 6-2 empty empty 0 -10 0 12 #fcfcfc #000000 #000000;
#X obj 1612 467 spigot;
#X msg 1658 448 1;
#X msg 1691 447 0;
#X obj 1611 402 notein;
#X obj 1612 488 bng 19 250 50 0 empty empty empty 0 -10 0 12 #fcfcfc #000000 #000000;
#X obj 1660 425 sel 127;
#X obj 1612 511 spigot;
#X msg 1722 447 1;
#X msg 1752 447 0;
#X obj 1612 533 bng 19 250 50 0 6-3 empty empty 0 -10 0 12 #fcfcfc #000000 #000000;
#X obj 1613 649 spigot;
#X msg 1659 630 1;
#X msg 1692 629 0;
#X obj 1612 584 notein;
#X obj 1613 670 bng 19 250 50 0 empty empty empty 0 -10 0 12 #fcfcfc #000000 #000000;
#X obj 1661 607 sel 127;
#X obj 1613 693 spigot;
#X msg 1723 629 1;
#X msg 1753 629 0;
#X obj 1613 715 bng 19 250 50 0 6-4 empty empty 0 -10 0 12 #fcfcfc #000000 #000000;
#X obj 1612 835 spigot;
#X msg 1658 816 1;
#X msg 1691 815 0;
#X obj 1614 771 notein;
#X obj 1612 856 bng 19 250 50 0 empty empty empty 0 -10 0 12 #fcfcfc #000000 #000000;
#X obj 1663 794 sel 127;
#X obj 1612 879 spigot;
#X msg 1722 815 1;
#X msg 1752 815 0;
#X obj 1612 901 bng 19 250 50 0 6-5 empty empty 0 -10 0 12 #fcfcfc #000000 #000000;
#X obj 1609 245 sel 54;
#X obj 1611 426 sel 55;
#X obj 1612 608 sel 56;
#X obj 1921 104 spigot;
#X msg 1967 85 1;
#X msg 2000 84 0;
#X obj 1920 39 notein;
#X obj 1920 63 sel 53;
#X obj 1921 125 bng 19 250 50 0 empty empty empty 0 -10 0 12 #fcfcfc #000000 #000000;
#X obj 1969 62 sel 127;
#X obj 1921 148 spigot;
#X msg 2031 84 1;
#X msg 2061 84 0;
#X obj 1922 284 spigot;
#X msg 1968 265 1;
#X msg 2001 264 0;
#X obj 1921 219 notein;
#X obj 1922 305 bng 19 250 50 0 empty empty empty 0 -10 0 12 #fcfcfc #000000 #000000;
#X obj 1970 242 sel 127;
#X obj 1922 328 spigot;
#X msg 2032 264 1;
#X msg 2062 264 0;
#X obj 1924 465 spigot;
#X msg 1970 446 1;
#X msg 2003 445 0;
#X obj 1923 400 notein;
#X obj 1924 486 bng 19 250 50 0 empty empty empty 0 -10 0 12 #fcfcfc #000000 #000000;
#X obj 1972 423 sel 127;
#X obj 1924 509 spigot;
#X msg 2034 445 1;
#X msg 2064 445 0;
#X obj 1925 647 spigot;
#X msg 1971 628 1;
#X msg 2004 627 0;
#X obj 1924 582 notein;
#X obj 1925 668 bng 19 250 50 0 empty empty empty 0 -10 0 12 #fcfcfc #000000 #000000;
#X obj 1973 605 sel 127;
#X obj 1925 691 spigot;
#X msg 2035 627 1;
#X msg 2065 627 0;
#X obj 1924 833 spigot;
#X msg 1970 814 1;
#X msg 2003 813 0;
#X obj 1926 769 notein;
#X obj 1924 854 bng 19 250 50 0 empty empty empty 0 -10 0 12 #fcfcfc #000000 #000000;
#X obj 1975 792 sel 127;
#X obj 1924 877 spigot;
#X msg 2034 813 1;
#X msg 2064 813 0;
#X obj 1921 243 sel 54;
#X obj 1923 424 sel 55;
#X obj 1924 606 sel 56;
#X obj 2193 97 spigot;
#X msg 2239 78 1;
#X msg 2272 77 0;
#X obj 2192 32 notein;
#X obj 2192 56 sel 53;
#X obj 2193 118 bng 19 250 50 0 empty empty empty 0 -10 0 12 #fcfcfc #000000 #000000;
#X obj 2241 55 sel 127;
#X obj 2193 141 spigot;
#X msg 2303 77 1;
#X msg 2333 77 0;
#X obj 2193 163 bng 19 250 50 0 8-1 empty empty 0 -10 0 12 #fcfcfc #000000 #000000;
#X obj 2194 277 spigot;
#X msg 2240 258 1;
#X msg 2273 257 0;
#X obj 2193 212 notein;
#X obj 2194 298 bng 19 250 50 0 empty empty empty 0 -10 0 12 #fcfcfc #000000 #000000;
#X obj 2242 235 sel 127;
#X obj 2194 321 spigot;
#X msg 2304 257 1;
#X msg 2334 257 0;
#X obj 2194 343 bng 19 250 50 0 8-2 empty empty 0 -10 0 12 #fcfcfc #000000 #000000;
#X obj 2196 458 spigot;
#X msg 2242 439 1;
#X msg 2275 438 0;
#X obj 2195 393 notein;
#X obj 2196 479 bng 19 250 50 0 empty empty empty 0 -10 0 12 #fcfcfc #000000 #000000;
#X obj 2244 416 sel 127;
#X obj 2196 502 spigot;
#X msg 2306 438 1;
#X msg 2336 438 0;
#X obj 2196 524 bng 19 250 50 0 8-3 empty empty 0 -10 0 12 #fcfcfc #000000 #000000;
#X obj 2197 640 spigot;
#X msg 2243 621 1;
#X msg 2276 620 0;
#X obj 2196 575 notein;
#X obj 2197 661 bng 19 250 50 0 empty empty empty 0 -10 0 12 #fcfcfc #000000 #000000;
#X obj 2245 598 sel 127;
#X obj 2197 684 spigot;
#X msg 2307 620 1;
#X msg 2337 620 0;
#X obj 2197 706 bng 19 250 50 0 8-4 empty empty 0 -10 0 12 #fcfcfc #000000 #000000;
#X obj 2196 826 spigot;
#X msg 2242 807 1;
#X msg 2275 806 0;
#X obj 2198 762 notein;
#X obj 2196 847 bng 19 250 50 0 empty empty empty 0 -10 0 12 #fcfcfc #000000 #000000;
#X obj 2247 785 sel 127;
#X obj 2196 870 spigot;
#X msg 2306 806 1;
#X msg 2336 806 0;
#X obj 2196 892 bng 19 250 50 0 8-5 empty empty 0 -10 0 12 #fcfcfc #000000 #000000;
#X obj 2193 236 sel 54;
#X obj 2195 417 sel 55;
#X obj 2196 599 sel 56;
#X obj 1410 59 sel 5;
#X obj 1411 239 sel 5;
#X obj 1413 420 sel 5;
#X obj 1414 602 sel 5;
#X obj 1416 789 sel 5;
#X obj 1725 794 sel 6;
#X obj 1724 607 sel 6;
#X obj 1722 425 sel 6;
#X obj 1720 244 sel 6;
#X obj 1719 64 sel 6;
#X obj 2031 62 sel 7;
#X obj 2032 242 sel 7;
#X obj 2034 423 sel 7;
#X obj 2035 605 sel 7;
#X obj 2037 792 sel 7;
#X obj 2309 785 sel 8;
#X obj 2307 598 sel 8;
#X obj 2306 416 sel 8;
#X obj 2304 235 sel 8;
#X obj 2303 55 sel 8;
#X obj 121 788 sel 57;
#X obj 430 793 sel 57;
#X obj 742 791 sel 57;
#X obj 1014 784 sel 57;
#X obj 1305 790 sel 57;
#X obj 1614 795 sel 57;
#X obj 1926 793 sel 57;
#X obj 2198 786 sel 57;
#X msg 1924 177 0;
#X msg 1922 356 1;
#X msg 1926 537 2;
#X msg 1926 722 3;
#X floatatom 1971 177 5 0 0 0 - - 7pad 0;
#X floatatom 1980 357 5 0 0 0 - - 7pad 0;
#X floatatom 1979 534 5 0 0 0 - - 7pad 0;
#X floatatom 1984 721 5 0 0 0 - - 7pad 0;
#X obj 1927 905 bng 19 250 50 0 7-5 empty empty 0 -10 0 12 #fcfcfc #000000 #000000;
#X msg 426 177 0;
#X floatatom 471 177 5 0 0 0 - - 2pad 0;
#X floatatom 466 356 5 0 0 0 - - 2pad 0;
#X msg 426 355 1;
#X floatatom 468 538 5 0 0 0 - - 2pad 0;
#X msg 428 537 2;
#X floatatom 469 721 5 0 0 0 - - 2pad 0;
#X msg 429 720 3;
#X floatatom 468 903 5 0 0 0 - - 2pad 0;
#X msg 428 902 4;
#X connect 0 0 5 0;
#X connect 1 0 0 1;
#X connect 2 0 0 1;
#X connect 3 0 4 0;
#X connect 3 1 6 0;
#X connect 3 2 10 0;
#X connect 4 0 0 0;
#X connect 5 0 7 0;
#X connect 6 0 1 0;
#X connect 6 1 2 0;
#X connect 7 0 11 0;
#X connect 8 0 7 1;
#X connect 9 0 7 1;
#X connect 10 0 8 0;
#X connect 10 1 9 0;
#X connect 12 0 16 0;
#X connect 13 0 12 1;
#X connect 14 0 12 1;
#X connect 15 0 56 0;
#X connect 15 1 17 0;
#X connect 15 2 21 0;
#X connect 16 0 18 0;
#X connect 17 0 13 0;
#X connect 17 1 14 0;
#X connect 18 0 22 0;
#X connect 19 0 18 1;
#X connect 20 0 18 1;
#X connect 21 0 19 0;
#X connect 21 1 20 0;
#X connect 23 0 27 0;
#X connect 24 0 23 1;
#X connect 25 0 23 1;
#X connect 26 0 57 0;
#X connect 26 1 28 0;
#X connect 26 2 32 0;
#X connect 27 0 29 0;
#X connect 28 0 24 0;
#X connect 28 1 25 0;
#X connect 29 0 33 0;
#X connect 30 0 29 1;
#X connect 31 0 29 1;
#X connect 32 0 30 0;
#X connect 32 1 31 0;
#X connect 34 0 38 0;
#X connect 35 0 34 1;
#X connect 36 0 34 1;
#X connect 37 0 58 0;
#X connect 37 1 39 0;
#X connect 37 2 43 0;
#X connect 38 0 40 0;
#X connect 39 0 35 0;
#X connect 39 1 36 0;
#X connect 40 0 44 0;
#X connect 41 0 40 1;
#X connect 42 0 40 1;
#X connect 43 0 41 0;
#X connect 43 1 42 0;
#X connect 45 0 49 0;
#X connect 46 0 45 1;
#X connect 47 0 45 1;
#X connect 48 0 462 0;
#X connect 48 1 50 0;
#X connect 48 2 54 0;
#X connect 49 0 51 0;
#X connect 50 0 46 0;
#X connect 50 1 47 0;
#X connect 51 0 55 0;
#X connect 52 0 51 1;
#X connect 53 0 51 1;
#X connect 54 0 52 0;
#X connect 54 1 53 0;
#X connect 56 0 12 0;
#X connect 57 0 23 0;
#X connect 58 0 34 0;
#X connect 59 0 64 0;
#X connect 60 0 59 1;
#X connect 61 0 59 1;
#X connect 62 0 63 0;
#X connect 62 1 65 0;
#X connect 62 2 216 0;
#X connect 63 0 59 0;
#X connect 64 0 66 0;
#X connect 65 0 60 0;
#X connect 65 1 61 0;
#X connect 66 0 479 0;
#X connect 67 0 66 1;
#X connect 68 0 66 1;
#X connect 69 0 73 0;
#X connect 70 0 69 1;
#X connect 71 0 69 1;
#X connect 72 0 105 0;
#X connect 72 1 74 0;
#X connect 72 2 217 0;
#X connect 73 0 75 0;
#X connect 74 0 70 0;
#X connect 74 1 71 0;
#X connect 75 0 482 0;
#X connect 76 0 75 1;
#X connect 77 0 75 1;
#X connect 78 0 82 0;
#X connect 79 0 78 1;
#X connect 80 0 78 1;
#X connect 81 0 106 0;
#X connect 81 1 83 0;
#X connect 81 2 218 0;
#X connect 82 0 84 0;
#X connect 83 0 79 0;
#X connect 83 1 80 0;
#X connect 84 0 484 0;
#X connect 85 0 84 1;
#X connect 86 0 84 1;
#X connect 87 0 91 0;
#X connect 88 0 87 1;
#X connect 89 0 87 1;
#X connect 90 0 107 0;
#X connect 90 1 92 0;
#X connect 90 2 219 0;
#X connect 91 0 93 0;
#X connect 92 0 88 0;
#X connect 92 1 89 0;
#X connect 93 0 486 0;
#X connect 94 0 93 1;
#X connect 95 0 93 1;
#X connect 96 0 100 0;
#X connect 97 0 96 1;
#X connect 98 0 96 1;
#X connect 99 0 463 0;
#X connect 99 1 101 0;
#X connect 99 2 220 0;
#X connect 100 0 102 0;
#X connect 101 0 97 0;
#X connect 101 1 98 0;
#X connect 102 0 488 0;
#X connect 103 0 102 1;
#X connect 104 0 102 1;
#X connect 105 0 69 0;
#X connect 106 0 78 0;
#X connect 107 0 87 0;
#X connect 108 0 113 0;
#X connect 109 0 108 1;
#X connect 110 0 108 1;
#X connect 111 0 112 0;
#X connect 111 1 114 0;
#X connect 111 2 225 0;
#X connect 112 0 108 0;
#X connect 113 0 115 0;
#X connect 114 0 109 0;
#X connect 114 1 110 0;
#X connect 115 0 118 0;
#X connect 116 0 115 1;
#X connect 117 0 115 1;
#X connect 119 0 123 0;
#X connect 120 0 119 1;
#X connect 121 0 119 1;
#X connect 122 0 159 0;
#X connect 122 1 124 0;
#X connect 122 2 224 0;
#X connect 123 0 125 0;
#X connect 124 0 120 0;
#X connect 124 1 121 0;
#X connect 125 0 128 0;
#X connect 126 0 125 1;
#X connect 127 0 125 1;
#X connect 129 0 133 0;
#X connect 130 0 129 1;
#X connect 131 0 129 1;
#X connect 132 0 160 0;
#X connect 132 1 134 0;
#X connect 132 2 223 0;
#X connect 133 0 135 0;
#X connect 134 0 130 0;
#X connect 134 1 131 0;
#X connect 135 0 138 0;
#X connect 136 0 135 1;
#X connect 137 0 135 1;
#X connect 139 0 143 0;
#X connect 140 0 139 1;
#X connect 141 0 139 1;
#X connect 142 0 161 0;
#X connect 142 1 144 0;
#X connect 142 2 222 0;
#X connect 143 0 145 0;
#X connect 144 0 140 0;
#X connect 144 1 141 0;
#X connect 145 0 148 0;
#X connect 146 0 145 1;
#X connect 147 0 145 1;
#X connect 149 0 153 0;
#X connect 150 0 149 1;
#X connect 151 0 149 1;
#X connect 152 0 464 0;
#X connect 152 1 154 0;
#X connect 152 2 221 0;
#X connect 153 0 155 0;
#X connect 154 0 150 0;
#X connect 154 1 151 0;
#X connect 155 0 158 0;
#X connect 156 0 155 1;
#X connect 157 0 155 1;
#X connect 159 0 119 0;
#X connect 160 0 129 0;
#X connect 161 0 139 0;
#X connect 162 0 167 0;
#X connect 163 0 162 1;
#X connect 164 0 162 1;
#X connect 165 0 166 0;
#X connect 165 1 168 0;
#X connect 165 2 226 0;
#X connect 166 0 162 0;
#X connect 167 0 169 0;
#X connect 168 0 163 0;
#X connect 168 1 164 0;
#X connect 169 0 172 0;
#X connect 170 0 169 1;
#X connect 171 0 169 1;
#X connect 173 0 177 0;
#X connect 174 0 173 1;
#X connect 175 0 173 1;
#X connect 176 0 213 0;
#X connect 176 1 178 0;
#X connect 176 2 227 0;
#X connect 177 0 179 0;
#X connect 178 0 174 0;
#X connect 178 1 175 0;
#X connect 179 0 182 0;
#X connect 180 0 179 1;
#X connect 181 0 179 1;
#X connect 183 0 187 0;
#X connect 184 0 183 1;
#X connect 185 0 183 1;
#X connect 186 0 214 0;
#X connect 186 1 188 0;
#X connect 186 2 228 0;
#X connect 187 0 189 0;
#X connect 188 0 184 0;
#X connect 188 1 185 0;
#X connect 189 0 192 0;
#X connect 190 0 189 1;
#X connect 191 0 189 1;
#X connect 193 0 197 0;
#X connect 194 0 193 1;
#X connect 195 0 193 1;
#X connect 196 0 215 0;
#X connect 196 1 198 0;
#X connect 196 2 229 0;
#X connect 197 0 199 0;
#X connect 198 0 194 0;
#X connect 198 1 195 0;
#X connect 199 0 202 0;
#X connect 200 0 199 1;
#X connect 201 0 199 1;
#X connect 203 0 207 0;
#X connect 204 0 203 1;
#X connect 205 0 203 1;
#X connect 206 0 465 0;
#X connect 206 1 208 0;
#X connect 206 2 230 0;
#X connect 207 0 209 0;
#X connect 208 0 204 0;
#X connect 208 1 205 0;
#X connect 209 0 212 0;
#X connect 210 0 209 1;
#X connect 211 0 209 1;
#X connect 213 0 173 0;
#X connect 214 0 183 0;
#X connect 215 0 193 0;
#X connect 216 0 67 0;
#X connect 216 1 68 0;
#X connect 217 0 76 0;
#X connect 217 1 77 0;
#X connect 218 0 85 0;
#X connect 218 1 86 0;
#X connect 219 0 94 0;
#X connect 219 1 95 0;
#X connect 220 0 103 0;
#X connect 220 1 104 0;
#X connect 221 0 156 0;
#X connect 221 1 157 0;
#X connect 222 0 146 0;
#X connect 222 1 147 0;
#X connect 223 0 136 0;
#X connect 223 1 137 0;
#X connect 224 0 126 0;
#X connect 224 1 127 0;
#X connect 225 0 116 0;
#X connect 225 1 117 0;
#X connect 226 0 170 0;
#X connect 226 1 171 0;
#X connect 227 0 180 0;
#X connect 227 1 181 0;
#X connect 228 0 190 0;
#X connect 228 1 191 0;
#X connect 229 0 200 0;
#X connect 229 1 201 0;
#X connect 230 0 210 0;
#X connect 230 1 211 0;
#X connect 231 0 236 0;
#X connect 232 0 231 1;
#X connect 233 0 231 1;
#X connect 234 0 235 0;
#X connect 234 1 237 0;
#X connect 234 2 442 0;
#X connect 235 0 231 0;
#X connect 236 0 238 0;
#X connect 237 0 232 0;
#X connect 237 1 233 0;
#X connect 238 0 241 0;
#X connect 239 0 238 1;
#X connect 240 0 238 1;
#X connect 242 0 246 0;
#X connect 243 0 242 1;
#X connect 244 0 242 1;
#X connect 245 0 282 0;
#X connect 245 1 247 0;
#X connect 245 2 443 0;
#X connect 246 0 248 0;
#X connect 247 0 243 0;
#X connect 247 1 244 0;
#X connect 248 0 251 0;
#X connect 249 0 248 1;
#X connect 250 0 248 1;
#X connect 252 0 256 0;
#X connect 253 0 252 1;
#X connect 254 0 252 1;
#X connect 255 0 283 0;
#X connect 255 1 257 0;
#X connect 255 2 444 0;
#X connect 256 0 258 0;
#X connect 257 0 253 0;
#X connect 257 1 254 0;
#X connect 258 0 261 0;
#X connect 259 0 258 1;
#X connect 260 0 258 1;
#X connect 262 0 266 0;
#X connect 263 0 262 1;
#X connect 264 0 262 1;
#X connect 265 0 284 0;
#X connect 265 1 267 0;
#X connect 265 2 445 0;
#X connect 266 0 268 0;
#X connect 267 0 263 0;
#X connect 267 1 264 0;
#X connect 268 0 271 0;
#X connect 269 0 268 1;
#X connect 270 0 268 1;
#X connect 272 0 276 0;
#X connect 273 0 272 1;
#X connect 274 0 272 1;
#X connect 275 0 466 0;
#X connect 275 1 277 0;
#X connect 275 2 446 0;
#X connect 276 0 278 0;
#X connect 277 0 273 0;
#X connect 277 1 274 0;
#X connect 278 0 281 0;
#X connect 279 0 278 1;
#X connect 280 0 278 1;
#X connect 282 0 242 0;
#X connect 283 0 252 0;
#X connect 284 0 262 0;
#X connect 285 0 290 0;
#X connect 286 0 285 1;
#X connect 287 0 285 1;
#X connect 288 0 289 0;
#X connect 288 1 291 0;
#X connect 288 2 451 0;
#X connect 289 0 285 0;
#X connect 290 0 292 0;
#X connect 291 0 286 0;
#X connect 291 1 287 0;
#X connect 292 0 295 0;
#X connect 293 0 292 1;
#X connect 294 0 292 1;
#X connect 296 0 300 0;
#X connect 297 0 296 1;
#X connect 298 0 296 1;
#X connect 299 0 336 0;
#X connect 299 1 301 0;
#X connect 299 2 450 0;
#X connect 300 0 302 0;
#X connect 301 0 297 0;
#X connect 301 1 298 0;
#X connect 302 0 305 0;
#X connect 303 0 302 1;
#X connect 304 0 302 1;
#X connect 306 0 310 0;
#X connect 307 0 306 1;
#X connect 308 0 306 1;
#X connect 309 0 337 0;
#X connect 309 1 311 0;
#X connect 309 2 449 0;
#X connect 310 0 312 0;
#X connect 311 0 307 0;
#X connect 311 1 308 0;
#X connect 312 0 315 0;
#X connect 313 0 312 1;
#X connect 314 0 312 1;
#X connect 316 0 320 0;
#X connect 317 0 316 1;
#X connect 318 0 316 1;
#X connect 319 0 338 0;
#X connect 319 1 321 0;
#X connect 319 2 448 0;
#X connect 320 0 322 0;
#X connect 321 0 317 0;
#X connect 321 1 318 0;
#X connect 322 0 325 0;
#X connect 323 0 322 1;
#X connect 324 0 322 1;
#X connect 326 0 330 0;
#X connect 327 0 326 1;
#X connect 328 0 326 1;
#X connect 329 0 467 0;
#X connect 329 1 331 0;
#X connect 329 2 447 0;
#X connect 330 0 332 0;
#X connect 331 0 327 0;
#X connect 331 1 328 0;
#X connect 332 0 335 0;
#X connect 333 0 332 1;
#X connect 334 0 332 1;
#X connect 336 0 296 0;
#X connect 337 0 306 0;
#X connect 338 0 316 0;
#X connect 339 0 344 0;
#X connect 340 0 339 1;
#X connect 341 0 339 1;
#X connect 342 0 343 0;
#X connect 342 1 345 0;
#X connect 342 2 452 0;
#X connect 343 0 339 0;
#X connect 344 0 346 0;
#X connect 345 0 340 0;
#X connect 345 1 341 0;
#X connect 346 0 470 0;
#X connect 347 0 346 1;
#X connect 348 0 346 1;
#X connect 349 0 353 0;
#X connect 350 0 349 1;
#X connect 351 0 349 1;
#X connect 352 0 385 0;
#X connect 352 1 354 0;
#X connect 352 2 453 0;
#X connect 353 0 355 0;
#X connect 354 0 350 0;
#X connect 354 1 351 0;
#X connect 355 0 471 0;
#X connect 356 0 355 1;
#X connect 357 0 355 1;
#X connect 358 0 362 0;
#X connect 359 0 358 1;
#X connect 360 0 358 1;
#X connect 361 0 386 0;
#X connect 361 1 363 0;
#X connect 361 2 454 0;
#X connect 362 0 364 0;
#X connect 363 0 359 0;
#X connect 363 1 360 0;
#X connect 364 0 472 0;
#X connect 365 0 364 1;
#X connect 366 0 364 1;
#X connect 367 0 371 0;
#X connect 368 0 367 1;
#X connect 369 0 367 1;
#X connect 370 0 387 0;
#X connect 370 1 372 0;
#X connect 370 2 455 0;
#X connect 371 0 373 0;
#X connect 372 0 368 0;
#X connect 372 1 369 0;
#X connect 373 0 473 0;
#X connect 374 0 373 1;
#X connect 375 0 373 1;
#X connect 376 0 380 0;
#X connect 377 0 376 1;
#X connect 378 0 376 1;
#X connect 379 0 468 0;
#X connect 379 1 381 0;
#X connect 379 2 456 0;
#X connect 380 0 382 0;
#X connect 381 0 377 0;
#X connect 381 1 378 0;
#X connect 382 0 478 0;
#X connect 383 0 382 1;
#X connect 384 0 382 1;
#X connect 385 0 349 0;
#X connect 386 0 358 0;
#X connect 387 0 367 0;
#X connect 388 0 393 0;
#X connect 389 0 388 1;
#X connect 390 0 388 1;
#X connect 391 0 392 0;
#X connect 391 1 394 0;
#X connect 391 2 461 0;
#X connect 392 0 388 0;
#X connect 393 0 395 0;
#X connect 394 0 389 0;
#X connect 394 1 390 0;
#X connect 395 0 398 0;
#X connect 396 0 395 1;
#X connect 397 0 395 1;
#X connect 399 0 403 0;
#X connect 400 0 399 1;
#X connect 401 0 399 1;
#X connect 402 0 439 0;
#X connect 402 1 404 0;
#X connect 402 2 460 0;
#X connect 403 0 405 0;
#X connect 404 0 400 0;
#X connect 404 1 401 0;
#X connect 405 0 408 0;
#X connect 406 0 405 1;
#X connect 407 0 405 1;
#X connect 409 0 413 0;
#X connect 410 0 409 1;
#X connect 411 0 409 1;
#X connect 412 0 440 0;
#X connect 412 1 414 0;
#X connect 412 2 459 0;
#X connect 413 0 415 0;
#X connect 414 0 410 0;
#X connect 414 1 411 0;
#X connect 415 0 418 0;
#X connect 416 0 415 1;
#X connect 417 0 415 1;
#X connect 419 0 423 0;
#X connect 420 0 419 1;
#X connect 421 0 419 1;
#X connect 422 0 441 0;
#X connect 422 1 424 0;
#X connect 422 2 458 0;
#X connect 423 0 425 0;
#X connect 424 0 420 0;
#X connect 424 1 421 0;
#X connect 425 0 428 0;
#X connect 426 0 425 1;
#X connect 427 0 425 1;
#X connect 429 0 433 0;
#X connect 430 0 429 1;
#X connect 431 0 429 1;
#X connect 432 0 469 0;
#X connect 432 1 434 0;
#X connect 432 2 457 0;
#X connect 433 0 435 0;
#X connect 434 0 430 0;
#X connect 434 1 431 0;
#X connect 435 0 438 0;
#X connect 436 0 435 1;
#X connect 437 0 435 1;
#X connect 439 0 399 0;
#X connect 440 0 409 0;
#X connect 441 0 419 0;
#X connect 442 0 239 0;
#X connect 442 1 240 0;
#X connect 443 0 249 0;
#X connect 443 1 250 0;
#X connect 444 0 259 0;
#X connect 444 1 260 0;
#X connect 445 0 269 0;
#X connect 445 1 270 0;
#X connect 446 0 279 0;
#X connect 446 1 280 0;
#X connect 447 0 333 0;
#X connect 447 1 334 0;
#X connect 448 0 323 0;
#X connect 448 1 324 0;
#X connect 449 0 313 0;
#X connect 449 1 314 0;
#X connect 450 0 303 0;
#X connect 450 1 304 0;
#X connect 451 0 293 0;
#X connect 451 1 294 0;
#X connect 452 0 347 0;
#X connect 452 1 348 0;
#X connect 453 0 356 0;
#X connect 453 1 357 0;
#X connect 454 0 365 0;
#X connect 454 1 366 0;
#X connect 455 0 374 0;
#X connect 455 1 375 0;
#X connect 456 0 383 0;
#X connect 456 1 384 0;
#X connect 457 0 436 0;
#X connect 457 1 437 0;
#X connect 458 0 426 0;
#X connect 458 1 427 0;
#X connect 459 0 416 0;
#X connect 459 1 417 0;
#X connect 460 0 406 0;
#X connect 460 1 407 0;
#X connect 461 0 396 0;
#X connect 461 1 397 0;
#X connect 462 0 45 0;
#X connect 463 0 96 0;
#X connect 464 0 149 0;
#X connect 465 0 203 0;
#X connect 466 0 272 0;
#X connect 467 0 326 0;
#X connect 468 0 376 0;
#X connect 469 0 429 0;
#X connect 470 0 474 0;
#X connect 471 0 475 0;
#X connect 472 0 476 0;
#X connect 473 0 477 0;
#X connect 479 0 480 0;
#X connect 482 0 481 0;
#X connect 484 0 483 0;
#X connect 486 0 485 0;
#X connect 488 0 487 0;
