#N canvas 0 142 1440 569 12;
#X obj 89 -247 notein;
#X obj 89 -168 spigot;
#X msg 142 -195 1;
#X msg 177 -194 0;
#X obj 89 -218 sel 50;
#X obj 142 -218 sel 1;
#X obj 83 21 notein;
#X obj 83 100 spigot;
#X msg 136 73 1;
#X msg 171 74 0;
#X obj 136 50 sel 1;
#X obj 77 329 notein;
#X obj 77 408 spigot;
#X msg 130 381 1;
#X msg 165 382 0;
#X obj 130 358 sel 1;
#X obj 83 50 sel 49;
#X obj 77 358 sel 48;
#X obj 221 -244 notein;
#X obj 221 -165 spigot;
#X msg 274 -192 1;
#X msg 309 -191 0;
#X obj 221 -215 sel 50;
#X obj 215 24 notein;
#X obj 215 103 spigot;
#X msg 268 76 1;
#X msg 303 77 0;
#X obj 209 332 notein;
#X obj 209 411 spigot;
#X msg 262 384 1;
#X msg 297 385 0;
#X obj 215 53 sel 49;
#X obj 209 361 sel 48;
#X obj 376 -249 notein;
#X obj 376 -170 spigot;
#X msg 429 -197 1;
#X msg 464 -196 0;
#X obj 376 -220 sel 50;
#X obj 370 19 notein;
#X obj 370 98 spigot;
#X msg 423 71 1;
#X msg 458 72 0;
#X obj 364 327 notein;
#X obj 364 409 spigot;
#X msg 417 379 1;
#X msg 452 380 0;
#X obj 370 48 sel 49;
#X obj 364 356 sel 48;
#X obj 539 -250 notein;
#X obj 539 -171 spigot;
#X msg 592 -198 1;
#X msg 627 -197 0;
#X obj 539 -221 sel 50;
#X obj 533 18 notein;
#X obj 533 97 spigot;
#X msg 586 70 1;
#X msg 621 71 0;
#X obj 527 326 notein;
#X obj 527 409 spigot;
#X msg 580 378 1;
#X msg 615 379 0;
#X obj 533 47 sel 49;
#X obj 527 355 sel 48;
#X obj 693 -250 notein;
#X obj 693 -171 spigot;
#X msg 746 -198 1;
#X msg 781 -197 0;
#X obj 693 -221 sel 50;
#X obj 687 18 notein;
#X obj 687 97 spigot;
#X msg 740 70 1;
#X msg 775 71 0;
#X obj 681 326 notein;
#X obj 681 405 spigot;
#X msg 734 378 1;
#X msg 769 379 0;
#X obj 687 47 sel 49;
#X obj 681 355 sel 48;
#X obj 851 -249 notein;
#X obj 851 -170 spigot;
#X msg 904 -197 1;
#X msg 939 -196 0;
#X obj 851 -220 sel 50;
#X obj 845 19 notein;
#X obj 845 98 spigot;
#X msg 898 71 1;
#X msg 933 72 0;
#X obj 839 327 notein;
#X obj 839 406 spigot;
#X msg 892 379 1;
#X msg 927 380 0;
#X obj 845 48 sel 49;
#X obj 839 356 sel 48;
#X obj 1022 -253 notein;
#X obj 1022 -174 spigot;
#X msg 1075 -201 1;
#X msg 1110 -200 0;
#X obj 1022 -224 sel 50;
#X obj 1016 15 notein;
#X obj 1016 94 spigot;
#X msg 1069 67 1;
#X msg 1104 68 0;
#X obj 1010 323 notein;
#X obj 1010 402 spigot;
#X msg 1063 375 1;
#X msg 1098 376 0;
#X obj 1016 44 sel 49;
#X obj 1010 352 sel 48;
#X obj 1193 -256 notein;
#X obj 1193 -177 spigot;
#X msg 1246 -204 1;
#X msg 1281 -203 0;
#X obj 1193 -227 sel 50;
#X obj 1187 12 notein;
#X obj 1187 91 spigot;
#X msg 1240 64 1;
#X msg 1275 65 0;
#X obj 1181 320 notein;
#X obj 1181 399 spigot;
#X msg 1234 372 1;
#X msg 1269 373 0;
#X obj 1187 41 sel 49;
#X obj 1181 349 sel 48;
#X obj 274 -215 sel 2;
#X obj 268 53 sel 2;
#X obj 262 361 sel 2;
#X obj 417 356 sel 3;
#X obj 423 48 sel 3;
#X obj 429 -220 sel 3;
#X obj 592 -221 sel 4;
#X obj 586 47 sel 4;
#X obj 580 355 sel 4;
#X obj 734 355 sel 5;
#X obj 740 47 sel 5;
#X obj 746 -221 sel 5;
#X obj 904 -220 sel 6;
#X obj 898 48 sel 6;
#X obj 892 356 sel 6;
#X obj 1063 352 sel 7;
#X obj 1234 349 sel 8;
#X obj 1240 41 sel 8;
#X obj 1246 -227 sel 8;
#X obj 1075 -224 sel 7;
#X obj 1069 44 sel 7;
#X obj 94 -91 tgl 19 0 a-1 empty empty 0 -10 0 12 #fcfcfc #000000 #000000 0 1;
#X obj 212 -89 tgl 19 0 a-2 empty empty 0 -10 0 12 #fcfcfc #000000 #000000 0 1;
#X obj 368 -88 tgl 19 0 a-3 empty empty 0 -10 0 12 #fcfcfc #000000 #000000 0 1;
#X obj 530 -94 tgl 19 0 a-4 empty empty 0 -10 0 12 #fcfcfc #000000 #000000 0 1;
#X obj 699 -94 tgl 19 0 a-5 empty empty 0 -10 0 12 #fcfcfc #000000 #000000 0 1;
#X obj 855 -93 tgl 19 0 a-6 empty empty 0 -10 0 12 #fcfcfc #000000 #000000 0 1;
#X obj 1017 -99 tgl 19 0 a-7 empty empty 0 -10 0 12 #fcfcfc #000000 #000000 0 1;
#X obj 1187 -93 tgl 19 0 a-8 empty empty 0 -10 0 12 #fcfcfc #000000 #000000 0 1;
#X obj 92 177 tgl 19 0 s-1 empty empty 0 -10 0 12 #fcfcfc #000000 #000000 0 1;
#X obj 210 179 tgl 19 0 s-2 empty empty 0 -10 0 12 #fcfcfc #000000 #000000 0 1;
#X obj 366 180 tgl 19 0 s-3 empty empty 0 -10 0 12 #fcfcfc #000000 #000000 0 1;
#X obj 528 174 tgl 19 0 s-4 empty empty 0 -10 0 12 #fcfcfc #000000 #000000 0 1;
#X obj 697 174 tgl 19 0 s-5 empty empty 0 -10 0 12 #fcfcfc #000000 #000000 0 1;
#X obj 853 175 tgl 19 0 s-6 empty empty 0 -10 0 12 #fcfcfc #000000 #000000 0 1;
#X obj 1015 169 tgl 19 0 s-7 empty empty 0 -10 0 12 #fcfcfc #000000 #000000 0 1;
#X obj 1185 175 tgl 19 0 s-8 empty empty 0 -10 0 12 #fcfcfc #000000 #000000 0 1;
#X obj 88 478 tgl 19 0 r-1 empty empty 0 -10 0 12 #fcfcfc #000000 #000000 0 1;
#X obj 206 480 tgl 19 0 r-2 empty empty 0 -10 0 12 #fcfcfc #000000 #000000 0 1;
#X obj 362 481 tgl 19 0 r-3 empty empty 0 -10 0 12 #fcfcfc #000000 #000000 0 1;
#X obj 524 475 tgl 19 0 r-4 empty empty 0 -10 0 12 #fcfcfc #000000 #000000 0 1;
#X obj 693 475 tgl 19 0 r-5 empty empty 0 -10 0 12 #fcfcfc #000000 #000000 0 1;
#X obj 849 476 tgl 19 0 r-6 empty empty 0 -10 0 12 #fcfcfc #000000 #000000 0 1;
#X obj 1011 470 tgl 19 0 r-7 empty empty 0 -10 0 12 #fcfcfc #000000 #000000 0 1;
#X obj 1181 476 tgl 19 0 r-8 empty empty 0 -10 0 12 #fcfcfc #000000 #000000 0 1;
#X connect 0 0 4 0;
#X connect 0 2 5 0;
#X connect 1 0 144 0;
#X connect 2 0 1 1;
#X connect 3 0 1 1;
#X connect 4 0 1 0;
#X connect 5 0 2 0;
#X connect 5 1 3 0;
#X connect 6 0 16 0;
#X connect 6 2 10 0;
#X connect 7 0 152 0;
#X connect 8 0 7 1;
#X connect 9 0 7 1;
#X connect 10 0 8 0;
#X connect 10 1 9 0;
#X connect 11 0 17 0;
#X connect 11 2 15 0;
#X connect 12 0 160 0;
#X connect 13 0 12 1;
#X connect 14 0 12 1;
#X connect 15 0 13 0;
#X connect 15 1 14 0;
#X connect 16 0 7 0;
#X connect 17 0 12 0;
#X connect 18 0 22 0;
#X connect 18 2 123 0;
#X connect 19 0 145 0;
#X connect 20 0 19 1;
#X connect 21 0 19 1;
#X connect 22 0 19 0;
#X connect 23 0 31 0;
#X connect 23 2 124 0;
#X connect 24 0 153 0;
#X connect 25 0 24 1;
#X connect 26 0 24 1;
#X connect 27 0 32 0;
#X connect 27 2 125 0;
#X connect 28 0 161 0;
#X connect 29 0 28 1;
#X connect 30 0 28 1;
#X connect 31 0 24 0;
#X connect 32 0 28 0;
#X connect 33 0 37 0;
#X connect 33 2 128 0;
#X connect 34 0 146 0;
#X connect 35 0 34 1;
#X connect 36 0 34 1;
#X connect 37 0 34 0;
#X connect 38 0 46 0;
#X connect 38 2 127 0;
#X connect 39 0 154 0;
#X connect 40 0 39 1;
#X connect 41 0 39 1;
#X connect 42 0 47 0;
#X connect 42 2 126 0;
#X connect 43 0 162 0;
#X connect 44 0 43 1;
#X connect 45 0 43 1;
#X connect 46 0 39 0;
#X connect 47 0 43 0;
#X connect 48 0 52 0;
#X connect 48 2 129 0;
#X connect 49 0 147 0;
#X connect 50 0 49 1;
#X connect 51 0 49 1;
#X connect 52 0 49 0;
#X connect 53 0 61 0;
#X connect 53 2 130 0;
#X connect 54 0 155 0;
#X connect 55 0 54 1;
#X connect 56 0 54 1;
#X connect 57 0 62 0;
#X connect 57 2 131 0;
#X connect 58 0 163 0;
#X connect 59 0 58 1;
#X connect 60 0 58 1;
#X connect 61 0 54 0;
#X connect 62 0 58 0;
#X connect 63 0 67 0;
#X connect 63 2 134 0;
#X connect 64 0 148 0;
#X connect 65 0 64 1;
#X connect 66 0 64 1;
#X connect 67 0 64 0;
#X connect 68 0 76 0;
#X connect 68 2 133 0;
#X connect 69 0 156 0;
#X connect 70 0 69 1;
#X connect 71 0 69 1;
#X connect 72 0 77 0;
#X connect 72 2 132 0;
#X connect 73 0 164 0;
#X connect 74 0 73 1;
#X connect 75 0 73 1;
#X connect 76 0 69 0;
#X connect 77 0 73 0;
#X connect 78 0 82 0;
#X connect 78 2 135 0;
#X connect 79 0 149 0;
#X connect 80 0 79 1;
#X connect 81 0 79 1;
#X connect 82 0 79 0;
#X connect 83 0 91 0;
#X connect 83 2 136 0;
#X connect 84 0 157 0;
#X connect 85 0 84 1;
#X connect 86 0 84 1;
#X connect 87 0 92 0;
#X connect 87 2 137 0;
#X connect 88 0 165 0;
#X connect 89 0 88 1;
#X connect 90 0 88 1;
#X connect 91 0 84 0;
#X connect 92 0 88 0;
#X connect 93 0 97 0;
#X connect 93 2 142 0;
#X connect 94 0 150 0;
#X connect 95 0 94 1;
#X connect 96 0 94 1;
#X connect 97 0 94 0;
#X connect 98 0 106 0;
#X connect 98 2 143 0;
#X connect 99 0 158 0;
#X connect 100 0 99 1;
#X connect 101 0 99 1;
#X connect 102 0 107 0;
#X connect 102 2 138 0;
#X connect 103 0 166 0;
#X connect 104 0 103 1;
#X connect 105 0 103 1;
#X connect 106 0 99 0;
#X connect 107 0 103 0;
#X connect 108 0 112 0;
#X connect 108 2 141 0;
#X connect 109 0 151 0;
#X connect 110 0 109 1;
#X connect 111 0 109 1;
#X connect 112 0 109 0;
#X connect 113 0 121 0;
#X connect 113 2 140 0;
#X connect 114 0 159 0;
#X connect 115 0 114 1;
#X connect 116 0 114 1;
#X connect 117 0 122 0;
#X connect 117 2 139 0;
#X connect 118 0 167 0;
#X connect 119 0 118 1;
#X connect 120 0 118 1;
#X connect 121 0 114 0;
#X connect 122 0 118 0;
#X connect 123 0 20 0;
#X connect 123 1 21 0;
#X connect 124 0 25 0;
#X connect 124 1 26 0;
#X connect 125 0 29 0;
#X connect 125 1 30 0;
#X connect 126 0 44 0;
#X connect 126 1 45 0;
#X connect 127 0 40 0;
#X connect 127 1 41 0;
#X connect 128 0 35 0;
#X connect 128 1 36 0;
#X connect 129 0 50 0;
#X connect 129 1 51 0;
#X connect 130 0 55 0;
#X connect 130 1 56 0;
#X connect 131 0 59 0;
#X connect 131 1 60 0;
#X connect 132 0 74 0;
#X connect 132 1 75 0;
#X connect 133 0 70 0;
#X connect 133 1 71 0;
#X connect 134 0 65 0;
#X connect 134 1 66 0;
#X connect 135 0 80 0;
#X connect 135 1 81 0;
#X connect 136 0 85 0;
#X connect 136 1 86 0;
#X connect 137 0 89 0;
#X connect 137 1 90 0;
#X connect 138 0 104 0;
#X connect 138 1 105 0;
#X connect 139 0 119 0;
#X connect 139 1 120 0;
#X connect 140 0 115 0;
#X connect 140 1 116 0;
#X connect 141 0 110 0;
#X connect 141 1 111 0;
#X connect 142 0 95 0;
#X connect 142 1 96 0;
#X connect 143 0 100 0;
#X connect 143 1 101 0;
#X coords 0 569 1 568 861 200 0;
