#N canvas 0 28 1440 872 12;
#X msg 40 238 start;
#X msg 94 237 stop;
#X msg 141 238 reset;
#X floatatom 205 232 5 1 999 0 - - - 0;
#X floatatom 124 352 5 0 0 0 - - - 0;
#X floatatom 185 353 5 0 0 0 - - - 0;
#X floatatom 252 350 5 0 0 0 - - - 0;
#X floatatom 311 353 5 0 0 0 - - - 0;
#X floatatom 285 226 5 0 0 0 - - - 0;
#X floatatom 380 227 5 0 0 0 - - - 0;
#X floatatom 494 228 5 0 0 0 - - - 0;
#X obj 141 400 bng 15 250 50 0 empty empty empty 17 7 0 10 #fcfcfc #000000 #000000;
#X obj 204 395 bng 15 250 50 0 sub-beat empty empty 17 7 0 10 #fcfcfc #000000 #000000;
#X obj 272 397 bng 15 250 50 0 beat empty empty 17 7 0 10 #fcfcfc #000000 #000000;
#X obj 344 396 bng 15 250 50 0 bar empty empty 17 7 0 10 #fcfcfc #000000 #000000;
#X text 202 210 BPM;
#X text 273 206 Beats/bar;
#X text 361 208 Sub-beats/bar;
#X text 471 209 Ticks/sub-beat;
#X text 123 333 Tick;
#X text 179 335 Sub-Beat;
#X text 254 333 Beat;
#X text 315 336 Bar;
#X obj 145 306 cmetronome 50 4 3 2;
#X obj 659 162 timer;
#X obj 658 186 expr (1000/$f1)*60;
#X obj 659 115 bng 19 250 50 0 empty tap empty 0 -10 0 12 #fcfcfc #000000 #000000;
#X obj 659 138 t b b;
#X obj 659 91 spigot;
#X msg 759 68 1;
#X msg 793 68 0;
#X obj 660 15 notein;
#X obj 660 41 sel 99;
#X obj 766 41 sel 1;
#X obj 710 42 sel 127;
#X obj 12 143 bng 19 250 50 0 start start empty 0 -10 0 12 #fcfcfc #000000 #000000;
#X obj 10 92 spigot;
#X msg 110 69 1;
#X msg 144 69 0;
#X obj 11 16 notein;
#X obj 117 42 sel 1;
#X obj 61 43 sel 127;
#X obj 198 118 bng 19 250 50 0 stop-bpm stop-bpm empty 0 -10 0 12 #fcfcfc #000000 #000000;
#X obj 198 94 spigot;
#X msg 298 71 1;
#X msg 332 71 0;
#X obj 199 18 notein;
#X obj 305 44 sel 1;
#X obj 249 45 sel 127;
#X obj 387 123 bng 19 250 50 0 empty empty empty 0 -10 0 12 #fcfcfc #000000 #000000;
#X obj 387 99 spigot;
#X msg 487 76 1;
#X msg 521 76 0;
#X obj 388 23 notein;
#X obj 494 49 sel 1;
#X obj 438 50 sel 127;
#X obj 7 44 sel 100;
#X obj 199 44 sel 101;
#X obj 388 49 sel 98;
#X obj 343 429 tgl 19 0 bar-tgl empty empty 0 -10 0 12 #fcfcfc #000000 #000000 0 1;
#X obj 271 429 tgl 19 0 beat-tgl empty empty 0 -10 0 12 #fcfcfc #000000 #000000 0 1;
#X obj 203 430 tgl 19 0 sub-tgl empty empty 0 -10 0 12 #fcfcfc #000000 #000000 0 1;
#X floatatom 436 363 5 0 0 0 - - bpm-mon 0;
#X connect 0 0 23 0;
#X connect 1 0 23 0;
#X connect 2 0 23 0;
#X connect 3 0 23 1;
#X connect 3 0 62 0;
#X connect 4 0 11 0;
#X connect 5 0 12 0;
#X connect 6 0 13 0;
#X connect 7 0 14 0;
#X connect 8 0 23 2;
#X connect 9 0 23 3;
#X connect 10 0 23 4;
#X connect 12 0 61 0;
#X connect 13 0 60 0;
#X connect 14 0 59 0;
#X connect 23 0 4 0;
#X connect 23 1 5 0;
#X connect 23 2 6 0;
#X connect 23 3 7 0;
#X connect 24 0 25 0;
#X connect 25 0 3 0;
#X connect 26 0 27 0;
#X connect 27 0 24 0;
#X connect 27 1 24 1;
#X connect 28 0 26 0;
#X connect 29 0 28 1;
#X connect 30 0 28 1;
#X connect 31 0 32 0;
#X connect 31 1 34 0;
#X connect 31 2 33 0;
#X connect 32 0 28 0;
#X connect 33 0 29 0;
#X connect 33 1 30 0;
#X connect 34 0 29 0;
#X connect 34 1 30 0;
#X connect 35 0 0 0;
#X connect 36 0 35 0;
#X connect 37 0 36 1;
#X connect 38 0 36 1;
#X connect 39 0 56 0;
#X connect 39 1 41 0;
#X connect 39 2 40 0;
#X connect 40 0 37 0;
#X connect 40 1 38 0;
#X connect 41 0 37 0;
#X connect 41 1 38 0;
#X connect 42 0 1 0;
#X connect 43 0 42 0;
#X connect 44 0 43 1;
#X connect 45 0 43 1;
#X connect 46 0 57 0;
#X connect 46 1 48 0;
#X connect 46 2 47 0;
#X connect 47 0 44 0;
#X connect 47 1 45 0;
#X connect 48 0 44 0;
#X connect 48 1 45 0;
#X connect 49 0 2 0;
#X connect 50 0 49 0;
#X connect 51 0 50 1;
#X connect 52 0 50 1;
#X connect 53 0 58 0;
#X connect 53 1 55 0;
#X connect 53 2 54 0;
#X connect 54 0 51 0;
#X connect 54 1 52 0;
#X connect 55 0 51 0;
#X connect 55 1 52 0;
#X connect 56 0 36 0;
#X connect 57 0 43 0;
#X connect 58 0 50 0;
