#N canvas 0 28 1440 900 12;
#X obj 89 84 notein;
#X obj 89 163 spigot;
#X msg 142 136 1;
#X msg 177 137 0;
#X obj 89 113 sel 50;
#X obj 142 113 sel 1;
#X obj 83 352 notein;
#X obj 83 431 spigot;
#X msg 136 404 1;
#X msg 171 405 0;
#X obj 136 381 sel 1;
#X obj 77 660 notein;
#X obj 77 739 spigot;
#X msg 130 712 1;
#X msg 165 713 0;
#X obj 130 689 sel 1;
#X obj 83 381 sel 49;
#X obj 77 689 sel 48;
#X obj 221 87 notein;
#X obj 221 166 spigot;
#X msg 274 139 1;
#X msg 309 140 0;
#X obj 221 116 sel 50;
#X obj 215 355 notein;
#X obj 215 434 spigot;
#X msg 268 407 1;
#X msg 303 408 0;
#X obj 209 663 notein;
#X obj 209 742 spigot;
#X msg 262 715 1;
#X msg 297 716 0;
#X obj 215 384 sel 49;
#X obj 209 692 sel 48;
#X obj 376 82 notein;
#X obj 376 161 spigot;
#X msg 429 134 1;
#X msg 464 135 0;
#X obj 376 111 sel 50;
#X obj 370 350 notein;
#X obj 370 429 spigot;
#X msg 423 402 1;
#X msg 458 403 0;
#X obj 364 658 notein;
#X obj 364 740 spigot;
#X msg 417 710 1;
#X msg 452 711 0;
#X obj 370 379 sel 49;
#X obj 364 687 sel 48;
#X obj 539 81 notein;
#X obj 539 160 spigot;
#X msg 592 133 1;
#X msg 627 134 0;
#X obj 539 110 sel 50;
#X obj 533 349 notein;
#X obj 533 428 spigot;
#X msg 586 401 1;
#X msg 621 402 0;
#X obj 527 657 notein;
#X obj 527 736 spigot;
#X msg 580 709 1;
#X msg 615 710 0;
#X obj 533 378 sel 49;
#X obj 527 686 sel 48;
#X obj 693 81 notein;
#X obj 693 160 spigot;
#X msg 746 133 1;
#X msg 781 134 0;
#X obj 693 110 sel 50;
#X obj 687 349 notein;
#X obj 687 428 spigot;
#X msg 740 401 1;
#X msg 775 402 0;
#X obj 681 657 notein;
#X obj 681 736 spigot;
#X msg 734 709 1;
#X msg 769 710 0;
#X obj 687 378 sel 49;
#X obj 681 686 sel 48;
#X obj 851 82 notein;
#X obj 851 161 spigot;
#X msg 904 134 1;
#X msg 939 135 0;
#X obj 851 111 sel 50;
#X obj 845 350 notein;
#X obj 845 429 spigot;
#X msg 898 402 1;
#X msg 933 403 0;
#X obj 839 658 notein;
#X obj 839 737 spigot;
#X msg 892 710 1;
#X msg 927 711 0;
#X obj 845 379 sel 49;
#X obj 839 687 sel 48;
#X obj 1022 78 notein;
#X obj 1022 157 spigot;
#X msg 1075 130 1;
#X msg 1110 131 0;
#X obj 1022 107 sel 50;
#X obj 1016 346 notein;
#X obj 1016 425 spigot;
#X msg 1069 398 1;
#X msg 1104 399 0;
#X obj 1010 654 notein;
#X obj 1010 733 spigot;
#X msg 1063 706 1;
#X msg 1098 707 0;
#X obj 1016 375 sel 49;
#X obj 1010 683 sel 48;
#X obj 1193 75 notein;
#X obj 1193 154 spigot;
#X msg 1246 127 1;
#X msg 1281 128 0;
#X obj 1193 104 sel 50;
#X obj 1187 343 notein;
#X obj 1187 422 spigot;
#X msg 1240 395 1;
#X msg 1275 396 0;
#X obj 1181 651 notein;
#X obj 1181 730 spigot;
#X msg 1234 703 1;
#X msg 1269 704 0;
#X obj 1187 372 sel 49;
#X obj 1181 680 sel 48;
#X obj 274 116 sel 2;
#X obj 268 384 sel 2;
#X obj 262 692 sel 2;
#X obj 417 687 sel 3;
#X obj 423 379 sel 3;
#X obj 429 111 sel 3;
#X obj 592 110 sel 4;
#X obj 586 378 sel 4;
#X obj 580 686 sel 4;
#X obj 734 686 sel 5;
#X obj 740 378 sel 5;
#X obj 746 110 sel 5;
#X obj 904 111 sel 6;
#X obj 898 379 sel 6;
#X obj 892 687 sel 6;
#X obj 1063 683 sel 7;
#X obj 1234 680 sel 8;
#X obj 1240 372 sel 8;
#X obj 1246 104 sel 8;
#X obj 1075 107 sel 7;
#X obj 1069 375 sel 7;
#X obj 90 197 bng 19 250 50 0 a-1 empty empty 0 -10 0 12 #fcfcfc #000000 #000000;
#X obj 221 197 bng 19 250 50 0 a-2 empty empty 0 -10 0 12 #fcfcfc #000000 #000000;
#X obj 378 197 bng 19 250 50 0 a-3 empty empty 0 -10 0 12 #fcfcfc #000000 #000000;
#X obj 539 195 bng 19 250 50 0 a-4 empty empty 0 -10 0 12 #fcfcfc #000000 #000000;
#X obj 699 201 bng 19 250 50 0 a-5 empty empty 0 -10 0 12 #fcfcfc #000000 #000000;
#X obj 852 200 bng 19 250 50 0 a-6 empty empty 0 -10 0 12 #fcfcfc #000000 #000000;
#X obj 1026 193 bng 19 250 50 0 a-7 empty empty 0 -10 0 12 #fcfcfc #000000 #000000;
#X obj 1194 188 bng 19 250 50 0 a-8 empty empty 0 -10 0 12 #fcfcfc #000000 #000000;
#X obj 87 469 bng 19 250 50 0 s-1 empty empty 0 -10 0 12 #fcfcfc #000000 #000000;
#X obj 218 469 bng 19 250 50 0 s-2 empty empty 0 -10 0 12 #fcfcfc #000000 #000000;
#X obj 375 469 bng 19 250 50 0 s-3 empty empty 0 -10 0 12 #fcfcfc #000000 #000000;
#X obj 536 467 bng 19 250 50 0 s-4 empty empty 0 -10 0 12 #fcfcfc #000000 #000000;
#X obj 696 473 bng 19 250 50 0 s-5 empty empty 0 -10 0 12 #fcfcfc #000000 #000000;
#X obj 849 472 bng 19 250 50 0 s-6 empty empty 0 -10 0 12 #fcfcfc #000000 #000000;
#X obj 1023 465 bng 19 250 50 0 s-7 empty empty 0 -10 0 12 #fcfcfc #000000 #000000;
#X obj 1191 460 bng 19 250 50 0 s-8 empty empty 0 -10 0 12 #fcfcfc #000000 #000000;
#X obj 85 801 bng 19 250 50 0 r-1 empty empty 0 -10 0 12 #fcfcfc #000000 #000000;
#X obj 216 801 bng 19 250 50 0 r-2 empty empty 0 -10 0 12 #fcfcfc #000000 #000000;
#X obj 373 801 bng 19 250 50 0 r-3 empty empty 0 -10 0 12 #fcfcfc #000000 #000000;
#X obj 534 799 bng 19 250 50 0 r-4 empty empty 0 -10 0 12 #fcfcfc #000000 #000000;
#X obj 687 806 bng 19 250 50 0 r-5 empty empty 0 -10 0 12 #fcfcfc #000000 #000000;
#X obj 847 804 bng 19 250 50 0 r-6 empty empty 0 -10 0 12 #fcfcfc #000000 #000000;
#X obj 1021 797 bng 19 250 50 0 r-7 empty empty 0 -10 0 12 #fcfcfc #000000 #000000;
#X obj 1189 792 bng 19 250 50 0 r-8 empty empty 0 -10 0 12 #fcfcfc #000000 #000000;
#X connect 0 0 4 0;
#X connect 0 2 5 0;
#X connect 1 0 144 0;
#X connect 2 0 1 1;
#X connect 3 0 1 1;
#X connect 4 0 1 0;
#X connect 5 0 2 0;
#X connect 5 1 3 0;
#X connect 6 0 16 0;
#X connect 6 2 10 0;
#X connect 7 0 152 0;
#X connect 8 0 7 1;
#X connect 9 0 7 1;
#X connect 10 0 8 0;
#X connect 10 1 9 0;
#X connect 11 0 17 0;
#X connect 11 2 15 0;
#X connect 12 0 160 0;
#X connect 13 0 12 1;
#X connect 14 0 12 1;
#X connect 15 0 13 0;
#X connect 15 1 14 0;
#X connect 16 0 7 0;
#X connect 17 0 12 0;
#X connect 18 0 22 0;
#X connect 18 2 123 0;
#X connect 19 0 145 0;
#X connect 20 0 19 1;
#X connect 21 0 19 1;
#X connect 22 0 19 0;
#X connect 23 0 31 0;
#X connect 23 2 124 0;
#X connect 24 0 153 0;
#X connect 25 0 24 1;
#X connect 26 0 24 1;
#X connect 27 0 32 0;
#X connect 27 2 125 0;
#X connect 28 0 161 0;
#X connect 29 0 28 1;
#X connect 30 0 28 1;
#X connect 31 0 24 0;
#X connect 32 0 28 0;
#X connect 33 0 37 0;
#X connect 33 2 128 0;
#X connect 34 0 146 0;
#X connect 35 0 34 1;
#X connect 36 0 34 1;
#X connect 37 0 34 0;
#X connect 38 0 46 0;
#X connect 38 2 127 0;
#X connect 39 0 154 0;
#X connect 40 0 39 1;
#X connect 41 0 39 1;
#X connect 42 0 47 0;
#X connect 42 2 126 0;
#X connect 43 0 162 0;
#X connect 44 0 43 1;
#X connect 45 0 43 1;
#X connect 46 0 39 0;
#X connect 47 0 43 0;
#X connect 48 0 52 0;
#X connect 48 2 129 0;
#X connect 49 0 147 0;
#X connect 50 0 49 1;
#X connect 51 0 49 1;
#X connect 52 0 49 0;
#X connect 53 0 61 0;
#X connect 53 2 130 0;
#X connect 54 0 155 0;
#X connect 55 0 54 1;
#X connect 56 0 54 1;
#X connect 57 0 62 0;
#X connect 57 2 131 0;
#X connect 58 0 163 0;
#X connect 59 0 58 1;
#X connect 60 0 58 1;
#X connect 61 0 54 0;
#X connect 62 0 58 0;
#X connect 63 0 67 0;
#X connect 63 2 134 0;
#X connect 64 0 148 0;
#X connect 65 0 64 1;
#X connect 66 0 64 1;
#X connect 67 0 64 0;
#X connect 68 0 76 0;
#X connect 68 2 133 0;
#X connect 69 0 156 0;
#X connect 70 0 69 1;
#X connect 71 0 69 1;
#X connect 72 0 77 0;
#X connect 72 2 132 0;
#X connect 73 0 164 0;
#X connect 74 0 73 1;
#X connect 75 0 73 1;
#X connect 76 0 69 0;
#X connect 77 0 73 0;
#X connect 78 0 82 0;
#X connect 78 2 135 0;
#X connect 79 0 149 0;
#X connect 80 0 79 1;
#X connect 81 0 79 1;
#X connect 82 0 79 0;
#X connect 83 0 91 0;
#X connect 83 2 136 0;
#X connect 84 0 157 0;
#X connect 85 0 84 1;
#X connect 86 0 84 1;
#X connect 87 0 92 0;
#X connect 87 2 137 0;
#X connect 88 0 165 0;
#X connect 89 0 88 1;
#X connect 90 0 88 1;
#X connect 91 0 84 0;
#X connect 92 0 88 0;
#X connect 93 0 97 0;
#X connect 93 2 142 0;
#X connect 94 0 150 0;
#X connect 95 0 94 1;
#X connect 96 0 94 1;
#X connect 97 0 94 0;
#X connect 98 0 106 0;
#X connect 98 2 143 0;
#X connect 99 0 158 0;
#X connect 100 0 99 1;
#X connect 101 0 99 1;
#X connect 102 0 107 0;
#X connect 102 2 138 0;
#X connect 103 0 166 0;
#X connect 104 0 103 1;
#X connect 105 0 103 1;
#X connect 106 0 99 0;
#X connect 107 0 103 0;
#X connect 108 0 112 0;
#X connect 108 2 141 0;
#X connect 109 0 151 0;
#X connect 110 0 109 1;
#X connect 111 0 109 1;
#X connect 112 0 109 0;
#X connect 113 0 121 0;
#X connect 113 2 140 0;
#X connect 114 0 159 0;
#X connect 115 0 114 1;
#X connect 116 0 114 1;
#X connect 117 0 122 0;
#X connect 117 2 139 0;
#X connect 118 0 167 0;
#X connect 119 0 118 1;
#X connect 120 0 118 1;
#X connect 121 0 114 0;
#X connect 122 0 118 0;
#X connect 123 0 20 0;
#X connect 123 1 21 0;
#X connect 124 0 25 0;
#X connect 124 1 26 0;
#X connect 125 0 29 0;
#X connect 125 1 30 0;
#X connect 126 0 44 0;
#X connect 126 1 45 0;
#X connect 127 0 40 0;
#X connect 127 1 41 0;
#X connect 128 0 35 0;
#X connect 128 1 36 0;
#X connect 129 0 50 0;
#X connect 129 1 51 0;
#X connect 130 0 55 0;
#X connect 130 1 56 0;
#X connect 131 0 59 0;
#X connect 131 1 60 0;
#X connect 132 0 74 0;
#X connect 132 1 75 0;
#X connect 133 0 70 0;
#X connect 133 1 71 0;
#X connect 134 0 65 0;
#X connect 134 1 66 0;
#X connect 135 0 80 0;
#X connect 135 1 81 0;
#X connect 136 0 85 0;
#X connect 136 1 86 0;
#X connect 137 0 89 0;
#X connect 137 1 90 0;
#X connect 138 0 104 0;
#X connect 138 1 105 0;
#X connect 139 0 119 0;
#X connect 139 1 120 0;
#X connect 140 0 115 0;
#X connect 140 1 116 0;
#X connect 141 0 110 0;
#X connect 141 1 111 0;
#X connect 142 0 95 0;
#X connect 142 1 96 0;
#X connect 143 0 100 0;
#X connect 143 1 101 0;
#X coords 0 900 1 899 861 200 0;
