#N canvas 0 28 1440 900 12;
#X floatatom 35 61 5 0 0 0 - - 16-1 0;
#X obj 35 37 ctlin 16 1;
#X floatatom 112 61 5 0 0 0 - - 17-1 0;
#X floatatom 190 61 5 0 0 0 - - 18-1 0;
#X floatatom 267 61 5 0 0 0 - - 19-1 0;
#X obj 112 37 ctlin 17 1;
#X obj 190 37 ctlin 18 1;
#X obj 267 37 ctlin 19 1;
#X floatatom 35 107 5 0 0 0 - - 20-1 0;
#X floatatom 112 107 5 0 0 0 - - 21-1 0;
#X floatatom 190 107 5 0 0 0 - - 22-1 0;
#X floatatom 267 107 5 0 0 0 - - 23-1 0;
#X obj 35 83 ctlin 20 1;
#X obj 112 83 ctlin 21 1;
#X obj 190 83 ctlin 22 1;
#X obj 267 83 ctlin 23 1;
#X floatatom 35 203 5 0 0 0 - - 16-3 0;
#X floatatom 112 203 5 0 0 0 - - 17-3 0;
#X floatatom 190 203 5 0 0 0 - - 18-3 0;
#X floatatom 267 203 5 0 0 0 - - 19-3 0;
#X floatatom 35 249 5 0 0 0 - - 20-3 0;
#X floatatom 112 249 5 0 0 0 - - 21-3 0;
#X floatatom 190 249 5 0 0 0 - - 22-3 0;
#X floatatom 267 249 5 0 0 0 - - 23-3 0;
#X floatatom 32 357 5 0 0 0 - - 16-5 0;
#X floatatom 109 357 5 0 0 0 - - 17-5 0;
#X floatatom 187 357 5 0 0 0 - - 18-5 0;
#X floatatom 264 357 5 0 0 0 - - 19-5 0;
#X floatatom 32 403 5 0 0 0 - - 20-5 0;
#X floatatom 109 403 5 0 0 0 - - 21-5 0;
#X floatatom 187 403 5 0 0 0 - - 22-5 0;
#X floatatom 264 403 5 0 0 0 - - 23-5 0;
#X floatatom 30 508 5 0 0 0 - - 16-7 0;
#X floatatom 107 508 5 0 0 0 - - 17-7 0;
#X floatatom 185 508 5 0 0 0 - - 18-7 0;
#X floatatom 262 508 5 0 0 0 - - 19-7 0;
#X floatatom 30 554 5 0 0 0 - - 20-7 0;
#X floatatom 107 554 5 0 0 0 - - 21-7 0;
#X floatatom 185 554 5 0 0 0 - - 22-7 0;
#X floatatom 262 554 5 0 0 0 - - 23-7 0;
#X floatatom 431 61 5 0 0 0 - - 16-2 0;
#X floatatom 508 61 5 0 0 0 - - 17-2 0;
#X floatatom 586 61 5 0 0 0 - - 18-2 0;
#X floatatom 663 61 5 0 0 0 - - 19-2 0;
#X floatatom 431 107 5 0 0 0 - - 20-2 0;
#X floatatom 508 107 5 0 0 0 - - 21-2 0;
#X floatatom 586 107 5 0 0 0 - - 22-2 0;
#X floatatom 663 107 5 0 0 0 - - 23-2 0;
#X floatatom 431 203 5 0 0 0 - - 16-4 0;
#X floatatom 508 203 5 0 0 0 - - 17-4 0;
#X floatatom 586 203 5 0 0 0 - - 18-4 0;
#X floatatom 663 203 5 0 0 0 - - 19-4 0;
#X floatatom 431 249 5 0 0 0 - - 20-4 0;
#X floatatom 508 249 5 0 0 0 - - 21-4 0;
#X floatatom 586 249 5 0 0 0 - - 22-1 0;
#X floatatom 663 249 5 0 0 0 - - 23-4 0;
#X floatatom 428 357 5 0 0 0 - - 16-6 0;
#X floatatom 505 357 5 0 0 0 - - 17-6 0;
#X floatatom 583 357 5 0 0 0 - - 18-6 0;
#X floatatom 660 357 5 0 0 0 - - 19-6 0;
#X floatatom 428 403 5 0 0 0 - - 20-6 0;
#X floatatom 505 403 5 0 0 0 - - 21-6 0;
#X floatatom 583 403 5 0 0 0 - - 22-6 0;
#X floatatom 660 403 5 0 0 0 - - 23-6 0;
#X floatatom 426 508 5 0 0 0 - - 16-8 0;
#X floatatom 503 508 5 0 0 0 - - 17-8 0;
#X floatatom 581 508 5 0 0 0 - - 18-8 0;
#X floatatom 658 508 5 0 0 0 - - 19-8 0;
#X floatatom 426 554 5 0 0 0 - - 20-8 0;
#X floatatom 503 554 5 0 0 0 - - 21-8 0;
#X floatatom 581 554 5 0 0 0 - - 22-8 0;
#X floatatom 658 554 5 0 0 0 - - 23-8 0;
#X obj 431 37 ctlin 16 2;
#X obj 508 37 ctlin 17 2;
#X obj 586 37 ctlin 18 2;
#X obj 663 37 ctlin 19 2;
#X obj 431 83 ctlin 20 2;
#X obj 508 83 ctlin 21 2;
#X obj 586 83 ctlin 22 2;
#X obj 663 83 ctlin 23 2;
#X obj 35 179 ctlin 16 3;
#X obj 112 179 ctlin 17 3;
#X obj 190 179 ctlin 18 3;
#X obj 267 179 ctlin 19 3;
#X obj 35 225 ctlin 20 3;
#X obj 112 225 ctlin 21 3;
#X obj 190 225 ctlin 22 3;
#X obj 267 225 ctlin 23 3;
#X obj 431 179 ctlin 16 4;
#X obj 431 225 ctlin 20 4;
#X obj 508 179 ctlin 17 4;
#X obj 508 225 ctlin 21 4;
#X obj 586 179 ctlin 18 4;
#X obj 586 225 ctlin 22 4;
#X obj 663 179 ctlin 19 4;
#X obj 663 225 ctlin 23 4;
#X obj 32 333 ctlin 16 5;
#X obj 32 379 ctlin 20 5;
#X obj 109 333 ctlin 17 5;
#X obj 109 379 ctlin 21 5;
#X obj 187 333 ctlin 18 5;
#X obj 187 379 ctlin 22 5;
#X obj 264 333 ctlin 19 5;
#X obj 264 379 ctlin 23 5;
#X obj 428 333 ctlin 16 6;
#X obj 428 379 ctlin 20 6;
#X obj 505 333 ctlin 17 6;
#X obj 505 379 ctlin 21 6;
#X obj 583 333 ctlin 18 6;
#X obj 583 379 ctlin 22 6;
#X obj 660 333 ctlin 19 6;
#X obj 660 379 ctlin 23 6;
#X obj 30 484 ctlin 16 7;
#X obj 30 530 ctlin 20 7;
#X obj 107 484 ctlin 17 7;
#X obj 107 530 ctlin 21 7;
#X obj 185 484 ctlin 18 7;
#X obj 185 530 ctlin 22 7;
#X obj 262 484 ctlin 19 7;
#X obj 262 530 ctlin 23 7;
#X obj 426 484 ctlin 16 8;
#X obj 426 530 ctlin 20 8;
#X obj 503 484 ctlin 17 8;
#X obj 503 530 ctlin 21 8;
#X obj 581 530 ctlin 22 8;
#X obj 581 484 ctlin 18 8;
#X obj 658 484 ctlin 19 8;
#X obj 658 530 ctlin 23 8;
#X floatatom 896 63 5 0 0 0 - - 48-1 0;
#X floatatom 973 63 5 0 0 0 - - 49-1 0;
#X floatatom 1051 63 5 0 0 0 - - 50-1 0;
#X floatatom 1128 63 5 0 0 0 - - 51-1 0;
#X obj 896 39 ctlin 48 1;
#X obj 973 39 ctlin 49 1;
#X obj 1051 39 ctlin 50 1;
#X obj 1128 39 ctlin 51 1;
#X floatatom 892 200 5 0 0 0 - - 1slide 0;
#X floatatom 969 200 5 0 0 0 - - 2slide 0;
#X floatatom 1047 200 5 0 0 0 - - 3slide 0;
#X floatatom 1124 200 5 0 0 0 - - 4slide 0;
#X floatatom 892 246 5 0 0 0 - - 5slide 0;
#X floatatom 969 246 5 0 0 0 - - 6slide 0;
#X floatatom 1047 246 5 0 0 0 - - 7slide 0;
#X floatatom 1124 246 5 0 0 0 - - 8slide 0;
#X obj 892 176 ctlin 7 1;
#X obj 969 176 ctlin 7 2;
#X obj 1047 176 ctlin 7 3;
#X obj 1124 176 ctlin 7 4;
#X obj 892 222 ctlin 7 5;
#X obj 969 222 ctlin 7 6;
#X obj 1047 222 ctlin 7 7;
#X obj 1124 222 ctlin 7 8;
#X floatatom 883 354 5 0 0 0 - - 15-1 0;
#X obj 883 330 ctlin 15 1;
#X floatatom 895 110 5 0 0 0 - - 52-1 0;
#X floatatom 972 110 5 0 0 0 - - 53-1 0;
#X floatatom 1127 110 5 0 0 0 - - 55-1 0;
#X obj 895 86 ctlin 52 1;
#X obj 972 86 ctlin 53 1;
#X obj 1127 86 ctlin 55 1;
#X obj 944 449 ctlin 54 1;
#X floatatom 944 486 5 0 0 0 - - - 0;
#X obj 310 711 loadbang;
#X msg 310 735 50;
#X connect 1 0 0 0;
#X connect 5 0 2 0;
#X connect 6 0 3 0;
#X connect 7 0 4 0;
#X connect 12 0 8 0;
#X connect 13 0 9 0;
#X connect 14 0 10 0;
#X connect 15 0 11 0;
#X connect 72 0 40 0;
#X connect 73 0 41 0;
#X connect 74 0 42 0;
#X connect 75 0 43 0;
#X connect 76 0 44 0;
#X connect 77 0 45 0;
#X connect 78 0 46 0;
#X connect 79 0 47 0;
#X connect 80 0 16 0;
#X connect 81 0 17 0;
#X connect 82 0 18 0;
#X connect 83 0 19 0;
#X connect 84 0 20 0;
#X connect 85 0 21 0;
#X connect 86 0 22 0;
#X connect 87 0 23 0;
#X connect 88 0 48 0;
#X connect 89 0 52 0;
#X connect 90 0 49 0;
#X connect 91 0 53 0;
#X connect 92 0 50 0;
#X connect 93 0 54 0;
#X connect 94 0 51 0;
#X connect 95 0 55 0;
#X connect 96 0 24 0;
#X connect 97 0 28 0;
#X connect 98 0 25 0;
#X connect 99 0 29 0;
#X connect 100 0 26 0;
#X connect 101 0 30 0;
#X connect 102 0 27 0;
#X connect 103 0 31 0;
#X connect 104 0 56 0;
#X connect 105 0 60 0;
#X connect 106 0 57 0;
#X connect 107 0 61 0;
#X connect 108 0 58 0;
#X connect 109 0 62 0;
#X connect 110 0 59 0;
#X connect 111 0 63 0;
#X connect 112 0 32 0;
#X connect 113 0 36 0;
#X connect 114 0 33 0;
#X connect 115 0 37 0;
#X connect 116 0 34 0;
#X connect 117 0 38 0;
#X connect 118 0 35 0;
#X connect 119 0 39 0;
#X connect 120 0 64 0;
#X connect 121 0 68 0;
#X connect 122 0 65 0;
#X connect 123 0 69 0;
#X connect 124 0 70 0;
#X connect 125 0 66 0;
#X connect 126 0 67 0;
#X connect 127 0 71 0;
#X connect 132 0 128 0;
#X connect 133 0 129 0;
#X connect 134 0 130 0;
#X connect 135 0 131 0;
#X connect 144 0 136 0;
#X connect 145 0 137 0;
#X connect 146 0 138 0;
#X connect 147 0 139 0;
#X connect 148 0 140 0;
#X connect 149 0 141 0;
#X connect 150 0 142 0;
#X connect 151 0 143 0;
#X connect 153 0 152 0;
#X connect 157 0 154 0;
#X connect 158 0 155 0;
#X connect 159 0 156 0;
#X connect 160 0 161 0;
#X connect 162 0 163 0;
#X connect 163 0 37 0;
