#N canvas 0 28 1440 872 12;
#X obj 116 99 spigot;
#X msg 162 80 1;
#X msg 195 79 0;
#X obj 115 34 notein;
#X obj 116 120 bng 19 250 50 0 empty empty empty 0 -10 0 12 #fcfcfc #000000 #000000;
#X obj 164 57 sel 127;
#X obj 116 143 spigot;
#X msg 226 79 1;
#X msg 256 79 0;
#X obj 226 57 sel 1;
#X obj 116 165 bng 19 250 50 0 cs1 empty empty 0 -10 0 12 #fcfcfc #000000 #000000;
#X obj 115 58 sel 52;
#X obj 306 101 spigot;
#X msg 352 82 1;
#X msg 385 81 0;
#X obj 305 36 notein;
#X obj 306 122 bng 19 250 50 0 empty empty empty 0 -10 0 12 #fcfcfc #000000 #000000;
#X obj 354 59 sel 127;
#X obj 306 145 spigot;
#X msg 416 81 1;
#X msg 446 81 0;
#X obj 306 167 bng 19 250 50 0 cs2 empty empty 0 -10 0 12 #fcfcfc #000000 #000000;
#X obj 305 60 sel 52;
#X obj 505 105 spigot;
#X msg 551 86 1;
#X msg 584 85 0;
#X obj 504 40 notein;
#X obj 505 126 bng 19 250 50 0 empty empty empty 0 -10 0 12 #fcfcfc #000000 #000000;
#X obj 553 63 sel 127;
#X obj 505 149 spigot;
#X msg 615 85 1;
#X msg 645 85 0;
#X obj 505 171 bng 19 250 50 0 cs3 empty empty 0 -10 0 12 #fcfcfc #000000 #000000;
#X obj 504 64 sel 52;
#X obj 695 107 spigot;
#X msg 741 88 1;
#X msg 774 87 0;
#X obj 694 42 notein;
#X obj 695 128 bng 19 250 50 0 empty empty empty 0 -10 0 12 #fcfcfc #000000 #000000;
#X obj 743 65 sel 127;
#X obj 695 151 spigot;
#X msg 805 87 1;
#X msg 835 87 0;
#X obj 695 173 bng 19 250 50 0 cs4 empty empty 0 -10 0 12 #fcfcfc #000000 #000000;
#X obj 694 66 sel 52;
#X obj 112 304 spigot;
#X msg 158 285 1;
#X msg 191 284 0;
#X obj 111 239 notein;
#X obj 112 325 bng 19 250 50 0 empty empty empty 0 -10 0 12 #fcfcfc #000000 #000000;
#X obj 160 262 sel 127;
#X obj 112 348 spigot;
#X msg 222 284 1;
#X msg 252 284 0;
#X obj 112 370 bng 19 250 50 0 cs5 empty empty 0 -10 0 12 #fcfcfc #000000 #000000;
#X obj 111 263 sel 52;
#X obj 302 306 spigot;
#X msg 348 287 1;
#X msg 381 286 0;
#X obj 301 241 notein;
#X obj 302 327 bng 19 250 50 0 empty empty empty 0 -10 0 12 #fcfcfc #000000 #000000;
#X obj 350 264 sel 127;
#X obj 302 350 spigot;
#X msg 412 286 1;
#X msg 442 286 0;
#X obj 302 372 bng 19 250 50 0 cs6 empty empty 0 -10 0 12 #fcfcfc #000000 #000000;
#X obj 301 265 sel 52;
#X obj 501 310 spigot;
#X msg 547 291 1;
#X msg 580 290 0;
#X obj 500 245 notein;
#X obj 501 331 bng 19 250 50 0 empty empty empty 0 -10 0 12 #fcfcfc #000000 #000000;
#X obj 549 268 sel 127;
#X obj 501 354 spigot;
#X msg 611 290 1;
#X msg 641 290 0;
#X obj 501 376 bng 19 250 50 0 cs7 empty empty 0 -10 0 12 #fcfcfc #000000 #000000;
#X obj 500 269 sel 52;
#X obj 691 312 spigot;
#X msg 737 293 1;
#X msg 770 292 0;
#X obj 690 247 notein;
#X obj 691 333 bng 19 250 50 0 empty empty empty 0 -10 0 12 #fcfcfc #000000 #000000;
#X obj 739 270 sel 127;
#X obj 691 356 spigot;
#X msg 801 292 1;
#X obj 691 378 bng 19 250 50 0 cs8 empty empty 0 -10 0 12 #fcfcfc #000000 #000000;
#X obj 690 271 sel 52;
#X obj 416 59 sel 2;
#X obj 615 63 sel 3;
#X obj 805 65 sel 4;
#X obj 222 262 sel 5;
#X obj 412 264 sel 6;
#X obj 611 268 sel 7;
#X obj 801 270 sel 8;
#X msg 848 293 0;
#X connect 0 0 4 0;
#X connect 1 0 0 1;
#X connect 2 0 0 1;
#X connect 3 0 11 0;
#X connect 3 1 5 0;
#X connect 3 2 9 0;
#X connect 4 0 6 0;
#X connect 5 0 1 0;
#X connect 5 1 2 0;
#X connect 6 0 10 0;
#X connect 7 0 6 1;
#X connect 8 0 6 1;
#X connect 9 0 7 0;
#X connect 9 1 8 0;
#X connect 11 0 0 0;
#X connect 12 0 16 0;
#X connect 13 0 12 1;
#X connect 14 0 12 1;
#X connect 15 0 22 0;
#X connect 15 1 17 0;
#X connect 15 2 88 0;
#X connect 16 0 18 0;
#X connect 17 0 13 0;
#X connect 17 1 14 0;
#X connect 18 0 21 0;
#X connect 19 0 18 1;
#X connect 20 0 18 1;
#X connect 22 0 12 0;
#X connect 23 0 27 0;
#X connect 24 0 23 1;
#X connect 25 0 23 1;
#X connect 26 0 33 0;
#X connect 26 1 28 0;
#X connect 26 2 89 0;
#X connect 27 0 29 0;
#X connect 28 0 24 0;
#X connect 28 1 25 0;
#X connect 29 0 32 0;
#X connect 30 0 29 1;
#X connect 31 0 29 1;
#X connect 33 0 23 0;
#X connect 34 0 38 0;
#X connect 35 0 34 1;
#X connect 36 0 34 1;
#X connect 37 0 44 0;
#X connect 37 1 39 0;
#X connect 37 2 90 0;
#X connect 38 0 40 0;
#X connect 39 0 35 0;
#X connect 39 1 36 0;
#X connect 40 0 43 0;
#X connect 41 0 40 1;
#X connect 42 0 40 1;
#X connect 44 0 34 0;
#X connect 45 0 49 0;
#X connect 46 0 45 1;
#X connect 47 0 45 1;
#X connect 48 0 55 0;
#X connect 48 1 50 0;
#X connect 48 2 91 0;
#X connect 49 0 51 0;
#X connect 50 0 46 0;
#X connect 50 1 47 0;
#X connect 51 0 54 0;
#X connect 52 0 51 1;
#X connect 53 0 51 1;
#X connect 55 0 45 0;
#X connect 56 0 60 0;
#X connect 57 0 56 1;
#X connect 58 0 56 1;
#X connect 59 0 66 0;
#X connect 59 1 61 0;
#X connect 59 2 92 0;
#X connect 60 0 62 0;
#X connect 61 0 57 0;
#X connect 61 1 58 0;
#X connect 62 0 65 0;
#X connect 63 0 62 1;
#X connect 64 0 62 1;
#X connect 66 0 56 0;
#X connect 67 0 71 0;
#X connect 68 0 67 1;
#X connect 69 0 67 1;
#X connect 70 0 77 0;
#X connect 70 1 72 0;
#X connect 70 2 93 0;
#X connect 71 0 73 0;
#X connect 72 0 68 0;
#X connect 72 1 69 0;
#X connect 73 0 76 0;
#X connect 74 0 73 1;
#X connect 75 0 73 1;
#X connect 77 0 67 0;
#X connect 78 0 82 0;
#X connect 79 0 78 1;
#X connect 80 0 78 1;
#X connect 81 0 87 0;
#X connect 81 1 83 0;
#X connect 81 2 94 0;
#X connect 82 0 84 0;
#X connect 83 0 79 0;
#X connect 83 1 80 0;
#X connect 84 0 86 0;
#X connect 85 0 84 1;
#X connect 87 0 78 0;
#X connect 88 0 19 0;
#X connect 88 1 20 0;
#X connect 89 0 30 0;
#X connect 89 1 31 0;
#X connect 90 0 41 0;
#X connect 90 1 42 0;
#X connect 91 0 52 0;
#X connect 91 1 53 0;
#X connect 92 0 63 0;
#X connect 92 1 64 0;
#X connect 93 0 74 0;
#X connect 93 1 75 0;
#X connect 94 0 85 0;
#X connect 94 1 95 0;
#X connect 95 0 84 1;
