#N canvas 0 28 1440 872 12;
#X obj 82 79 sel 1;
#X obj 34 126 spigot;
#X msg 84 102 1;
#X msg 115 102 0;
#X obj 38 76 ctlin;
#X obj 34 102 sel 23;
#X obj 208 121 spigot;
#X msg 308 120 1;
#X msg 339 120 0;
#X obj 209 69 ctlin;
#X obj 253 98 sel 23;
#X obj 308 96 sel 2, f 9;
#X obj 208 98 sel 17;
#X obj 436 125 spigot;
#X msg 517 101 0;
#X obj 440 75 ctlin;
#X obj 436 101 sel 23;
#X obj 484 78 sel 3;
#X msg 486 101 3;
#X obj 603 123 spigot;
#X msg 684 99 0;
#X obj 607 73 ctlin;
#X obj 603 99 sel 23;
#X msg 653 99 3;
#X obj 651 76 sel 4;
#X obj 782 120 spigot;
#X msg 863 96 0;
#X obj 786 70 ctlin;
#X obj 782 96 sel 23;
#X msg 832 96 3;
#X obj 945 118 spigot;
#X msg 1026 94 0;
#X obj 949 72 ctlin;
#X obj 945 94 sel 23;
#X msg 995 94 3;
#X obj 1120 119 spigot;
#X msg 1201 95 0;
#X obj 1124 69 ctlin;
#X obj 1120 95 sel 23;
#X msg 1170 95 3;
#X obj 1289 117 spigot;
#X msg 1372 93 0;
#X obj 1293 69 ctlin;
#X obj 1289 93 sel 23;
#X msg 1339 93 3;
#X obj 830 73 sel 5;
#X obj 993 71 sel 6;
#X obj 1168 72 sel 7;
#X obj 1337 70 sel 8;
#X msg 36 176 0;
#X obj 36 150 bng 19 250 50 0 empty empty empty 0 -10 0 12 #fcfcfc #000000 #000000;
#X obj 209 148 bng 19 250 50 0 empty empty empty 0 -10 0 12 #fcfcfc #000000 #000000;
#X obj 436 150 bng 19 250 50 0 empty empty empty 0 -10 0 12 #fcfcfc #000000 #000000;
#X obj 605 145 bng 19 250 50 0 empty empty empty 0 -10 0 12 #fcfcfc #000000 #000000;
#X msg 209 174 1;
#X msg 436 176 2;
#X msg 605 171 3;
#X obj 783 147 bng 19 250 50 0 empty empty empty 0 -10 0 12 #fcfcfc #000000 #000000;
#X obj 946 141 bng 19 250 50 0 empty empty empty 0 -10 0 12 #fcfcfc #000000 #000000;
#X obj 1121 144 bng 19 250 50 0 empty empty empty 0 -10 0 12 #fcfcfc #000000 #000000;
#X obj 1289 143 bng 19 250 50 0 empty empty empty 0 -10 0 12 #fcfcfc #000000 #000000;
#X msg 1289 169 7;
#X msg 1121 170 6;
#X msg 946 167 5;
#X msg 783 173 4;
#X obj 28 279 outlet;
#X obj 202 289 outlet;
#X obj 436 291 outlet;
#X obj 626 293 outlet;
#X obj 781 295 outlet;
#X obj 971 297 outlet;
#X obj 1124 293 outlet;
#X obj 1314 295 outlet;
#X connect 0 0 2 0;
#X connect 0 1 3 0;
#X connect 1 0 50 0;
#X connect 2 0 1 1;
#X connect 3 0 1 1;
#X connect 4 1 5 0;
#X connect 4 2 0 0;
#X connect 5 0 1 0;
#X connect 6 0 51 0;
#X connect 7 0 6 1;
#X connect 8 0 6 1;
#X connect 9 0 12 0;
#X connect 9 1 10 0;
#X connect 9 2 11 0;
#X connect 10 0 6 0;
#X connect 11 0 7 0;
#X connect 11 1 8 0;
#X connect 12 0 6 0;
#X connect 13 0 52 0;
#X connect 14 0 13 1;
#X connect 15 1 16 0;
#X connect 15 2 17 0;
#X connect 16 0 13 0;
#X connect 17 0 18 0;
#X connect 17 1 14 0;
#X connect 18 0 13 1;
#X connect 19 0 53 0;
#X connect 20 0 19 1;
#X connect 21 1 22 0;
#X connect 21 2 24 0;
#X connect 22 0 19 0;
#X connect 23 0 19 1;
#X connect 24 0 23 0;
#X connect 24 1 20 0;
#X connect 25 0 57 0;
#X connect 26 0 25 1;
#X connect 27 1 28 0;
#X connect 27 2 45 0;
#X connect 28 0 25 0;
#X connect 29 0 25 1;
#X connect 30 0 58 0;
#X connect 31 0 30 1;
#X connect 32 1 33 0;
#X connect 32 2 46 0;
#X connect 33 0 30 0;
#X connect 34 0 30 1;
#X connect 35 0 59 0;
#X connect 36 0 35 1;
#X connect 37 1 38 0;
#X connect 37 2 47 0;
#X connect 38 0 35 0;
#X connect 39 0 35 1;
#X connect 40 0 60 0;
#X connect 41 0 40 1;
#X connect 42 1 43 0;
#X connect 42 2 48 0;
#X connect 43 0 40 0;
#X connect 44 0 40 1;
#X connect 45 0 29 0;
#X connect 45 1 26 0;
#X connect 46 0 34 0;
#X connect 46 1 31 0;
#X connect 47 0 39 0;
#X connect 47 1 36 0;
#X connect 48 0 44 0;
#X connect 48 1 41 0;
#X connect 49 0 65 0;
#X connect 50 0 49 0;
#X connect 51 0 54 0;
#X connect 52 0 55 0;
#X connect 53 0 56 0;
#X connect 54 0 66 0;
#X connect 55 0 67 0;
#X connect 56 0 68 0;
#X connect 57 0 64 0;
#X connect 58 0 63 0;
#X connect 59 0 62 0;
#X connect 60 0 61 0;
#X connect 61 0 72 0;
#X connect 62 0 71 0;
#X connect 63 0 70 0;
#X connect 64 0 69 0;
