#N canvas 1959 434 977 300 12;
#X obj 47 84 notein;
#X obj 47 179 note-toggle;
#X obj 93 105 sel 1;
#X obj 47 157 spigot;
#X msg 59 131 1;
#X msg 90 131 0;
#X obj 47 105 == 91;
#X obj 282 180 note-toggle;
#X obj 328 106 sel 1;
#X obj 282 157 spigot;
#X msg 294 132 1;
#X msg 325 132 0;
#X obj 282 106 == 93;
#X obj 162 180 note-toggle;
#X obj 208 106 sel 1;
#X obj 162 158 spigot;
#X msg 174 132 1;
#X msg 205 132 0;
#X obj 162 106 == 92;
#X obj 160 228 bng 19 250 50 0 stop empty empty 0 -10 0 12 #fcfcfc #000000 #000000;
#X obj 281 229 bng 19 250 50 0 empty empty empty 0 -10 0 12 #fcfcfc #000000 #000000;
#X obj 51 228 bng 19 250 50 0 play empty empty 0 -10 0 12 #fcfcfc #000000 #000000;
#X obj 285 272 tgl 19 0 dsp empty empty 0 -10 0 12 #fcfcfc #000000 #000000 0 1;
#X connect 0 0 6 0;
#X connect 0 0 18 0;
#X connect 0 0 12 0;
#X connect 0 2 2 0;
#X connect 0 2 14 0;
#X connect 0 2 8 0;
#X connect 1 0 21 0;
#X connect 2 0 4 0;
#X connect 2 1 5 0;
#X connect 3 0 1 0;
#X connect 4 0 3 1;
#X connect 5 0 3 1;
#X connect 6 0 3 0;
#X connect 7 0 20 0;
#X connect 8 0 10 0;
#X connect 8 1 11 0;
#X connect 9 0 7 0;
#X connect 10 0 9 1;
#X connect 11 0 9 1;
#X connect 12 0 9 0;
#X connect 13 0 19 0;
#X connect 14 0 16 0;
#X connect 14 1 17 0;
#X connect 15 0 13 0;
#X connect 16 0 15 1;
#X connect 17 0 15 1;
#X connect 18 0 15 0;
#X connect 20 0 22 0;
