#N canvas 0 25 1440 776 12;
#X obj 10 11 cnv 19 1420 850 empty empty empty 20 12 0 12 #202020 #404040 0;
#X obj 14 405 cnv 25 700 200 empty empty empty 20 12 0 12 #c6feff #404040 0;
#X obj 19 462 tgl 25 0 a-1 a-1 on/off 0 -10 0 12 #00ff04 #000000 #000000 0 1;
#X obj 21 517 tgl 19 0 s-1 s-1 draw\ fill 0 -10 0 12 #00faff #000000 #000000 0 1;
#X obj 23 563 tgl 19 0 r-1 r-1 draw\ point 0 -10 0 12 #ff0400 #000000 #000000 0 1;
#X obj 97 463 tgl 25 0 a-2 a-2 on/off 0 -10 0 12 #00ff04 #000000 #000000 0 1;
#X obj 99 518 tgl 19 0 s-2 s-2 draw\ fill 0 -10 0 12 #00faff #000000 #000000 0 1;
#X obj 95 565 tgl 19 0 r-2 r-2 draw\ point 0 -10 0 12 #ff0400 #000000 #000000 0 1;
#X obj 185 465 tgl 25 0 a-3 a-3 on/off 0 -10 0 12 #00ff04 #000000 #000000 0 1;
#X obj 187 520 tgl 19 0 s-3 s-3 fill 0 -10 0 12 #00faff #000000 #000000 0 1;
#X obj 185 565 tgl 19 0 r-3 r-3 smooth 0 -10 0 12 #ff0400 #000000 #000000 0 1;
#X obj 269 466 tgl 25 0 a-4 a-4 on/off 0 -10 0 12 #00ff04 #000000 #000000 0 1;
#X obj 271 522 tgl 19 0 s-4 s-4 draw\ fill 0 -10 0 12 #00faff #000000 #000000 0 1;
#X obj 269 568 tgl 19 0 r-4 r-4 draw\ point 0 -10 0 12 #ff0400 #000000 #000000 0 1;
#X obj 359 468 tgl 25 0 a-5 a-5 on/off 0 -10 0 12 #00ff04 #000000 #000000 0 1;
#X obj 358 523 tgl 19 0 s-5 s-5 draw\ fill 0 -10 0 12 #00faff #000000 #000000 0 1;
#X obj 358 569 tgl 19 0 r-5 r-5 draw\ point 0 -10 0 12 #ff0400 #000000 #000000 0 1;
#X obj 452 473 tgl 25 0 a-6 a-6 on/off 0 -10 0 12 #00ff04 #000000 #000000 0 1;
#X obj 452 525 tgl 19 0 s-6 s-6 draw\ fill 0 -10 0 12 #00faff #000000 #000000 0 1;
#X obj 451 569 tgl 19 0 r-6 r-6 draw\ point 0 -10 0 12 #ff0400 #000000 #000000 0 1;
#X obj 546 475 tgl 25 0 a-7 a-7 on/off 0 -10 0 12 #00ff04 #000000 #000000 0 1;
#X obj 546 527 tgl 19 0 s-7 s-7 small\ puzzle 0 -10 0 12 #00faff #000000 #000000 0 1;
#X obj 545 568 tgl 19 0 r-7 r-7 puzzle\ reset 0 -10 0 12 #ff0400 #000000 #000000 0 1;
#X obj 644 475 tgl 25 0 a-8 a-8 on/off 0 -10 0 12 #00ff04 #000000 #000000 0 1;
#X obj 644 527 tgl 19 0 s-8 s-8 draw\ fill 0 -10 0 12 #00faff #000000 #000000 0 1;
#X obj 642 569 tgl 19 0 r-8 r-8 dsp-size 0 -10 0 12 #ff0400 #000000 #000000 0 1;
#X obj 14 612 cnv 19 700 175 empty empty empty 20 12 0 12 #e0e0e0 #404040 0;
#X obj 25 649 vsl 19 125 0 127 0 0 empty empty empty 0 -9 0 12 #ffffff #000000 #000000 0 1;
#X obj 112 649 vsl 19 125 0 127 0 0 empty empty empty 0 -9 0 12 #ffffff #000000 #000000 0 1;
#X obj 112 624 ctlin 7 2;
#X obj 192 649 vsl 19 125 0 127 0 0 7-3 empty empty 0 -9 0 12 #ffffff #000000 #000000 0 1;
#X obj 278 649 vsl 19 125 0 127 0 0 empty empty empty 0 -9 0 12 #ffffff #000000 #000000 0 1;
#X obj 367 650 vsl 19 125 0 127 0 0 empty empty empty 0 -9 0 12 #ffffff #000000 #000000 0 1;
#X obj 459 649 vsl 19 125 0 127 0 0 7-6 empty empty 0 -9 0 12 #ffffff #000000 #000000 0 1;
#X obj 547 650 vsl 19 125 0 127 0 0 empty empty empty 0 -9 0 12 #ffffff #000000 #000000 0 1;
#X obj 631 652 vsl 19 125 0 127 0 0 empty empty empty 0 -9 0 12 #ffffff #000000 #000000 0 1;
#X obj 192 625 ctlin 7 3;
#X obj 278 625 ctlin 7 4;
#X obj 367 626 ctlin 7 5;
#X obj 459 626 ctlin 7 6;
#X obj 547 626 ctlin 7 7;
#X obj 631 627 ctlin 7 8;
#X obj 25 625 ctlin 7 1;
#X obj 17 419 gui-activator-control;
#X obj 14 17 cnv 19 700 280 empty empty empty 20 12 0 12 #ffc7c6 #404040 0;
#X obj 57 66 tgl 19 0 1-1 1-1 bounce 0 -10 0 12 #c6ffc7 #000000 #000000 0 1;
#X obj 55 106 tgl 19 0 1-2 1-2 spin 0 -10 0 12 #c6ffc7 #000000 #000000 0 1;
#X obj 55 156 tgl 19 0 1-3 1-3 dsp-size 0 -10 0 12 #9c00ff #000000 #000000 0 1;
#X obj 54 207 tgl 19 0 1-4 1-4 dsp-scale 0 -10 0 12 #9c00ff #000000 #000000 0 1;
#X obj 54 254 tgl 19 0 1-5 1-5 dsp-spin 0 -10 0 12 #9c00ff #000000 #000000 0 1;
#X obj 137 66 tgl 19 0 2-1 2-1 Circle 0 -10 0 12 #c6ffc7 #000000 #000000 0 1;
#X obj 137 109 tgl 19 0 2-2 2-2 Vert\ Line 0 -10 0 12 #c6ffc7 #000000 #000000 0 1;
#X obj 136 156 tgl 19 0 2-3 2-3 Horz\ Line 0 -10 0 12 #c6ffc7 #000000 #000000 0 1;
#X obj 135 204 tgl 19 0 2-4 2-4 Steady\ Circle 0 -10 0 12 #c6ffc7 #000000 #000000 0 1;
#X obj 135 256 tgl 19 0 2-5 2-5 Cone 0 -10 0 12 #c6ffc7 #000000 #000000 0 1;
#X obj 218 210 tgl 19 0 3-4 3-4 dsp-meta 0 -10 0 12 #9c00ff #000000 #000000 0 1;
#X obj 217 255 tgl 19 0 3-5 3-5 dsp-cube 0 -10 0 12 #9c00ff #000000 #000000 0 1;
#X obj 378 59 tgl 19 0 5-1 5-1 Rot\ Img 0 -10 0 12 #c6ffc7 #000000 #000000 0 1;
#X obj 377 104 tgl 19 0 5-2 5-2 Rotate\ Pixels 0 -10 0 12 #c6ffc7 #000000 #000000 0 1;
#X obj 377 158 tgl 19 0 5-3 5-3 Flip\ Pixels 0 -10 0 12 #c6ffc7 #000000 #000000 0 1;
#X obj 377 210 tgl 19 0 5-4 5-4 Pixel\ Noise 0 -10 0 12 #c6ffc7 #000000 #000000 0 1;
#X obj 376 254 tgl 19 0 5-5 5-5 empty 0 -10 0 12 #c6ffc7 #000000 #000000 0 1;
#X obj 627 66 tgl 19 0 8-1 8-1 flip\ Y 0 -10 0 12 #c6ffc7 #000000 #000000 0 1;
#X obj 627 114 tgl 19 0 8-2 8-2 flip\ X 0 -10 0 12 #c6ffc7 #000000 #000000 0 1;
#X obj 627 167 tgl 19 0 8-3 8-3 dsp-kld-rlp 0 -10 0 12 #9c00ff #000000 #000000 0 1;
#X obj 627 221 tgl 19 0 8-4 8-4 dsp-kld-sap 0 -10 0 12 #9c00ff #000000 #000000 0 1;
#X obj 627 260 tgl 19 0 8-5 8-5 dsp-kld-spin 0 -10 0 12 #9c00ff #000000 #000000 0 1;
#X obj 52 22 gui-pad-control;
#X obj 14 332 cnv 19 700 70 empty empty empty 20 12 0 12 #feffc6 #404040 0;
#X obj 261 357 hradio 40 1 0 8 empty empty \ \ 1\ \ \ \ \ 2\ \ \ \ \ 3\ \ \ \ 4\ \ \ \ \ 5\ \ \ \ \ 6\ \ \ \ \ 7\ \ \ \ 8 0 -10 0 12 #faff00 #000000 #000000 0;
#X obj 113 339 gui-track-control;
#X obj 13 790 cnv 19 700 60 empty empty empty 20 12 0 12 #e0e0e0 #404040 0;
#X obj 718 17 cnv 19 700 830 empty empty empty 20 12 0 12 #e0e0e0 #404040 0;
#X obj 846 629 tgl 25 0 dsp dsp DSP 0 -10 0 12 #9c00ff #000000 #9c00ff 0 1;
#X obj 14 299 cnv 19 700 29 empty empty empty 20 12 0 12 #c7c6ff #404040 0;
#X obj 69 307 bng 19 250 50 0 cs1 cs1 stop 0 -10 0 8 #0400ff #000000 #000000;
#X obj 132 304 bng 19 250 50 0 empty cs2 empty 0 -10 0 12 #fcfcfc #000000 #000000;
#X obj 219 306 bng 19 250 50 0 cs3 cs3 empty 0 -10 0 12 #0400ff #000000 #000000;
#X obj 292 305 bng 19 250 50 0 empty cs4 empty 0 -10 0 12 #fcfcfc #000000 #000000;
#X obj 378 305 bng 19 250 50 0 empty cs5 empty 0 -10 0 12 #fcfcfc #000000 #000000;
#X obj 469 304 bng 19 250 50 0 empty cs6 empty 0 -10 0 12 #fcfcfc #000000 #000000;
#X obj 563 304 bng 19 250 50 0 cs7 cs7 reset 0 -10 0 12 #0400ff #000000 #000000;
#X obj 650 304 bng 19 250 50 0 cs8 cs8 stop 0 -10 0 8 #0400ff #000000 #000000;
#X obj 113 363 gui-stop-control;
#X obj 889 634 gem-window;
#X obj 738 670 gui-transport-control;
#X obj 743 628 bng 25 250 50 0 play play PLAY 0 -10 0 12 #ff0400 #000000 #ff0400;
#X obj 794 629 bng 25 250 50 0 stop stop STOP 0 -10 0 12 #0400ff #000000 #0400ff;
#X obj 1260 614 gui-tempo;
#X obj 1235 636 bng 19 250 50 0 empty bar empty 0 -10 0 12 #fcfcfc #000000 #000000;
#X obj 1274 636 bng 19 250 50 0 empty beat empty 0 -10 0 12 #fcfcfc #000000 #000000;
#X obj 1309 637 bng 19 250 50 0 empty sub-beat empty 0 -10 0 12 #fcfcfc #000000 #000000;
#X floatatom 1340 634 5 0 0 2 BPM - bpm 16;
#X text 212 685 Track 3: Webcam, f 6;
#X text 481 690 Track 6: WAVE, f 6;
#X obj 466 62 bng 19 250 50 0 6-1 6-1 Noise1 0 -10 0 12 #c6ffc7 #000000 #000000;
#X obj 222 63 bng 19 250 50 0 3-1 3-1 Rst\ Clr 0 -10 0 12 #c6ffc7 #000000 #000000;
#X obj 740 724 tgl 19 0 light light World\ Light\ Off 0 -10 0 12 #fcfcfc #000000 #000000 0 1;
#X text 299 692 Track 4: Grid, f 6;
#X text 389 676 Track 5: Square Particles, f 6;
#X text 571 693 Track 7: IMAGE, f 5;
#X obj 299 66 bng 19 250 50 0 4-1 4-1 Ripple 0 -10 0 12 #c6ffc7 #000000 #000000;
#X obj 1008 635 bng 19 250 50 0 start empty start-bpm 0 -10 0 12 #ffe3c6 #000000 #000000;
#X obj 1095 637 bng 19 250 50 0 stop-bpm empty stop-bpm 0 -10 0 12 #ffe3c6 #000000 #000000;
#X msg 27 307 0;
#X obj 1178 637 bng 19 250 50 0 tap empty TAP 0 -10 0 12 #faff00 #000000 #000000;
#X floatatom 1331 852 5 0 0 0 CPU\ USAGE cpu - 16;
#X obj 539 81 vradio 22 1 0 4 7pad 7pad Img\ Select 0 -10 0 12 #c6ffc7 #000000 #000000 0;
#X obj 540 222 tgl 19 0 7-5 7-5 dsp-size 0 -10 0 12 #9c00ff #000000 #000000 0 1;
#X msg 179 305 0;
#X msg 613 302 0;
#X obj 26 806 track1;
#X obj 108 806 track2;
#X obj 191 807 track3;
#X obj 277 806 track4;
#X obj 362 807 track5;
#X obj 456 807 track6;
#X obj 545 807 track7;
#X obj 1008 690 hradio 19 1 0 9 empty empty empty 0 -10 0 12 #fcfcfc #000000 #000000 0;
#X obj 1009 667 colour-selector;
#X obj 631 806 track8;
#X obj 220 110 bng 19 250 50 0 3-2 3-2 Pulse 0 -10 0 12 #c6ffc7 #000000 #000000;
#X obj 216 156 bng 19 250 50 0 3-3 3-3 Flip 0 -10 0 12 #c6ffc7 #000000 #000000;
#X obj 467 106 bng 19 250 50 0 6-2 6-2 Noise2 0 -10 0 12 #c6ffc7 #000000 #000000;
#X obj 465 152 bng 19 250 50 0 6-3 6-3 Noise3 0 -10 0 12 #c6ffc7 #000000 #000000;
#X obj 464 207 bng 19 250 50 0 6-4 6-4 Noise4 0 -10 0 12 #c6ffc7 #000000 #000000;
#X obj 465 254 bng 19 250 50 0 6-5 6-5 Wave 0 -10 0 12 #c6ffc7 #000000 #000000;
#X obj 297 212 bng 19 250 50 0 4-4 4-4 FlipY 0 -10 0 12 #c6ffc7 #000000 #000000;
#X obj 297 261 bng 19 250 50 0 4-5 4-5 Flip\ X 0 -10 0 12 #c6ffc7 #000000 #000000;
#X obj 299 118 tgl 19 0 4-2 4-2 Width 0 -10 0 12 #c6ffc7 #000000 #000000 0 1;
#X obj 297 164 tgl 19 0 4-3 4-3 Height 0 -10 0 12 #c6ffc7 #000000 #000000 0 1;
#X text 47 684 Track 1: Cube, f 6;
#X text 132 683 Track 2: Particles, f 6;
#X text 652 681 Track 8: Pixels;
#X connect 29 0 28 0;
#X connect 36 0 30 0;
#X connect 37 0 31 0;
#X connect 38 0 32 0;
#X connect 39 0 33 0;
#X connect 40 0 34 0;
#X connect 41 0 35 0;
#X connect 42 0 27 0;
#X connect 70 0 69 0;
#X connect 70 1 69 0;
#X connect 70 2 69 0;
#X connect 70 3 69 0;
#X connect 70 4 69 0;
#X connect 70 5 69 0;
#X connect 70 6 69 0;
#X connect 75 0 104 0;
#X connect 77 0 109 0;
#X connect 82 0 110 0;
#X connect 88 0 92 0;
#X connect 104 0 49 0;
#X connect 104 0 48 0;
#X connect 104 0 47 0;
#X connect 104 0 46 0;
#X connect 104 0 45 0;
#X connect 109 0 55 0;
#X connect 109 0 56 0;
#X connect 110 0 108 0;
#X connect 110 0 66 0;
#X connect 110 0 65 0;
#X connect 110 0 64 0;
#X connect 119 1 118 0;
#X coords 0 -1 1 1 85 60 1 100 100;
