#N canvas 0 28 1440 900 12;
#X obj 9 33 cnv 19 1420 850 empty empty empty 20 12 0 12 #202020 #404040 0;
#X obj 17 429 cnv 25 700 200 empty empty empty 20 12 0 12 #c6feff #404040 0;
#X obj 22 486 tgl 25 0 a-1 a-1 on/off 0 -10 0 12 #00ff04 #000000 #000000 0 1;
#X obj 24 541 tgl 19 0 s-1 s-1 draw\ fill 0 -10 0 12 #00faff #000000 #000000 0 1;
#X obj 26 587 tgl 19 0 r-1 r-1 draw\ point 0 -10 0 12 #ff0400 #000000 #000000 0 1;
#X obj 100 487 tgl 25 0 a-2 a-2 on/off 0 -10 0 12 #00ff04 #000000 #000000 0 1;
#X obj 102 542 tgl 19 0 s-2 s-2 draw\ fill 0 -10 0 12 #00faff #000000 #000000 0 1;
#X obj 98 589 tgl 19 0 r-2 r-2 draw\ point 0 -10 0 12 #ff0400 #000000 #000000 0 1;
#X obj 188 489 tgl 25 0 a-3 a-3 on/off 0 -10 0 12 #00ff04 #000000 #000000 0 1;
#X obj 190 544 tgl 19 0 s-3 s-3 fill 0 -10 0 12 #00faff #000000 #000000 0 1;
#X obj 188 589 tgl 19 0 r-3 r-3 smooth 0 -10 0 12 #ff0400 #000000 #000000 0 1;
#X obj 272 490 tgl 25 0 a-4 a-4 on/off 0 -10 0 12 #00ff04 #000000 #000000 0 1;
#X obj 274 546 tgl 19 0 s-4 s-4 draw\ fill 0 -10 0 12 #00faff #000000 #000000 0 1;
#X obj 272 592 tgl 19 0 r-4 r-4 draw\ point 0 -10 0 12 #ff0400 #000000 #000000 0 1;
#X obj 362 492 tgl 25 0 a-5 a-5 on/off 0 -10 0 12 #00ff04 #000000 #000000 0 1;
#X obj 361 547 tgl 19 0 s-5 s-5 draw\ fill 0 -10 0 12 #00faff #000000 #000000 0 1;
#X obj 361 593 tgl 19 0 r-5 r-5 draw\ point 0 -10 0 12 #ff0400 #000000 #000000 0 1;
#X obj 455 497 tgl 25 0 a-6 a-6 on/off 0 -10 0 12 #00ff04 #000000 #000000 0 1;
#X obj 455 549 tgl 19 0 s-6 s-6 draw\ fill 0 -10 0 12 #00faff #000000 #000000 0 1;
#X obj 454 593 tgl 19 0 r-6 r-6 draw\ point 0 -10 0 12 #ff0400 #000000 #000000 0 1;
#X obj 549 499 tgl 25 0 a-7 a-7 on/off 0 -10 0 12 #00ff04 #000000 #000000 0 1;
#X obj 549 551 tgl 19 0 s-7 s-7 small\ puzzle 0 -10 0 12 #00faff #000000 #000000 0 1;
#X obj 548 592 tgl 19 0 r-7 r-7 puzzle\ reset 0 -10 0 12 #ff0400 #000000 #000000 0 1;
#X obj 647 499 tgl 25 0 a-8 a-8 on/off 0 -10 0 12 #00ff04 #000000 #000000 0 1;
#X obj 647 551 tgl 19 0 s-8 s-8 draw\ fill 0 -10 0 12 #00faff #000000 #000000 0 1;
#X obj 645 593 tgl 19 0 r-8 r-8 dsp-size 0 -10 0 12 #ff0400 #000000 #000000 0 1;
#X obj 17 636 cnv 19 700 175 empty empty empty 20 12 0 12 #e0e0e0 #404040 0;
#X obj 28 670 vsl 19 125 0 127 0 0 empty empty empty 0 -9 0 12 #ffffff #000000 #000000 0 1;
#X obj 115 669 vsl 19 125 0 127 0 0 empty empty empty 0 -9 0 12 #ffffff #000000 #000000 0 1;
#X obj 115 640 ctlin 7 2;
#X obj 195 669 vsl 19 125 0 127 0 0 7-3 empty empty 0 -9 0 12 #ffffff #000000 #000000 0 1;
#X obj 281 669 vsl 19 125 0 127 0 0 empty empty empty 0 -9 0 12 #ffffff #000000 #000000 0 1;
#X obj 370 670 vsl 19 125 0 127 0 0 empty empty empty 0 -9 0 12 #ffffff #000000 #000000 0 1;
#X obj 462 669 vsl 19 125 0 127 0 0 7-6 empty empty 0 -9 0 12 #ffffff #000000 #000000 0 1;
#X obj 550 670 vsl 19 125 0 127 0 0 empty empty empty 0 -9 0 12 #ffffff #000000 #000000 0 1;
#X obj 634 670 vsl 19 125 0 127 0 0 empty empty empty 0 -9 0 12 #ffffff #000000 #000000 0 1;
#X obj 195 640 ctlin 7 3;
#X obj 281 640 ctlin 7 4;
#X obj 370 640 ctlin 7 5;
#X obj 462 640 ctlin 7 6;
#X obj 550 640 ctlin 7 7;
#X obj 634 640 ctlin 7 8;
#X obj 28 641 ctlin 7 1;
#X obj 20 443 gui-activator-control;
#X obj 17 41 cnv 19 700 280 empty empty empty 20 12 0 12 #ffc7c6 #404040 0;
#X obj 55 96 tgl 19 0 1-1 1-1 bounce 0 -10 0 8 #c6ffc7 #000000 #000000 0 1;
#X obj 56 186 tgl 19 0 1-3 1-3 size 0 -10 0 8 #9c00ff #000000 #000000 0 1;
#X obj 55 231 tgl 19 0 1-4 1-4 scale 0 -10 0 8 #9c00ff #000000 #000000 0 1;
#X obj 55 278 tgl 19 0 1-5 1-5 spin 0 -10 0 8 #9c00ff #000000 #000000 0 1;
#X obj 221 234 tgl 19 0 3-4 3-4 dsp-meta 0 -10 0 12 #9c00ff #000000 #000000 0 1;
#X obj 220 279 tgl 19 0 3-5 3-5 dsp-cube 0 -10 0 12 #9c00ff #000000 #000000 0 1;
#X obj 384 91 tgl 19 0 5-1 5-1 Rot\ Img 0 -10 0 12 #c6ffc7 #000000 #000000 0 1;
#X obj 383 136 tgl 19 0 5-2 5-2 Rotate\ Pixels 0 -10 0 12 #c6ffc7 #000000 #000000 0 1;
#X obj 383 190 tgl 19 0 5-3 5-3 Flip\ Pixels 0 -10 0 12 #c6ffc7 #000000 #000000 0 1;
#X obj 383 242 tgl 19 0 5-4 5-4 empty 0 -10 0 12 #ffffff #000000 #000000 0 1;
#X obj 382 286 tgl 19 0 5-5 5-5 empty 0 -10 0 12 #ffffff #000000 #000000 0 1;
#X obj 630 90 tgl 19 0 8-1 8-1 flip\ Y 0 -10 0 12 #c6ffc7 #000000 #000000 0 1;
#X obj 630 138 tgl 19 0 8-2 8-2 flip\ X 0 -10 0 12 #c6ffc7 #000000 #000000 0 1;
#X obj 630 191 tgl 19 0 8-3 8-3 dsp-kld-rlp 0 -10 0 12 #9c00ff #000000 #000000 0 1;
#X obj 630 237 tgl 19 0 8-4 8-4 dsp-kld-sap 0 -10 0 12 #9c00ff #000000 #000000 0 1;
#X obj 630 281 tgl 19 0 8-5 8-5 dsp-kld-spin 0 -10 0 12 #9c00ff #000000 #000000 0 1;
#X obj 25 48 gui-pad-control;
#X obj 17 356 cnv 19 700 70 empty empty empty 20 12 0 12 #feffc6 #404040 0;
#X obj 264 381 hradio 40 1 0 8 empty empty \ \ 1\ \ \ \ \ 2\ \ \ \ \ 3\ \ \ \ 4\ \ \ \ \ 5\ \ \ \ \ 6\ \ \ \ \ 7\ \ \ \ 8 0 -10 0 12 #faff00 #000000 #000000 0;
#X obj 99 362 gui-track-control;
#X obj 17 814 cnv 19 700 60 empty empty empty 20 12 0 12 #e0e0e0 #404040 0;
#X obj 721 41 cnv 19 700 833 empty empty empty 20 12 0 12 #e0e0e0 #404040 0;
#X obj 17 323 cnv 19 700 29 empty empty empty 20 12 0 12 #c7c6ff #404040 0;
#X obj 72 331 bng 19 250 50 0 cs1 cs1 stop 0 -10 0 8 #0400ff #000000 #000000;
#X obj 135 328 bng 19 250 50 0 empty cs2 empty 0 -10 0 12 #fcfcfc #000000 #000000;
#X obj 222 330 bng 19 250 50 0 cs3 cs3 empty 0 -10 0 12 #0400ff #000000 #000000;
#X obj 295 329 bng 19 250 50 0 empty cs4 empty 0 -10 0 12 #fcfcfc #000000 #000000;
#X obj 381 329 bng 19 250 50 0 empty cs5 empty 0 -10 0 12 #fcfcfc #000000 #000000;
#X obj 472 328 bng 19 250 50 0 empty cs6 empty 0 -10 0 12 #fcfcfc #000000 #000000;
#X obj 555 329 bng 19 250 50 0 cs7 cs7 reset 0 -10 0 12 #0400ff #000000 #000000;
#X obj 653 328 bng 19 250 50 0 cs8 cs8 pixel\ noise 0 -10 0 8 #c6ffc7 #000000 #000000;
#X obj 99 387 gui-stop-control;
#X text 215 705 Track 3: Webcam, f 6;
#X text 484 710 Track 6: WAVE, f 6;
#X obj 473 88 bng 19 250 50 0 6-1 6-1 Noise1 0 -10 0 12 #c6ffc7 #000000 #000000;
#X obj 225 87 bng 19 250 50 0 3-1 3-1 Rst\ Clr 0 -10 0 12 #c6ffc7 #000000 #000000;
#X text 302 712 Track 4: Grid, f 6;
#X text 392 696 Track 5: Square Particles, f 6;
#X text 574 713 Track 7: IMAGE, f 5;
#X obj 302 90 bng 19 250 50 0 4-1 4-1 Ripple 0 -10 0 12 #c6ffc7 #000000 #000000;
#X msg 30 331 0;
#X obj 984 688 vradio 22 1 0 4 7pad 7pad Img\ Select 0 -10 0 8 #c6ffc7 #000000 #000000 0;
#X obj 555 281 tgl 19 0 7-5 7-5 dsp-size 0 -10 0 12 #9c00ff #000000 #000000 0 1;
#X msg 182 329 0;
#X msg 616 326 0;
#X obj 29 830 track1;
#X obj 107 830 track2;
#X obj 188 831 track3;
#X obj 274 830 track4;
#X obj 363 831 track5;
#X obj 451 832 track6;
#X obj 542 832 track7;
#X obj 870 411 hradio 19 1 0 9 empty empty empty 0 -10 0 12 #fcfcfc #000000 #000000 0;
#X obj 773 412 colour-selector;
#X obj 630 832 track8;
#X obj 223 134 bng 19 250 50 0 3-2 3-2 Pulse 0 -10 0 12 #c6ffc7 #000000 #000000;
#X obj 219 180 bng 19 250 50 0 3-3 3-3 Flip 0 -10 0 12 #c6ffc7 #000000 #000000;
#X obj 474 132 bng 19 250 50 0 6-2 6-2 Noise2 0 -10 0 12 #c6ffc7 #000000 #000000;
#X obj 472 178 bng 19 250 50 0 6-3 6-3 Noise3 0 -10 0 12 #c6ffc7 #000000 #000000;
#X obj 471 233 bng 19 250 50 0 6-4 6-4 Noise4 0 -10 0 12 #c6ffc7 #000000 #000000;
#X obj 472 280 bng 19 250 50 0 6-5 6-5 Wave 0 -10 0 12 #c6ffc7 #000000 #000000;
#X obj 300 236 bng 19 250 50 0 4-4 4-4 FlipY 0 -10 0 12 #c6ffc7 #000000 #000000;
#X obj 300 285 bng 19 250 50 0 4-5 4-5 Flip\ X 0 -10 0 12 #c6ffc7 #000000 #000000;
#X obj 302 142 tgl 19 0 4-2 4-2 Width 0 -10 0 12 #c6ffc7 #000000 #000000 0 1;
#X obj 300 188 tgl 19 0 4-3 4-3 Height 0 -10 0 12 #c6ffc7 #000000 #000000 0 1;
#X text 50 705 Track 1: Cube, f 6;
#X text 135 703 Track 2: Particles, f 6;
#X obj 56 136 bng 19 250 50 0 1-2 1-2 spin 0 -10 0 8 #c6ffc7 #000000 #000000;
#X obj 744 50 cnv 19 650 330 empty empty empty 20 12 0 12 #202020 #404040 0;
#X obj 754 63 cnv 19 630 300 empty empty empty 20 12 0 12 #ffffff #404040 0;
#X text 1027 474 comment, f 90;
#X obj 744 388 cnv 19 650 80 empty empty empty 20 12 0 12 #000000 #404040 0;
#X obj 749 393 cnv 19 640 70 empty empty empty 20 12 0 12 #ffffff #404040 0;
#X obj 770 403 gui-tempo;
#X obj 1237 426 bng 19 250 50 0 empty bar bar 0 -10 0 12 #fcfcfc #000000 #000000;
#X obj 1274 427 bng 19 250 50 0 empty beat beat 0 -10 0 12 #fcfcfc #000000 #000000;
#X obj 1314 427 bng 19 250 50 0 empty sub-beat sub-beat 0 -10 0 12 #fcfcfc #000000 #000000;
#X floatatom 861 421 5 0 0 2 BPM - bpm 16;
#X obj 1071 426 bng 19 250 50 0 start empty start-bpm 0 -10 0 12 #ffc7c6 #000000 #000000;
#X obj 983 425 bng 19 250 50 0 stop-bpm empty stop-bpm 0 -10 0 12 #c7c6ff #000000 #000000;
#X obj 1163 425 bng 19 250 50 0 tap empty TAP 0 -10 0 12 #faff00 #000000 #000000;
#X obj 744 475 cnv 19 650 80 empty empty empty 20 12 0 12 #000000 #404040 0;
#X obj 749 480 cnv 19 640 70 empty empty empty 20 12 0 12 #ffffff #404040 0;
#X obj 867 507 tgl 25 0 dsp dsp DSP 0 -10 0 12 #9c00ff #000000 #9c00ff 0 1;
#X obj 916 513 gem-window;
#X obj 764 507 bng 25 250 50 0 play play PLAY 0 -10 0 12 #ff0400 #000000 #ff0400;
#X obj 815 507 bng 25 250 50 0 stop stop STOP 0 -10 0 12 #0400ff #000000 #0400ff;
#X obj 1001 513 gui-transport-control;
#X obj 1176 512 tgl 19 0 light light World\ Light 0 -10 0 12 #fcfcfc #000000 #000000 0 1;
#X obj 1095 562 cnv 19 300 80 empty empty empty 20 12 0 12 #000000 #404040 0;
#X obj 1100 567 cnv 19 290 70 empty empty empty 20 12 0 12 #ffffff #404040 0;
#X floatatom 1277 586 5 0 0 0 CPU\ USAGE cpu - 24;
#X obj 744 562 cnv 19 300 80 empty empty empty 20 12 0 12 #000000 #404040 0;
#X obj 749 567 cnv 19 290 70 empty empty empty 20 12 0 12 #ffffff #404040 0;
#X obj 759 593 colour-selector;
#X obj 875 593 hradio 19 1 0 8 empty empty empty 0 -10 0 12 #fcfcfc #000000 #000000 0;
#X obj 747 687 vu 19 160 empty empty -1 -10 0 12 #404040 #000000 1 0;
#X obj 746 658 vu-meter;
#X obj 859 687 vradio 22 1 0 5 2pad 2pad Particle\ Domain 0 -10 0 8 #c6ffc7 #000000 #000000 0;
#X text 882 712 Vert Line;
#X text 883 734 Horz Line;
#X text 883 779 Cone;
#X text 884 690 Normal;
#X text 1010 690 Kid;
#X text 1010 756 Bee;
#X text 655 711 Track 8: Pixels, f 7;
#X text 1010 712 Magnolia;
#X text 1010 734 Dandelion;
#X text 883 755 Disc;
#X text 778 88 Welcome to ESPER! This Visual Synthesizer is made for the Akai APC 40 to create real-time audio-reactive visuals. Press 'Play' on your APC. This will start the GEM Window. You will see the GEM window pop up with all 8 tracks enabled. I like to go through and toggle all tracks off so as to start with a blank canvas There are 8 'tracks' or 'layers' in ESPER. Much like you would use the APC40 for Music production \, each track corresponds to one layer. The 'Track Select' buttons on the APC allows you to toggle through the effects knobs for each track. The activator buttons turn on and off each layer. The send knobs are for global and in some case webcam effects. Images are loaded from the "Images" directory https://github.com/aidanwobrien/ESPER, f 84;
#X obj 1212 512 hsl 162 19 0 127 0 0 empty empty empty -2 -10 0 12 #ffffff #000000 #000000 0 1;
#X obj 1302 493 ctlin 15 1;
#X connect 29 0 28 0;
#X connect 36 0 30 0;
#X connect 37 0 31 0;
#X connect 38 0 32 0;
#X connect 39 0 33 0;
#X connect 40 0 34 0;
#X connect 41 0 35 0;
#X connect 42 0 27 0;
#X connect 64 0 63 0;
#X connect 64 1 63 0;
#X connect 64 2 63 0;
#X connect 64 3 63 0;
#X connect 64 4 63 0;
#X connect 64 5 63 0;
#X connect 64 6 63 0;
#X connect 68 0 85 0;
#X connect 70 0 88 0;
#X connect 74 0 89 0;
#X connect 85 0 48 0;
#X connect 85 0 47 0;
#X connect 85 0 46 0;
#X connect 85 0 112 0;
#X connect 85 0 45 0;
#X connect 88 0 49 0;
#X connect 88 0 50 0;
#X connect 89 0 87 0;
#X connect 89 0 60 0;
#X connect 89 0 59 0;
#X connect 89 0 58 0;
#X connect 118 0 122 0;
#X connect 139 1 140 0;
#X connect 142 0 141 0;
#X connect 156 0 155 0;
#X coords 0 -1 1 1 85 60 1 100 100;
