#N canvas 0 25 609 847 12;
#X obj 127 298 tgl 19 0 empty empty empty 0 -10 0 12 #fcfcfc #000000 #000000 0 1;
#X msg 127 347 1;
#X obj 214 322 sel 0;
#X msg 214 346 set 0;
#X obj 127 403 bng 19 250 50 0 empty empty empty 0 -10 0 12 #fcfcfc #000000 #000000;
#X obj 127 464 f;
#X obj 127 488 t b;
#X obj 127 548 f;
#X obj 12 569 s index;
#X floatatom 145 442 5 0 4 0 - - - 0;
#X floatatom 145 527 5 0 4 0 - - - 0;
#X obj 203 403 bng 19 250 50 0 empty empty empty 0 -10 0 12 #fcfcfc #000000 #000000;
#X obj 203 464 f;
#X obj 203 488 t b;
#X obj 203 548 f;
#X floatatom 221 442 5 0 4 0 - - - 0;
#X floatatom 221 527 5 0 4 0 - - - 0;
#X obj 13 594 r index;
#X floatatom 13 618 5 0 0 0 - - - 0;
#X obj 280 404 bng 19 250 50 0 empty empty empty 0 -10 0 12 #fcfcfc #000000 #000000;
#X obj 280 465 f;
#X obj 280 489 t b;
#X obj 280 549 f;
#X floatatom 298 443 5 0 4 0 - - - 0;
#X floatatom 298 528 5 0 4 0 - - - 0;
#X obj 356 404 bng 19 250 50 0 empty empty empty 0 -10 0 12 #fcfcfc #000000 #000000;
#X obj 356 465 f;
#X obj 356 489 t b;
#X obj 356 549 f;
#X floatatom 374 443 5 0 4 0 - - - 0;
#X floatatom 374 528 5 0 4 0 - - - 0;
#X obj 433 403 bng 19 250 50 0 empty empty empty 0 -10 0 12 #fcfcfc #000000 #000000;
#X obj 433 464 f;
#X obj 433 488 t b;
#X obj 433 548 f;
#X floatatom 451 442 5 0 4 0 - - - 0;
#X floatatom 451 527 5 0 4 0 - - - 0;
#X obj 509 403 bng 19 250 50 0 empty empty empty 0 -10 0 12 #fcfcfc #000000 #000000;
#X obj 509 464 f;
#X obj 509 488 t b;
#X obj 509 548 f;
#X floatatom 527 442 5 0 4 0 - - - 0;
#X floatatom 527 527 5 0 4 0 - - - 0;
#X obj 586 404 bng 19 250 50 0 empty empty empty 0 -10 0 12 #fcfcfc #000000 #000000;
#X obj 586 465 f;
#X obj 586 489 t b;
#X obj 586 549 f;
#X floatatom 604 443 5 0 4 0 - - - 0;
#X floatatom 604 528 5 0 4 0 - - - 0;
#X obj 663 404 bng 19 250 50 0 empty empty empty 0 -10 0 12 #fcfcfc #000000 #000000;
#X obj 663 465 f;
#X obj 663 489 t b;
#X obj 663 549 f;
#X floatatom 681 443 5 0 4 0 - - - 0;
#X floatatom 681 528 5 0 4 0 - - - 0;
#X floatatom 12 531 5 0 0 0 - - - 0;
#X obj 12 507 r ratio;
#X obj 12 484 s ratio;
#X obj 699 189 tgl 19 0 empty empty empty 0 -10 0 12 #fcfcfc #000000 #000000 0 1;
#X obj 699 267 timer;
#X floatatom 700 292 5 0 0 0 - - - 0;
#X obj 699 215 sel 0 1, f 10;
#X obj 732 238 bng 19 250 50 0 empty empty empty 0 -10 0 12 #fcfcfc #000000 #000000;
#X obj 699 239 bng 19 250 50 0 empty empty empty 0 -10 0 12 #fcfcfc #000000 #000000;
#X obj 700 319 sel 0;
#X floatatom 215 291 5 0 0 0 - - - 0;
#X obj 127 371 cyclone/cycle 8, f 77;
#X msg 118 225 1;
#X msg 150 225 0;
#X obj 117 194 bng 19 250 50 0 empty start empty 0 -10 0 12 #fcfcfc #000000 #000000;
#X obj 149 194 bng 19 250 50 0 empty stop empty 0 -10 0 12 #fcfcfc #000000 #000000;
#X obj 689 68 timer;
#X obj 688 92 expr (1000/$f1)*60;
#X obj 689 21 bng 19 250 50 0 empty tap empty 0 -10 0 12 #fcfcfc #000000 #000000;
#X obj 689 44 t b b;
#X floatatom 688 115 5 0 0 0 - bpm - 0;
#X obj 698 164 bng 19 250 50 0 empty empty empty 0 -10 0 12 #fcfcfc #000000 #000000;
#X obj 22 22 gui-tempo;
#X obj 656 139 cmetronome 50 4 3 2;
#X obj 1129 399 hsl 100 19 0 127 0 0 empty 19-5 empty -2 -10 0 12 #fcfcfc #000000 #000000 0 1;
#X floatatom 1122 476 5 0 0 0 - - - 0;
#X obj 1114 195 hsl 100 19 0 127 0 0 empty 18-5 empty -2 -10 0 12 #fcfcfc #000000 #000000 0 1;
#X floatatom 1123 332 5 0 0 0 - - - 0;
#X obj 1109 366 * 1.8;
#X obj 972 365 * 1.5;
#X obj 880 365 * 1.3;
#X obj 836 366 * 1.2;
#X obj 1072 513 * 1.7;
#X obj 981 512 * 1.5;
#X obj 889 512 * 1.3;
#X obj 935 512 * 1.4;
#X obj 845 513 * 1.2;
#X obj 790 366 * 1.4;
#X obj 926 365 * 1.1;
#X obj 1018 365 * 1.2;
#X obj 1063 366 * 1.4;
#X obj 799 513 * 1.8;
#X obj 1027 512 * 1.1;
#X obj 1118 513 * 1.4;
#X obj 1112 221 / 127;
#X obj 1126 425 / 127;
#X obj 1125 450 * 5;
#X obj 1112 256 * 5;
#X obj 127 323 metro 125;
#X connect 0 0 2 0;
#X connect 0 0 103 0;
#X connect 1 0 66 0;
#X connect 2 0 3 0;
#X connect 3 0 66 0;
#X connect 4 0 5 0;
#X connect 5 0 6 0;
#X connect 5 0 57 0;
#X connect 6 0 7 0;
#X connect 7 0 8 0;
#X connect 9 0 5 1;
#X connect 10 0 7 1;
#X connect 11 0 12 0;
#X connect 12 0 13 0;
#X connect 12 0 57 0;
#X connect 13 0 14 0;
#X connect 14 0 8 0;
#X connect 15 0 12 1;
#X connect 16 0 14 1;
#X connect 17 0 18 0;
#X connect 19 0 20 0;
#X connect 20 0 21 0;
#X connect 20 0 57 0;
#X connect 21 0 22 0;
#X connect 22 0 8 0;
#X connect 23 0 20 1;
#X connect 24 0 22 1;
#X connect 25 0 26 0;
#X connect 26 0 27 0;
#X connect 26 0 57 0;
#X connect 27 0 28 0;
#X connect 28 0 8 0;
#X connect 29 0 26 1;
#X connect 30 0 28 1;
#X connect 31 0 32 0;
#X connect 32 0 33 0;
#X connect 32 0 57 0;
#X connect 33 0 34 0;
#X connect 34 0 8 0;
#X connect 35 0 32 1;
#X connect 36 0 34 1;
#X connect 37 0 38 0;
#X connect 38 0 39 0;
#X connect 38 0 57 0;
#X connect 39 0 40 0;
#X connect 40 0 8 0;
#X connect 41 0 38 1;
#X connect 42 0 40 1;
#X connect 43 0 44 0;
#X connect 44 0 45 0;
#X connect 44 0 57 0;
#X connect 45 0 46 0;
#X connect 46 0 8 0;
#X connect 47 0 44 1;
#X connect 48 0 46 1;
#X connect 49 0 50 0;
#X connect 50 0 51 0;
#X connect 50 0 57 0;
#X connect 51 0 52 0;
#X connect 52 0 8 0;
#X connect 53 0 50 1;
#X connect 54 0 52 1;
#X connect 56 0 55 0;
#X connect 58 0 61 0;
#X connect 59 0 60 0;
#X connect 60 0 64 0;
#X connect 61 0 63 0;
#X connect 61 1 62 0;
#X connect 62 0 59 1;
#X connect 63 0 59 0;
#X connect 64 1 65 0;
#X connect 66 0 4 0;
#X connect 66 1 11 0;
#X connect 66 2 19 0;
#X connect 66 3 25 0;
#X connect 66 4 31 0;
#X connect 66 5 37 0;
#X connect 66 6 43 0;
#X connect 66 7 49 0;
#X connect 67 0 0 0;
#X connect 67 0 78 0;
#X connect 68 0 0 0;
#X connect 68 0 78 0;
#X connect 69 0 67 0;
#X connect 70 0 68 0;
#X connect 71 0 72 0;
#X connect 73 0 74 0;
#X connect 74 0 71 0;
#X connect 74 1 71 1;
#X connect 75 0 78 1;
#X connect 76 0 58 0;
#X connect 78 1 76 0;
#X connect 79 0 100 0;
#X connect 80 0 87 0;
#X connect 80 0 88 0;
#X connect 80 0 90 0;
#X connect 80 0 89 0;
#X connect 80 0 91 0;
#X connect 80 0 96 0;
#X connect 80 0 97 0;
#X connect 80 0 98 0;
#X connect 81 0 99 0;
#X connect 82 0 83 0;
#X connect 82 0 84 0;
#X connect 82 0 85 0;
#X connect 82 0 86 0;
#X connect 82 0 92 0;
#X connect 82 0 93 0;
#X connect 82 0 94 0;
#X connect 82 0 95 0;
#X connect 83 0 53 0;
#X connect 84 0 35 0;
#X connect 85 0 23 0;
#X connect 86 0 15 0;
#X connect 87 0 48 0;
#X connect 88 0 36 0;
#X connect 89 0 24 0;
#X connect 90 0 30 0;
#X connect 91 0 16 0;
#X connect 92 0 9 0;
#X connect 93 0 29 0;
#X connect 94 0 41 0;
#X connect 95 0 47 0;
#X connect 96 0 10 0;
#X connect 97 0 42 0;
#X connect 98 0 54 0;
#X connect 99 0 102 0;
#X connect 100 0 101 0;
#X connect 101 0 80 0;
#X connect 102 0 82 0;
#X connect 103 0 1 0;
