#N canvas 0 0 503 761 12;
#X obj 12 -5 cnv 19 700 840 empty empty empty 20 12 0 12 #e0e0e0 #404040 0;
#X obj 200 186 track1;
#X obj 650 186 track2;
#X obj 153 341 track3;
#X obj 653 346 track4;
#X obj 653 506 track6;
#X obj 151 703 track7;
#X obj 658 699 track8;
#X obj 718 23 vu 10 120 vu empty -1 -10 0 6 #404040 #000000 1 0;
#X obj 717 -2 vu-meter;
#X obj 14 -3 cnv 19 695 80 empty empty empty 20 12 0 12 #000000 #404040 0;
#X obj 16 1 cnv 19 690 70 empty empty empty 20 12 0 12 #ffffff #404040 0;
#X obj 27 8 gui-tempo;
#X obj 173 28 bng 19 250 50 0 empty bar bar 0 -10 0 10 #fcfcfc #000000 #000000;
#X obj 203 28 bng 19 250 50 0 empty beat beat 0 -10 0 10 #fcfcfc #000000 #000000;
#X obj 233 28 bng 19 250 50 0 empty sub-beat sub-beat 0 -10 0 10 #fcfcfc #000000 #000000;
#X floatatom 104 25 5 0 0 2 BPM bpm-mon bpm 16;
#X obj 303 29 bng 19 250 50 0 start start start-bpm 0 -10 0 12 #ffc7c6 #000000 #000000;
#X obj 381 30 bng 19 250 50 0 stop-bpm stop-bpm stop-bpm 0 -10 0 12 #c7c6ff #000000 #000000;
#X obj 450 30 bng 19 250 50 0 tap tap TAP 0 -10 0 12 #faff00 #000000 #000000;
#X obj 14 59 cnv 19 695 80 empty empty empty 20 12 0 12 #000000 #404040 0;
#X obj 16 63 cnv 19 690 70 empty empty empty 20 12 0 12 #ffffff #404040 0;
#X obj 25 110 colour-selector;
#X obj 141 115 hradio 10 1 0 8 colour empty empty 0 -10 0 12 #fcfcfc #000000 #000000 0;
#X obj 500 11 cnv 19 200 40 empty empty empty 20 12 0 12 #000000 #404040 0;
#X obj 503 13 cnv 19 190 35 empty empty empty 20 12 0 12 #ffffff #404040 0;
#X floatatom 625 19 5 0 0 0 CPU\ USAGE cpu - 16;
#X obj 487 85 tgl 25 0 dsp dsp DSP 0 -10 0 12 #9c00ff #000000 #9c00ff 0 1;
#X obj 423 85 bng 25 250 50 0 play play PLAY 0 -10 0 12 #ff0400 #000000 #ff0400;
#X obj 454 85 bng 25 250 50 0 stop stop STOP 0 -10 0 12 #0400ff #000000 #0400ff;
#X obj 530 90 tgl 19 0 light light-mon World\ Light 0 -10 0 10 #fcfcfc #000000 #000000 0 1;
#X obj 611 90 hsl 90 19 0 127 0 0 15-1 15-1 Light\ Angle -2 -10 0 10 #feffc6 #000000 #000000 0 1;
#X obj 25 86 cnv 19 20 20 empty empty empty 20 12 0 12 #ff0400 #404040 0;
#X obj 330 172 vsl 19 125 0 127 0 0 1slide 1slide size 0 -5 0 5 #ffffff #000000 #000000 0 1;
#X obj 399 698 tgl 25 0 a-8 a-8 on/off 0 -10 0 12 #00ff04 #000000 #000000 0 1;
#X obj 445 703 tgl 19 0 s-8 s-8 double 0 -5 0 8 #00faff #000000 #000000 0 1;
#X obj 488 703 tgl 19 0 r-8 r-8 dsp-size 0 -5 0 8 #e3c6ff #000000 #000000 0 1;
#X obj 360 172 vsl 19 125 1.27 127 1 0 2slide 2slide size 0 -5 0 5 #ffffff #000000 #000000 0 1;
#X obj 334 333 vsl 19 125 0 127 0 0 3slide 3slide opacity 0 -5 0 5 #ffffff #000000 #000000 0 1;
#X obj 363 333 vsl 19 125 1.27 127 1 0 4slide 4slide size 0 -5 0 5 #ffffff #000000 #000000 0 1;
#X obj 332 496 vsl 19 125 127 1.27 1 0 5slide 5slide empty 0 -9 0 12 #ffffff #000000 #000000 0 1;
#X obj 364 496 vsl 19 125 1.27 127 1 0 6slide 6slide size 0 -5 0 5 #ffffff #000000 #000000 0 1;
#X obj 334 689 vsl 19 125 1.27 127 1 0 7slide 7slide opacity 0 -5 0 5 #ffffff #000000 #000000 0 1;
#X obj 366 689 vsl 19 125 1.27 127 1 0 8slide 8slide empty 0 -9 0 12 #ffffff #000000 #000000 0 1;
#X obj 20 179 tgl 25 0 a-1 a-1 on/off 0 -10 0 12 #00ff04 #000000 #000000 0 1;
#X obj 64 186 tgl 19 0 s-1 s-1 fill 0 -5 0 8 #00faff #000000 #000000 0 1;
#X obj 95 186 tgl 19 0 r-1 r-1 point 0 -5 0 8 #ffc7c6 #000000 #000000 0 1;
#X obj 394 182 tgl 25 0 a-2 a-2 on/off 0 -10 0 12 #00ff04 #000000 #000000 0 1;
#X obj 441 188 tgl 19 0 s-2 s-2 fill 0 -5 0 8 #00faff #000000 #000000 0 1;
#X obj 474 188 tgl 19 0 r-2 r-2 point 0 -5 0 8 #ffc7c6 #000000 #000000 0 1;
#X obj 26 338 tgl 25 0 a-3 a-3 on/off 0 -10 0 12 #00ff04 #000000 #000000 0 1;
#X obj 66 346 tgl 19 0 s-3 s-3 fill 0 -5 0 8 #00faff #000000 #000000 0 1;
#X obj 100 345 tgl 19 0 r-3 r-3 smooth 0 -5 0 8 #ffc7c6 #000000 #000000 0 1;
#X obj 396 342 tgl 25 0 a-4 a-4 on/off 0 -10 0 12 #00ff04 #000000 #000000 0 1;
#X obj 445 348 tgl 19 0 s-4 s-4 fill 0 -5 0 8 #00faff #000000 #000000 0 1;
#X obj 478 349 tgl 19 0 r-4 r-4 point 0 -5 0 8 #ffc7c6 #000000 #000000 0 1;
#X obj 16 503 tgl 25 0 a-5 a-5 on/off 0 -10 0 12 #00ff04 #000000 #000000 0 1;
#X obj 63 511 tgl 19 0 s-5 s-5 fill 0 -5 0 8 #00faff #000000 #000000 0 1;
#X obj 98 512 tgl 19 0 r-5 r-5 point 0 -5 0 8 #ffc7c6 #000000 #000000 0 1;
#X obj 399 504 tgl 25 0 a-6 a-6 on/off 0 -10 0 12 #00ff04 #000000 #000000 0 1;
#X obj 446 510 tgl 19 0 s-6 s-6 fill 0 -5 0 8 #00faff #000000 #000000 0 1;
#X obj 477 510 tgl 19 0 r-6 r-6 point 0 -5 0 8 #ffc7c6 #000000 #000000 0 1;
#X obj 17 698 tgl 25 0 a-7 a-7 on/off 0 -10 0 12 #00ff04 #000000 #000000 0 1;
#X obj 62 704 tgl 19 0 s-7 s-7 puzzle 0 -5 0 8 #00faff #000000 #000000 0 1;
#X obj 101 704 tgl 19 0 r-7 r-7 puzzle2 0 -5 0 8 #ffc7c6 #000000 #000000 0 1;
#X obj 127 186 tgl 19 0 1-1 1-1 bounce 0 -5 0 8 #c6ffc7 #000000 #000000 0 1;
#X obj 163 186 bng 19 250 50 0 1-2 1-2 spin 0 -5 0 8 #c6ffc7 #000000 #000000;
#X obj 231 343 bng 19 250 50 0 3-1 3-1 Rst\ Clr 0 -10 0 8 #c6ffc7 #000000 #000000;
#X obj 269 343 bng 19 250 50 0 3-2 3-2 Pulse 0 -10 0 8 #c6ffc7 #000000 #000000;
#X obj 298 343 bng 19 250 50 0 3-3 3-3 Flip 0 -10 0 8 #c6ffc7 #000000 #000000;
#X obj 291 700 tgl 19 0 5-1 5-1 Rotate 0 -10 0 8 #c6ffc7 #000000 #000000 0 1;
#X obj 251 701 tgl 19 0 8-1 8-1 Flip\ Y 0 -10 0 8 #c6ffc7 #000000 #000000 0 1;
#X obj 213 702 tgl 19 0 8-2 8-2 FlipX 0 -10 0 8 #c6ffc7 #000000 #000000 0 1;
#X obj 12 210 cnv 19 310 90 empty empty empty 20 12 0 12 #000000 #404040 0;
#X obj 14 212 cnv 19 305 85 empty empty empty 20 12 0 12 #ffffff #404040 0;
#X obj 388 210 cnv 19 310 90 empty empty empty 20 12 0 12 #000000 #404040 0;
#X obj 390 212 cnv 19 305 85 empty empty empty 20 12 0 12 #ffffff #404040 0;
#X obj 15 369 cnv 19 310 90 empty empty empty 20 12 0 12 #000000 #404040 0;
#X obj 17 371 cnv 19 305 85 empty empty empty 20 12 0 12 #ffffff #404040 0;
#X obj 13 533 cnv 19 310 90 empty empty empty 20 12 0 12 #000000 #404040 0;
#X obj 15 535 cnv 19 305 85 empty empty empty 20 12 0 12 #ffffff #404040 0;
#X obj 15 727 cnv 19 310 90 empty empty empty 20 12 0 12 #000000 #404040 0;
#X obj 17 729 cnv 19 305 85 empty empty empty 20 12 0 12 #ffffff #404040 0;
#X obj 391 371 cnv 19 310 90 empty empty empty 20 12 0 12 #000000 #404040 0;
#X obj 393 373 cnv 19 305 85 empty empty empty 20 12 0 12 #ffffff #404040 0;
#X obj 393 533 cnv 19 310 90 empty empty empty 20 12 0 12 #000000 #404040 0;
#X obj 395 535 cnv 19 305 85 empty empty empty 20 12 0 12 #ffffff #404040 0;
#X obj 396 726 cnv 19 310 90 empty empty empty 20 12 0 12 #000000 #404040 0;
#X obj 398 728 cnv 19 305 85 empty empty empty 20 12 0 12 #ffffff #404040 0;
#X text 552 685 Track 8 FX;
#X obj 27 219 hsl 60 15 1 127 1 0 16-1 16-1 Feedback -2 25 0 10 #ffe3c6 #000000 #000000 0 1;
#X obj 101 219 hsl 60 15 0 127 0 0 17-1 17-1 Spread -2 25 0 10 #ffe3c6 #000000 #000000 0 1;
#X obj 173 219 hsl 60 15 0 127 0 0 18-1 18-1 Decay -2 25 0 10 #ffe3c6 #000000 #000000 0 1;
#X obj 245 219 hsl 60 15 0 127 0 0 19-1 19-1 ScaleZ -2 25 0 10 #ffe3c6 #000000 #000000 0 1;
#X obj 27 260 hsl 60 15 0 127 0 0 20-1 20-1 RotateX -2 25 0 10 #ffe3c6 #000000 #000000 0 1;
#X obj 101 260 hsl 60 15 0 127 0 0 21-1 21-1 RotateY -2 25 0 10 #ffe3c6 #000000 #000000 0 1;
#X obj 173 259 hsl 60 15 0 127 0 0 22-1 22-1 RotateZ -2 25 0 10 #ffe3c6 #000000 #000000 0 1;
#X obj 246 259 hsl 60 15 0 127 0 0 23-1 23-1 Vertex# -2 25 0 10 #ffe3c6 #000000 #000000 0 1;
#X obj 402 217 hsl 60 15 0 127 0 0 16-2 16-2 Feedback -2 25 0 10 #ffe3c6 #000000 #000000 0 1;
#X obj 476 218 hsl 60 15 1.27 127 1 0 17-2 17-2 Spread -2 25 0 10 #ffe3c6 #000000 #000000 0 1;
#X obj 548 218 hsl 60 15 0 127 0 0 18-2 18-2 Decay -2 25 0 10 #ffe3c6 #000000 #000000 0 1;
#X obj 620 218 hsl 60 15 0 127 0 0 19-2 19-2 ScaleZ -2 25 0 10 #ffe3c6 #000000 #000000 0 1;
#X obj 404 258 hsl 60 15 0 127 0 0 20-2 20-2 RotX -2 25 0 10 #ffe3c6 #000000 #000000 0 1;
#X obj 478 258 hsl 60 15 0 127 0 0 21-2 21-2 RotY -2 25 0 10 #ffe3c6 #000000 #000000 0 1;
#X obj 549 258 hsl 60 15 0 127 0 0 22-2 22-2 RotZ -2 25 0 10 #ffe3c6 #000000 #000000 0 1;
#X obj 620 257 hsl 60 15 0 127 0 0 23-2 23-2 Vertex# -2 25 0 10 #ffe3c6 #000000 #000000 0 1;
#X obj 27 376 hsl 60 15 0 127 0 0 16-3 16-3 Size -2 25 0 10 #ffe3c6 #000000 #000000 0 1;
#X obj 101 377 hsl 60 15 0 127 0 0 17-3 17-3 Cube -2 25 0 10 #ffe3c6 #000000 #000000 0 1;
#X obj 173 377 hsl 60 15 1.27 127 1 0 18-3 18-3 Decay -2 25 0 10 #ffe3c6 #000000 #000000 0 1;
#X obj 246 377 hsl 60 15 1.27 127 1 0 19-3 19-3 Deconstruct -2 25 0 10 #ffe3c6 #000000 #000000 0 1;
#X obj 29 421 hsl 60 15 0 127 0 0 20-3 20-3 RotX -2 25 0 10 #ffe3c6 #000000 #000000 0 1;
#X obj 102 421 hsl 60 15 0 127 0 0 21-3 21-3 RotY -2 25 0 10 #ffe3c6 #000000 #000000 0 1;
#X obj 174 421 hsl 60 15 0 127 0 0 22-3 22-3 RotZ -2 25 0 10 #ffe3c6 #000000 #000000 0 1;
#X obj 245 420 hsl 60 15 0 127 0 0 23-3 23-3 MetaImg -2 25 0 10 #ffe3c6 #000000 #000000 0 1;
#X obj 405 379 hsl 60 15 0 127 0 0 16-4 16-4 Amount -2 25 0 10 #ffe3c6 #000000 #000000 0 1;
#X obj 479 380 hsl 60 15 0 127 0 0 17-4 17-4 RotX -2 25 0 10 #ffe3c6 #000000 #000000 0 1;
#X obj 551 380 hsl 60 15 0 127 0 0 18-4 18-4 RotY -2 25 0 10 #ffe3c6 #000000 #000000 0 1;
#X obj 623 380 hsl 60 15 0 127 0 0 19-4 19-4 RotZ -2 25 0 10 #ffe3c6 #000000 #000000 0 1;
#X obj 25 541 hsl 60 15 0 5 0 0 16-5 16-5 Size -2 25 0 10 #ffe3c6 #000000 #000000 0 1;
#X obj 99 542 hsl 60 15 0 127 0 0 17-5 17-5 Spread -2 25 0 10 #ffe3c6 #000000 #000000 0 1;
#X obj 171 542 hsl 60 15 -1 1 0 0 18-5 18-5 RotSpeed -2 25 0 10 #ffe3c6 #000000 #000000 0 1;
#X obj 243 542 hsl 60 15 -4 0 0 0 19-5 19-5 Scale -2 25 0 10 #ffe3c6 #000000 #000000 0 1;
#X obj 27 584 hsl 60 15 0 127 0 0 20-5 20-5 Number -2 25 0 10 #ffe3c6 #000000 #000000 0 1;
#X obj 101 585 hsl 60 15 0 127 0 0 21-5 21-5 ShiftY -2 25 0 10 #ffe3c6 #000000 #000000 0 1;
#X obj 173 585 hsl 60 15 0 127 0 0 22-5 22-5 ShiftX -2 25 0 10 #ffe3c6 #000000 #000000 0 1;
#X obj 243 585 hsl 60 15 1.27 127 1 0 23-5 23-5 Vertex# -2 25 0 10 #ffe3c6 #000000 #000000 0 1;
#X obj 405 541 hsl 60 15 1.27 127 1 0 16-6 16-6 empty -2 -10 0 12 #ffe3c6 #000000 #000000 0 1;
#X obj 480 541 hsl 60 15 0 127 0 0 20-6 20-6 empty -2 -10 0 12 #ffe3c6 #000000 #000000 0 1;
#X obj 554 541 hsl 60 15 0 127 0 0 21-6 21-6 empty -2 -10 0 12 #ffe3c6 #000000 #000000 0 1;
#X obj 633 540 hsl 60 15 0 127 0 0 22-6 22-6 empty -2 -10 0 12 #ffe3c6 #000000 #000000 0 1;
#X text 505 558 rotX;
#X text 578 555 rotY;
#X text 657 555 rotZ;
#X obj 27 734 hsl 60 15 0 127 0 0 16-7 16-7 Size -2 25 0 10 #ffe3c6 #000000 #000000 0 1;
#X obj 101 735 hsl 60 15 0 127 0 0 17-7 17-7 Segments -2 25 0 10 #ffe3c6 #000000 #000000 0 1;
#X obj 173 735 hsl 60 15 0 127 0 0 18-7 18-7 Angin -2 25 0 10 #ffe3c6 #000000 #000000 0 1;
#X obj 245 735 hsl 60 15 0 127 0 0 19-7 19-7 Angin2 -2 25 0 10 #ffe3c6 #000000 #000000 0 1;
#X obj 29 780 hsl 60 15 0 127 0 0 20-7 20-7 AngOut -2 25 0 10 #ffe3c6 #000000 #000000 0 1;
#X obj 103 780 hsl 60 15 0 127 0 0 21-7 21-7 AngOut2 -2 25 0 10 #ffe3c6 #000000 #000000 0 1;
#X obj 174 780 hsl 60 15 0 127 0 0 22-7 22-7 RLP -2 25 0 10 #ffe3c6 #000000 #000000 0 1;
#X obj 245 779 hsl 60 15 0 127 0 0 23-7 23-7 Sap -2 25 0 10 #ffe3c6 #000000 #000000 0 1;
#X obj 409 736 hsl 60 15 0 127 0 0 16-8 16-8 SizeX -2 25 0 10 #ffe3c6 #000000 #000000 0 1;
#X obj 488 736 hsl 60 15 0 127 0 0 17-8 17-8 SizeY -2 25 0 10 #ffe3c6 #000000 #000000 0 1;
#X obj 509 191 hradio 15 1 0 5 2pad 2pad Particle\ Domain 0 -5 0 6 #c6ffc7 #000000 #000000 0;
#X text 121 659 Track 7 IMAGE;
#X text 120 145 TRACK 1 SPHERE;
#X text 127 310 TRACK 3 WEBCAM;
#X text 536 506 TRACK 6 WAVE;
#X text 514 150 TRACK 2 PARTICLES;
#X text 141 511 TRACK 5 PARTICLES;
#X text 522 345 TRACK 4 RIPPLE;
#X obj 244 664 hradio 15 1 0 4 7pad 7pad Img\ Select 0 -10 0 6 #c6ffc7 #000000 #000000 0;
#X obj 642 839 gem-window;
#X obj 43 86 cnv 19 20 20 empty empty empty 20 12 0 12 #00ff04 #404040 0;
#X obj 63 86 cnv 19 20 20 empty empty empty 20 12 0 12 #0400ff #404040 0;
#X obj 82 86 cnv 19 20 20 empty empty empty 20 12 0 12 #faff00 #404040 0;
#X obj 101 86 cnv 19 20 20 empty empty empty 20 12 0 12 #ffc7c6 #404040 0;
#X obj 120 86 cnv 19 20 20 empty empty empty 20 12 0 12 #c6feff #404040 0;
#X obj 158 86 cnv 19 20 20 empty empty empty 20 12 0 12 #9f9f9f #404040 0;
#X obj 25 83 hradio 19 1 0 9 empty 54-1 Colour\ Selector 0 -5 0 12 #ffffff #000000 #000000 0;
#X text 214 71 Webcam Colour;
#X text 431 556 scale;
#X text 544 700 DSP must be ON;
#X obj 13 863 hradio 14 1 0 8 empty empty empty 0 -10 0 12 #fcfcfc #000000 #000000 0;
#X obj 12 840 gui-track-control;
#X obj 138 840 gui-pad-control;
#X obj 249 840 gui-transport-control;
#X obj 402 840 gui-stop-control;
#X obj 523 839 gui-knob-control;
#X obj 218 93 hsl 30 10 0 127 0 0 48-1 48-1 empty -2 -10 0 12 #ffc7c6 #000000 #000000 0 1;
#X obj 254 93 hsl 30 10 0 127 0 0 49-1 49-1 empty -2 -10 0 12 #c6ffc7 #000000 #000000 0 1;
#X obj 291 93 hsl 30 10 0 127 0 0 50-1 50-1 empty -2 -10 0 12 #c7c6ff #000000 #000000 0 1;
#X text 227 89 R;
#X text 269 89 G;
#X text 306 89 B;
#X obj 347 92 hsl 30 10 0 127 0 0 55-1 55-1 colour-speed -2 -10 0 8 #ffffff #000000 #000000 0 1;
#X obj 292 238 tgl 10 0 1-4 1-4 empty 0 -10 0 8 #e3c6ff #000000 #000000 0 1;
#X obj 333 305 tgl 10 0 1-5 1-5 empty 0 -10 0 8 #e3c6ff #000000 #000000 0 1;
#X obj 223 278 tgl 10 0 1-3 1-3 empty 0 -10 0 8 #e3c6ff #000000 #000000 0 1;
#X obj 145 237 tgl 10 0 1-dcy-dsp empty empty 0 -10 0 8 #e3c6ff #000000 #000000 0 1;
#X obj 133 396 tgl 10 0 3-5 3-5 empty 0 -10 0 8 #e3c6ff #000000 #000000 0 1;
#X obj 296 440 tgl 10 0 3-4 3-4 empty 0 -10 0 8 #e3c6ff #000000 #000000 0 1;
#X obj 76 753 tgl 10 0 7-5 7-5 empty 0 -10 0 8 #e3c6ff #000000 #000000 0 1;
#X obj 279 797 tgl 10 0 8-4 8-4 empty 0 -10 0 8 #e3c6ff #000000 #000000 0 1;
#X obj 211 798 tgl 10 0 8-3 8-3 empty 0 -10 0 8 #e3c6ff #000000 #000000 0 1;
#X obj 217 755 tgl 10 0 8-5 8-5 empty 0 -10 0 8 #e3c6ff #000000 #000000 0 1;
#X obj 650 434 bng 19 250 50 0 4-1 4-1 Ripple 0 -5 0 8 #c6ffc7 #000000 #000000;
#X obj 605 434 bng 19 250 50 0 4-4 4-4 FlipY 0 -5 0 8 #c6ffc7 #000000 #000000;
#X obj 550 434 bng 19 250 50 0 4-5 4-5 Flip\ X 0 -5 0 8 #c6ffc7 #000000 #000000;
#X obj 431 433 tgl 19 0 4-2 4-2 Width 0 -5 0 8 #c6ffc7 #000000 #000000 0 1;
#X obj 494 433 tgl 19 0 4-3 4-3 Height 0 -5 0 8 #c6ffc7 #000000 #000000 0 1;
#X obj 434 591 bng 19 250 50 0 6-1 6-1 Noise1 0 -10 0 8 #c6ffc7 #000000 #000000;
#X obj 484 591 bng 19 250 50 0 6-2 6-2 Noise2 0 -10 0 8 #c6ffc7 #000000 #000000;
#X obj 534 591 bng 19 250 50 0 6-3 6-3 Noise3 0 -10 0 8 #c6ffc7 #000000 #000000;
#X obj 582 592 bng 19 250 50 0 6-4 6-4 Noise4 0 -10 0 8 #c6ffc7 #000000 #000000;
#X obj 635 592 bng 19 250 50 0 6-5 6-5 Wave 0 -10 0 8 #c6ffc7 #000000 #000000;
#X obj 494 789 tgl 19 0 5-2 5-2 Rotate 0 -5 0 8 #c6ffc7 #000000 #000000 0 1;
#X obj 438 789 tgl 19 0 5-3 5-3 Flip 0 -5 0 8 #c6ffc7 #000000 #000000 0 1;
#X obj 545 789 bng 19 250 50 0 cs8 cs8 noise 0 -5 0 8 #c6ffc7 #000000 #000000;
#X obj 140 861 gui-activator-control;
#X obj 276 507 track9;
#X connect 22 1 23 0;
#X connect 159 0 22 0;
