#N canvas 0 25 1024 728 10;
#X obj 306 337 timer;
#X obj 303 208 f;
#X obj 334 208 + 1;
#X obj 347 267 sel 3;
#X msg 346 177 0;
#X obj 294 267 moses 1;
#X obj 294 303 bang;
#X obj 333 310 bang;
#X obj 300 381 f;
#X obj 333 382 +;
#X obj 306 359 t b f;
#X obj 367 358 == 3;
#X obj 301 427 spigot;
#X obj 300 406 /;
#X obj 303 229 t f f f;
#X obj 302 161 bng 15 250 50 0 empty empty empty 17 7 0 10 #fcfcfc #000000 #000000;
#X floatatom 311 486 5 0 0 0 - - - 0;
#X obj 286 570 metro;
#X obj 311 639 bng 16 250 50 0 empty empty empty 0 -8 0 10 #fcfcfc #000000 #000000;
#X obj 225 473 loadbang;
#X obj 302 132 spigot;
#X msg 348 109 1;
#X msg 382 109 0;
#X obj 303 56 notein;
#X obj 303 82 sel 99;
#X obj 355 82 sel 1;
#X obj 308 673 outlet;
#X connect 0 0 10 0;
#X connect 1 0 2 0;
#X connect 1 0 14 0;
#X connect 2 0 1 1;
#X connect 3 0 4 0;
#X connect 4 0 1 1;
#X connect 4 0 9 1;
#X connect 5 0 6 0;
#X connect 5 1 7 0;
#X connect 6 0 0 0;
#X connect 7 0 0 1;
#X connect 7 0 0 0;
#X connect 8 0 9 1;
#X connect 8 0 13 0;
#X connect 9 0 8 1;
#X connect 10 0 8 0;
#X connect 10 1 9 0;
#X connect 11 0 12 1;
#X connect 12 0 16 0;
#X connect 13 0 12 0;
#X connect 14 0 3 0;
#X connect 14 1 5 0;
#X connect 14 2 11 0;
#X connect 14 2 13 1;
#X connect 15 0 1 0;
#X connect 16 0 17 1;
#X connect 17 0 18 0;
#X connect 18 0 26 0;
#X connect 19 0 17 0;
#X connect 20 0 15 0;
#X connect 21 0 20 1;
#X connect 22 0 20 1;
#X connect 23 0 24 0;
#X connect 23 2 25 0;
#X connect 24 0 20 0;
#X connect 25 0 21 0;
#X connect 25 1 22 0;
