#N canvas 15 32 661 757 12;
#X obj 242 120 gemhead;
#X obj 243 237 t a a;
#X obj 243 286 depth;
#X obj 243 436 t a b;
#X obj 243 595 colorRGB;
#X obj 243 687 sphere;
#X obj 243 631 alpha;
#X obj 243 711 t a b;
#X obj 124 760 spigot;
#X obj 288 733 f;
#X obj 243 346 scaleXYZ 1 1 1;
#X msg 105 476 \$1 125;
#X obj 105 500 line;
#X obj 105 406 r index;
#X obj 105 430 / 6;
#X obj 105 452 + 0.1;
#X obj 75 177 index;
#X msg 347 724 2;
#X obj 400 649 * 0.01;
#X obj 243 207 translateXYZ 0 0 0;
#X obj 288 757 + 1;
#X obj 288 781 mod 30;
#X obj 243 522 translateXYZ 0.5 0 0;
#X obj 376 570 tgl 19 0 empty empty empty 0 -10 0 12 #fcfcfc #000000 #000000 0 1;
#X obj 242 88 tgl 19 0 empty empty empty 0 -10 0 12 #fcfcfc #000000 #000000 0 1;
#X floatatom 292 170 5 0 0 0 - - - 0;
#X floatatom 338 170 5 0 0 0 - - - 0;
#X floatatom 379 169 5 0 0 0 - - - 0;
#X floatatom 294 304 5 0 0 0 - - - 0;
#X floatatom 340 304 5 0 0 0 - - - 0;
#X floatatom 381 303 5 0 0 0 - - - 0;
#X floatatom 285 382 5 0 0 0 - - - 0;
#X floatatom 331 382 5 0 0 0 - - - 0;
#X floatatom 372 381 5 0 0 0 - - - 0;
#X floatatom 283 466 5 0 0 0 - - - 0;
#X floatatom 329 466 5 0 0 0 - - - 0;
#X floatatom 370 465 5 0 0 0 - - - 0;
#X obj 243 498 rotateXYZ 0 0 16;
#X obj 243 412 translateXYZ 0 -2 0;
#X connect 0 0 19 0;
#X connect 1 0 2 0;
#X connect 2 0 10 0;
#X connect 3 0 37 0;
#X connect 4 0 6 0;
#X connect 5 0 7 0;
#X connect 6 0 5 0;
#X connect 7 0 8 0;
#X connect 7 1 9 0;
#X connect 8 0 37 0;
#X connect 9 0 20 0;
#X connect 10 0 38 0;
#X connect 11 0 12 0;
#X connect 12 0 5 1;
#X connect 12 0 4 4;
#X connect 13 0 14 0;
#X connect 14 0 15 0;
#X connect 15 0 11 0;
#X connect 17 0 21 1;
#X connect 18 0 4 2;
#X connect 19 0 1 0;
#X connect 20 0 21 0;
#X connect 21 0 8 1;
#X connect 21 0 18 0;
#X connect 22 0 4 0;
#X connect 23 0 6 1;
#X connect 24 0 0 0;
#X connect 25 0 19 1;
#X connect 26 0 19 2;
#X connect 27 0 19 3;
#X connect 28 0 10 1;
#X connect 29 0 10 2;
#X connect 30 0 10 3;
#X connect 31 0 38 1;
#X connect 32 0 38 2;
#X connect 33 0 38 3;
#X connect 34 0 37 1;
#X connect 35 0 37 2;
#X connect 36 0 37 3;
#X connect 37 0 22 0;
#X connect 38 0 3 0;
