#N canvas 686 101 648 771 12;
#X obj 500 449 part_velocity;
#X obj 545 419 r domain;
#X obj 612 419 r arg;
#X obj 717 196 domains;
#X obj 717 146 hradio 40 1 0 6 empty empty empty 0 -10 0 12 #ffe3c6 #000000 #000000 0;
#X obj 501 287 alpha;
#X obj 500 326 part_head;
#X obj 879 946 part_render;
#X obj 500 353 part_size 5;
#X obj 500 381 part_source 20;
#X obj 501 196 tgl 19 0 empty a-5 empty 0 -10 0 12 #ffc7c6 #000000 #000000 0 1;
#X obj 533 251 tgl 19 0 empty empty empty 0 -10 0 12 #feffc6 #000000 #000000 0 1;
#X obj 927 1211 scaleXYZ;
#X floatatom 924 1179 5 0 1.5 0 - - - 0;
#X floatatom 966 1179 5 0 1.5 0 - - - 0;
#X floatatom 1007 1180 5 0 1.5 0 - - - 0;
#X msg 1082 1162 0;
#X obj 924 1136 hsl 162 19 0 2.5 0 0 empty empty empty -2 -10 0 12 #c6ffc7 #000000 #000000 0 1;
#X msg 745 1221 draw line;
#X msg 648 1220 draw fill;
#X msg 543 1221 draw point;
#X msg 750 540 0.1;
#X obj 595 352 pack f f f f;
#X floatatom 595 330 2 0 0 0 - - - 0;
#X floatatom 622 331 2 0 0 0 - - - 0;
#X floatatom 649 331 2 0 0 0 - - - 0;
#X obj 595 308 metro 100;
#X obj 594 286 tgl 19 0 empty empty empty 0 -10 0 12 #fcfcfc #000000 #000000 0 1;
#X floatatom 717 312 5 0 0 0 - - - 0;
#X obj 594 263 loadbang;
#X obj 717 287 / 10;
#X obj 1158 1139 loadbang;
#X msg 1158 1163 0.05;
#X obj 922 110 r d5;
#X obj 919 1058 / 127;
#X obj 920 1113 + 0.01;
#X obj 919 1087 * 2.5;
#X floatatom 1057 897 5 1 100 0 - - - 0;
#X obj 1058 803 + 1;
#X obj 1058 828 * 1;
#X obj 886 910 part_killold 100;
#X obj 682 480 loadbang;
#X obj 500 569 part_targetcolor 0 1 1 0.05;
#X msg 657 532 1 1 0;
#X obj 1065 574 part_color;
#X obj 1165 522 loadbang;
#X msg 1203 549 1 1 1;
#X msg 1133 548 1 1 0;
#X obj 1151 439 colour-selector;
#X obj 1272 467 hradio 19 1 0 8 empty empty empty 0 -10 0 12 #00ff04 #000000 #000000 0;
#X obj 927 1258 square 0.5;
#X obj 721 109 r d5;
#X obj 761 109 r d6;
#X obj 802 109 r d7;
#X obj 843 109 r d8;
#X obj 882 109 r d9;
#X obj 700 756 part_gravity;
#X msg 852 682 0 0.01 0;
#X msg 782 682 0 -0.01 0;
#X msg 926 682 0 0 0;
#X obj 501 225 gemhead 5;
#X floatatom 705 247 5 0 0 0 - 17-5 - 0;
#X obj 1148 341 hradio 19 1 0 8 empty colour empty 0 -10 0 12 #fcfcfc #000000 #000000 0;
#X floatatom 1056 753 5 0 0 0 - 18-5 - 0;
#X floatatom 923 1025 5 0 0 0 - 5slide - 0;
#X obj 712 1100 loadbang;
#X obj 613 1076 tgl 19 0 empty s-5 empty 0 -10 0 12 #00faff #000000 #000000 0 1;
#X obj 687 1078 sel 0;
#X obj 613 1101 sel 1;
#X obj 527 1074 tgl 19 0 empty r-5 empty 0 -10 0 12 #ff0400 #000000 #000000 0 1;
#X obj 527 1099 sel 1;
#X floatatom 395 354 5 0 0 0 - 16-5 - 0;
#X obj 395 377 + 0.1;
#X connect 0 0 42 0;
#X connect 1 0 0 1;
#X connect 2 0 0 2;
#X connect 4 0 3 0;
#X connect 5 0 6 0;
#X connect 6 0 8 0;
#X connect 7 0 12 0;
#X connect 8 0 9 0;
#X connect 9 0 0 0;
#X connect 10 0 60 0;
#X connect 11 0 5 1;
#X connect 12 0 50 0;
#X connect 13 0 12 1;
#X connect 14 0 12 2;
#X connect 15 0 12 3;
#X connect 16 0 15 0;
#X connect 16 0 14 0;
#X connect 16 0 13 0;
#X connect 17 0 15 0;
#X connect 17 0 14 0;
#X connect 17 0 13 0;
#X connect 18 0 50 0;
#X connect 19 0 50 0;
#X connect 20 0 50 0;
#X connect 21 0 42 2;
#X connect 22 0 9 3;
#X connect 23 0 22 0;
#X connect 24 0 22 1;
#X connect 25 0 22 2;
#X connect 26 0 22 0;
#X connect 27 0 26 0;
#X connect 28 0 22 3;
#X connect 29 0 27 0;
#X connect 30 0 28 0;
#X connect 31 0 32 0;
#X connect 32 0 15 0;
#X connect 32 0 14 0;
#X connect 32 0 13 0;
#X connect 34 0 36 0;
#X connect 35 0 17 0;
#X connect 36 0 35 0;
#X connect 37 0 40 1;
#X connect 38 0 39 0;
#X connect 39 0 37 0;
#X connect 40 0 7 0;
#X connect 41 0 43 0;
#X connect 41 0 21 0;
#X connect 42 0 56 0;
#X connect 43 0 42 1;
#X connect 45 0 46 0;
#X connect 45 0 47 0;
#X connect 46 0 44 2;
#X connect 47 0 44 1;
#X connect 48 0 44 1;
#X connect 48 0 42 1;
#X connect 48 1 49 0;
#X connect 51 0 4 0;
#X connect 52 0 4 0;
#X connect 53 0 4 0;
#X connect 54 0 4 0;
#X connect 55 0 4 0;
#X connect 56 0 40 0;
#X connect 57 0 56 1;
#X connect 58 0 56 1;
#X connect 59 0 56 1;
#X connect 60 0 5 0;
#X connect 61 0 30 0;
#X connect 62 0 48 0;
#X connect 63 0 38 0;
#X connect 64 0 34 0;
#X connect 65 0 18 0;
#X connect 66 0 67 0;
#X connect 66 0 68 0;
#X connect 67 0 18 0;
#X connect 68 0 19 0;
#X connect 69 0 70 0;
#X connect 69 0 67 0;
#X connect 70 0 20 0;
#X connect 71 0 72 0;
#X connect 72 0 9 1;
