#N canvas 696 101 744 771 12;
#X obj 434 207 tgl 19 0 empty a-6 empty 0 -10 0 12 #ffc7c6 #000000 #000000 0 1;
#X obj 509 238 tgl 19 0 empty empty empty 0 -10 0 12 #feffc6 #000000 #000000 0 1;
#X obj 434 257 alpha;
#X msg 332 970 draw line;
#X obj 356 946 loadbang;
#X floatatom 496 645 4 0 360 0 - - - 0;
#X floatatom 532 644 4 0 360 0 - - - 0;
#X floatatom 454 644 5 0 0 0 - - - 0;
#X obj 435 669 rotateXYZ;
#X obj 434 748 scaleXYZ;
#X floatatom 502 727 2 1 5 0 - - - 0;
#X floatatom 574 731 5 -2 10 0 - - - 0;
#X floatatom 472 726 2 1 5 0 - - - 0;
#X msg 558 690 1;
#X obj 1052 445 hsl 162 19 -2 10 0 0 empty empty empty -2 -10 0 12 #c6ffc7 #000000 #000000 0 1;
#X msg 206 967 draw fill;
#X obj 207 866 tgl 19 0 empty s-6 empty 0 -10 0 12 #c6ffc7 #000000 #000000 0 1;
#X obj 331 924 sel 0;
#X obj 207 891 sel 1;
#X obj 206 946 bng 19 250 50 0 empty empty empty 0 -10 0 12 #fcfcfc #000000 #000000;
#X obj 332 945 bng 19 250 50 0 empty empty empty 0 -10 0 12 #fcfcfc #000000 #000000;
#X obj 863 444 hsl 162 19 3 38 0 0 empty empty empty -2 -10 0 12 #c6ffc7 #000000 #000000 0 1;
#X obj 79 866 tgl 19 0 empty r-6 empty 0 -10 0 12 #c6ffc7 #000000 #000000 0 1;
#X obj 79 891 sel 1;
#X obj 78 946 bng 19 250 50 0 empty empty empty 0 -10 0 12 #fcfcfc #000000 #000000;
#X msg 78 967 draw point;
#X obj 820 880 bng 19 250 50 0 empty 6-1 empty 0 -10 0 12 #fcfcfc #000000 #000000;
#X obj 432 384 color;
#X floatatom 962 588 5 0 0 0 - - - 0;
#X obj 965 634 hsl 162 19 3 38 0 0 empty empty empty -2 -10 0 12 #c6ffc7 #000000 #000000 0 1;
#X obj 962 564 / 3;
#X obj 962 610 + 0.5;
#X floatatom 963 665 5 0 0 0 - - - 0;
#X obj 1049 398 / 127;
#X obj 1049 421 * 180;
#X obj 860 388 / 127;
#X obj 860 420 * 180;
#X obj 1239 446 hsl 162 19 -2 10 0 0 empty empty empty -2 -10 0 12 #c6ffc7 #000000 #000000 0 1;
#X obj 1236 397 / 127;
#X obj 1236 420 * 180;
#X obj 434 231 gemhead 6;
#X obj 504 336 colour-selector;
#X floatatom 540 1534 5 0 0 2 size - - 0;
#X floatatom 541 1563 5 0 0 2 height - - 0;
#X obj 513 1342 vradio 11 1 0 11 empty empty action -10 -6 0 8 #fcfcfc #000000 #000000 0;
#X floatatom 574 1246 5 0 100 0 - - - 0;
#X msg 574 1283 K1 \$1;
#X obj 430 1364 t a b;
#X floatatom 574 1306 5 0 100 0 - - - 0;
#X obj 574 1324 / 100;
#X floatatom 574 1366 5 0 100 0 - - - 0;
#X obj 574 1384 / 100;
#X floatatom 624 1246 5 0 100 0 - - - 0;
#X obj 624 1264 / 100;
#X floatatom 624 1306 5 0 100 0 - - - 0;
#X obj 624 1324 / 100;
#X floatatom 624 1366 5 0 100 0 - - - 0;
#X obj 624 1384 / 100;
#X msg 624 1283 D1 \$1;
#X msg 624 1343 D2 \$1;
#X msg 624 1403 D3 \$1;
#X msg 574 1403 K3 \$1;
#X msg 574 1343 K2 \$1;
#X obj 543 1360 t a;
#X obj 543 1300 t a;
#X obj 543 1420 t a;
#X msg 538 1452 position 1 1 10;
#X msg 540 1502 noise 1;
#X obj 441 1582 newWave 30 10;
#X msg 539 1477 force 15 5 -0.5;
#X obj 574 1264 / 10;
#X obj 1062 493 * -1;
#X obj 883 880 bng 19 250 50 0 empty 6-2 empty 0 -10 0 12 #fcfcfc #000000 #000000;
#X msg 883 904 noise 2;
#X obj 969 876 bng 19 250 50 0 empty 6-3 empty 0 -10 0 12 #fcfcfc #000000 #000000;
#X msg 969 900 noise 3;
#X obj 1045 877 bng 19 250 50 0 empty 6-4 empty 0 -10 0 12 #fcfcfc #000000 #000000;
#X msg 1045 901 noise 4;
#X msg 483 1227 texture 10;
#X msg 525 1186 texture 1;
#X obj 623 238 loadbang;
#X msg 623 262 1;
#X obj 568 182 loadbang;
#X obj 630 1021 bng 19 250 50 0 empty 6-5 empty 0 -10 0 12 #fcfcfc #000000 #000000;
#X obj 816 839 bng 19 250 50 0 empty bar empty 0 -10 0 12 #fcfcfc #000000 #000000;
#X floatatom 1007 543 5 0 0 0 - 6slide - 0;
#X floatatom 865 352 5 0 0 0 - 20-6 - 0;
#X floatatom 1048 358 5 0 0 0 - 21-6 - 0;
#X floatatom 1233 363 5 0 0 0 - 22-6 - 0;
#X floatatom 661 738 5 0 0 0 - 16-6 - 0;
#X obj 661 761 + 1;
#X obj 504 301 hradio 19 1 0 8 empty colour empty 0 -10 0 12 #fcfcfc #000000 #000000 0;
#X connect 0 0 40 0;
#X connect 1 0 2 0;
#X connect 2 0 27 0;
#X connect 3 0 68 0;
#X connect 4 0 3 0;
#X connect 5 0 8 2;
#X connect 6 0 8 3;
#X connect 7 0 8 1;
#X connect 8 0 9 0;
#X connect 9 0 47 0;
#X connect 10 0 9 2;
#X connect 11 0 9 3;
#X connect 12 0 9 1;
#X connect 13 0 12 0;
#X connect 13 0 10 0;
#X connect 13 0 11 0;
#X connect 14 0 5 0;
#X connect 15 0 68 0;
#X connect 16 0 17 0;
#X connect 16 0 18 0;
#X connect 17 0 20 0;
#X connect 18 0 19 0;
#X connect 19 0 15 0;
#X connect 20 0 3 0;
#X connect 21 0 7 0;
#X connect 22 0 23 0;
#X connect 22 0 17 0;
#X connect 23 0 24 0;
#X connect 24 0 25 0;
#X connect 25 0 68 0;
#X connect 26 0 67 0;
#X connect 27 0 8 0;
#X connect 28 0 31 0;
#X connect 29 0 32 0;
#X connect 30 0 28 0;
#X connect 31 0 29 0;
#X connect 32 0 12 0;
#X connect 32 0 10 0;
#X connect 33 0 34 0;
#X connect 34 0 14 0;
#X connect 35 0 36 0;
#X connect 36 0 21 0;
#X connect 37 0 71 0;
#X connect 38 0 39 0;
#X connect 39 0 37 0;
#X connect 40 0 2 0;
#X connect 41 0 27 1;
#X connect 42 0 68 1;
#X connect 43 0 68 2;
#X connect 44 0 68 3;
#X connect 45 0 70 0;
#X connect 46 0 64 0;
#X connect 47 0 68 0;
#X connect 47 1 68 0;
#X connect 48 0 49 0;
#X connect 49 0 62 0;
#X connect 50 0 51 0;
#X connect 51 0 61 0;
#X connect 52 0 53 0;
#X connect 53 0 58 0;
#X connect 54 0 55 0;
#X connect 55 0 59 0;
#X connect 56 0 57 0;
#X connect 57 0 60 0;
#X connect 58 0 64 0;
#X connect 59 0 63 0;
#X connect 60 0 65 0;
#X connect 61 0 65 0;
#X connect 62 0 63 0;
#X connect 63 0 65 0;
#X connect 64 0 63 0;
#X connect 65 0 68 0;
#X connect 66 0 68 0;
#X connect 67 0 68 0;
#X connect 69 0 68 0;
#X connect 70 0 46 0;
#X connect 71 0 6 0;
#X connect 72 0 73 0;
#X connect 73 0 68 0;
#X connect 74 0 75 0;
#X connect 75 0 68 0;
#X connect 76 0 77 0;
#X connect 77 0 68 0;
#X connect 78 0 68 0;
#X connect 79 0 68 0;
#X connect 80 0 81 0;
#X connect 81 0 2 1;
#X connect 82 0 1 0;
#X connect 83 0 44 0;
#X connect 84 0 26 0;
#X connect 85 0 30 0;
#X connect 86 0 35 0;
#X connect 87 0 33 0;
#X connect 88 0 38 0;
#X connect 89 0 90 0;
#X connect 90 0 11 0;
#X connect 91 0 41 0;
