#N canvas 83 25 815 847 12;
#X obj 451 101 tgl 19 0 empty a-1 on/off 0 -10 0 12 #ffc7c6 #000000 #000000 0 1;
#X obj 448 246 part_head;
#X obj 446 743 part_render;
#X obj 449 298 part_size 5;
#X obj 700 251 line;
#X obj 446 589 part_color;
#X obj 632 531 loadbang;
#X obj 448 450 part_source 20;
#X obj 543 426 pack f f f f;
#X obj 542 360 tgl 19 0 empty empty empty 0 -10 0 12 #fcfcfc #000000 #000000 0 1;
#X obj 555 657 + 1;
#X obj 542 337 loadbang;
#X obj 556 125 tgl 19 0 empty empty empty 0 -10 0 12 #feffc6 #000000 #000000 0 1;
#X obj 449 195 alpha;
#X msg 670 558 1 1 1;
#X obj 624 400 / 10;
#X msg 355 1459 draw line;
#X obj 379 1435 loadbang;
#X msg 548 926 0;
#X obj 500 1437 hradio 19 1 0 3 empty empty empty 0 -10 0 12 #fcfcfc #000000 #000000 0;
#X obj 501 1459 + 1;
#X obj 449 1051 rotateXYZ;
#X obj 446 1261 scaleXYZ;
#X msg 501 1415 0;
#X obj 501 1394 loadbang;
#X obj 1001 1160 / 12;
#X msg 280 1460 draw fill;
#X obj 280 1411 tgl 19 0 empty s-1 empty 0 -10 0 12 #00faff #000000 #000000 0 1;
#X obj 354 1413 sel 0;
#X obj 280 1436 sel 1;
#X obj 447 1501 sphere;
#X obj 640 1439 / 3;
#X obj 640 1461 + 0.5;
#X obj 554 891 bng 19 250 50 0 empty cs1 empty 0 -10 0 12 #c7c6ff #000000 #000000;
#X obj 194 1409 tgl 19 0 empty r-1 empty 0 -10 0 12 #ff0400 #000000 #000000 0 1;
#X obj 194 1434 sel 1;
#X msg 194 1459 draw point;
#X obj 846 139 / 127;
#X obj 700 206 +;
#X msg 600 557 1 1 0;
#X obj 482 531 colour-selector;
#X text 549 841 Track 1 Clip Stop - Reset Rotation, f 12;
#X obj 699 112 tgl 19 0 empty bar-tgl empty 0 -10 0 12 #c6feff #000000 #000000 0 1;
#X obj 1223 714 tgl 19 0 empty 1-4 Pad\ 1-4\ ScaleZ 0 -10 0 12 #c6ffc7 #000000 #000000 0 1;
#X obj 893 741 adc~;
#X obj 933 743 tgl 19 0 empty 1-3 pad\ 1-3\ SIZE 0 -10 0 12 #c6ffc7 #000000 #000000 0 1;
#X obj 1031 700 adc~;
#X obj 1068 801 tgl 19 0 empty 1-5 pad\ 1-5\ SPIN 0 -10 0 12 #c6ffc7 #000000 #000000 0 1;
#X msg 880 1158 0.5;
#X obj 607 23 loadbang;
#X floatatom 623 118 5 0 0 0 - - - 0;
#X obj 893 767 *~;
#X obj 962 749 loadbang;
#X obj 1181 714 adc~;
#X obj 1181 747 *~;
#X obj 1033 887 env~;
#X obj 1191 771 loadbang;
#X obj 846 183 + 0.05;
#X obj 846 160 * 2;
#X obj 1030 821 *~;
#X obj 1054 732 loadbang;
#X obj 1030 788 hip~;
#X msg 1054 755 2000;
#X obj 1180 819 bp~;
#X obj 157 985 / 127;
#X obj 157 1009 * 180;
#X obj 237 984 / 127;
#X obj 237 1008 * 180;
#X obj 319 988 / 127;
#X obj 319 1012 * 180;
#X obj 685 930 line;
#X obj 686 883 +;
#X floatatom 687 837 8 0 0 0 - - - 0;
#X obj 686 760 tgl 19 0 empty bar-tgl spin\ beat 0 -10 0 12 #c6ffc7 #000000 #000000 0 1;
#X obj 686 861 * 180;
#X obj 783 760 tgl 19 0 empty 1-2 pad\ 1-2\ SPIN 0 -10 0 12 #c6ffc7 #000000 #000000 0 1;
#X obj 726 114 tgl 19 0 empty 1-1 pad\ 1-1\ bounce 0 -10 0 12 #c6ffc7 #000000 #000000 0 1;
#X obj 568 1435 loadbang;
#X msg 568 1459 5;
#X obj 1144 939 * 0.01;
#X msg 1191 792 1000;
#X msg 556 98 1;
#X obj 1010 484 bng 19 250 50 0 empty cs1 RESET\ ALL 0 -10 0 12 #c7c6ff #000000 #000000;
#X msg 1001 520 0, f 4;
#X obj 699 56 bng 19 250 50 0 empty cs1 clip\ stop 0 -10 0 12 #c7c6ff #000000 #000000;
#X msg 699 79 0;
#X obj 880 1130 loadbang;
#X msg 623 96 3;
#X obj 903 955 * 2;
#X floatatom 520 266 5 0 0 0 - - - 0;
#X text 840 100 Track 1 - Knob 1 - Size;
#X obj 1006 982 + 0.5;
#X floatatom 845 117 5 0 0 0 - 1slide - 0;
#X floatatom 624 366 5 0 0 0 - 17-1 - 0;
#X floatatom 1001 1137 5 0 0 0 - 19-1 - 0;
#X floatatom 553 627 5 0 0 0 - 18-1 - 0;
#X floatatom 640 1414 5 0 0 0 - 23-1 - 0;
#X floatatom 155 955 5 0 0 0 - 20-1 - 0;
#X floatatom 239 952 5 0 0 0 - 21-1 - 0;
#X floatatom 318 952 5 0 0 0 - 22-1 - 0;
#X obj 543 382 metro 100;
#X floatatom 353 444 5 0 0 0 - 16-1 - 0;
#X obj 483 494 hradio 19 1 0 8 empty colour empty 0 -10 0 12 #fcfcfc #000000 #000000 0;
#X obj 446 707 part_killold 1;
#X obj 933 920 *;
#X obj 1017 912 *;
#X obj 1128 917 *;
#X obj 893 791 hip~;
#X msg 962 771 2000;
#X obj 1097 34 tgl 19 0 empty 1-dcy-dsp empty 0 -10 0 12 #c6ffc7 #000000 #000000 0 1;
#X obj 1055 34 adc~;
#X obj 1055 67 *~;
#X obj 1065 91 loadbang;
#X obj 1054 139 bp~;
#X msg 1065 112 1000;
#X obj 1053 165 env~;
#X floatatom 1054 192 5 0 0 0 - - - 0;
#X obj 1077 273 sel 1;
#X obj 1101 194 loadbang;
#X msg 1102 220 75;
#X floatatom 1074 375 6 0 0 0 - - - 0;
#X obj 1074 351 line;
#X obj 954 291 tgl 19 0 empty empty empty 0 -10 0 12 #fcfcfc #000000 #000000 0 1;
#X msg 1073 325 \$1 20;
#X msg 1109 298 0;
#X obj 904 268 loadbang;
#X obj 1075 415 spigot;
#X obj 1125 374 tgl 19 0 empty 1-dcy-dsp empty 0 -10 0 12 #fcfcfc #000000 #000000 0 1;
#X obj 1097 1047 spigot;
#X obj 633 1145 spigot;
#X obj 707 1121 tgl 19 0 empty 1-5 empty 0 -10 0 12 #fcfcfc #000000 #000000 0 1;
#X obj 1180 1001 tgl 19 0 empty 1-4 empty 0 -10 0 12 #fcfcfc #000000 #000000 0 1;
#X obj 733 999 spigot;
#X obj 771 970 tgl 19 0 empty 1-3 empty 0 -10 0 12 #fcfcfc #000000 #000000 0 1;
#X floatatom 992 1034 5 0 0 0 - - - 0;
#X obj 1011 937 * 0.01;
#X msg 687 787 \$1 200;
#X obj 689 813 line 0 200;
#X msg 686 906 \$1 2000;
#X msg 475 222 speed 1;
#X obj 1077 246 > 57;
#X floatatom 994 371 5 0 0 0 - - - 0;
#X msg 1072 298 1.5;
#X obj 996 337 +;
#X obj 1010 243 / 100;
#X obj 451 125 gemhead 7;
#X obj 503 28 delay 10;
#X msg 506 58 0;
#X obj 610 174 delay 20;
#X msg 610 204 1;
#X obj 700 184 * 1;
#X obj 700 161 line 0 100;
#X obj 450 162 depth;
#X msg 700 228 \$1 50;
#X msg 700 139 \$1 1000;
#X obj 354 471 + 0.1;
#X obj 234 132 tgl 19 0 empty empty empty 0 -10 0 12 #fcfcfc #000000 #000000 0 1;
#X obj 233 82 loadbang;
#X connect 0 0 145 0;
#X connect 1 0 3 0;
#X connect 2 0 21 0;
#X connect 3 0 7 0;
#X connect 4 0 89 0;
#X connect 5 0 103 0;
#X connect 6 0 14 0;
#X connect 6 0 39 0;
#X connect 7 0 5 0;
#X connect 8 0 7 3;
#X connect 9 0 100 0;
#X connect 10 0 103 1;
#X connect 11 0 9 0;
#X connect 12 0 13 0;
#X connect 13 0 1 0;
#X connect 14 0 5 2;
#X connect 15 0 8 3;
#X connect 16 0 30 0;
#X connect 17 0 16 0;
#X connect 18 0 21 1;
#X connect 18 0 21 3;
#X connect 19 0 20 0;
#X connect 20 0 30 1;
#X connect 21 0 22 0;
#X connect 22 0 30 0;
#X connect 23 0 19 0;
#X connect 24 0 23 0;
#X connect 25 0 22 3;
#X connect 26 0 30 0;
#X connect 27 0 28 0;
#X connect 27 0 29 0;
#X connect 28 0 16 0;
#X connect 29 0 26 0;
#X connect 31 0 32 0;
#X connect 32 0 30 2;
#X connect 33 0 18 0;
#X connect 34 0 35 0;
#X connect 34 0 28 0;
#X connect 35 0 36 0;
#X connect 36 0 30 0;
#X connect 37 0 58 0;
#X connect 38 0 153 0;
#X connect 39 0 5 1;
#X connect 40 0 5 1;
#X connect 40 0 5 2;
#X connect 43 0 54 1;
#X connect 43 0 106 1;
#X connect 44 0 51 0;
#X connect 44 1 51 0;
#X connect 45 0 51 1;
#X connect 45 0 104 1;
#X connect 46 0 61 0;
#X connect 46 1 61 0;
#X connect 47 0 59 1;
#X connect 47 0 105 1;
#X connect 48 0 22 1;
#X connect 48 0 22 2;
#X connect 48 0 22 3;
#X connect 49 0 87 0;
#X connect 49 0 81 0;
#X connect 49 0 146 0;
#X connect 49 0 148 0;
#X connect 50 0 13 1;
#X connect 51 0 107 0;
#X connect 52 0 108 0;
#X connect 53 0 54 0;
#X connect 53 1 54 0;
#X connect 54 0 63 0;
#X connect 55 0 104 0;
#X connect 55 0 105 0;
#X connect 55 0 106 0;
#X connect 56 0 80 0;
#X connect 57 0 38 0;
#X connect 57 0 38 1;
#X connect 58 0 57 0;
#X connect 59 0 55 0;
#X connect 60 0 62 0;
#X connect 61 0 59 0;
#X connect 62 0 61 1;
#X connect 63 0 55 0;
#X connect 64 0 65 0;
#X connect 65 0 21 1;
#X connect 66 0 67 0;
#X connect 67 0 21 2;
#X connect 68 0 69 0;
#X connect 69 0 21 3;
#X connect 70 0 21 3;
#X connect 70 0 21 2;
#X connect 71 0 138 0;
#X connect 72 0 74 0;
#X connect 73 0 136 0;
#X connect 74 0 71 0;
#X connect 75 0 136 0;
#X connect 76 0 154 0;
#X connect 77 0 78 0;
#X connect 78 0 30 2;
#X connect 79 0 128 0;
#X connect 80 0 63 1;
#X connect 81 0 12 0;
#X connect 81 0 0 0;
#X connect 81 0 76 0;
#X connect 81 0 42 0;
#X connect 82 0 83 0;
#X connect 83 0 47 0;
#X connect 83 0 45 0;
#X connect 83 0 43 0;
#X connect 83 0 75 0;
#X connect 84 0 85 0;
#X connect 85 0 76 0;
#X connect 86 0 48 0;
#X connect 87 0 50 0;
#X connect 88 0 132 0;
#X connect 89 0 3 1;
#X connect 91 0 129 0;
#X connect 91 0 134 0;
#X connect 92 0 37 0;
#X connect 93 0 15 0;
#X connect 94 0 25 0;
#X connect 95 0 10 0;
#X connect 96 0 31 0;
#X connect 97 0 64 0;
#X connect 98 0 66 0;
#X connect 99 0 68 0;
#X connect 100 0 8 0;
#X connect 101 0 155 0;
#X connect 102 0 40 0;
#X connect 103 0 2 0;
#X connect 104 0 88 0;
#X connect 105 0 135 0;
#X connect 106 0 79 0;
#X connect 107 0 55 0;
#X connect 108 0 107 1;
#X connect 109 0 111 1;
#X connect 110 0 111 0;
#X connect 110 1 111 0;
#X connect 111 0 113 0;
#X connect 112 0 114 0;
#X connect 113 0 115 0;
#X connect 114 0 113 1;
#X connect 115 0 116 0;
#X connect 116 0 140 0;
#X connect 116 0 144 0;
#X connect 117 0 142 0;
#X connect 117 1 124 0;
#X connect 118 0 119 0;
#X connect 119 0 140 1;
#X connect 120 0 143 1;
#X connect 121 0 120 0;
#X connect 122 0 123 0;
#X connect 123 0 121 0;
#X connect 124 0 123 0;
#X connect 125 0 122 0;
#X connect 126 0 8 3;
#X connect 127 0 126 1;
#X connect 128 0 22 3;
#X connect 129 0 22 1;
#X connect 129 0 22 2;
#X connect 130 0 129 1;
#X connect 131 0 128 1;
#X connect 132 0 21 3;
#X connect 133 0 132 1;
#X connect 135 0 91 0;
#X connect 136 0 137 0;
#X connect 137 0 72 0;
#X connect 138 0 70 0;
#X connect 139 0 1 0;
#X connect 140 0 117 0;
#X connect 141 0 126 0;
#X connect 142 0 123 0;
#X connect 143 0 141 0;
#X connect 144 0 143 0;
#X connect 145 0 152 0;
#X connect 146 0 147 0;
#X connect 147 0 0 0;
#X connect 147 0 76 0;
#X connect 147 0 42 0;
#X connect 148 0 149 0;
#X connect 149 0 89 0;
#X connect 150 0 38 0;
#X connect 151 0 150 0;
#X connect 152 0 13 0;
#X connect 153 0 4 0;
#X connect 154 0 151 0;
#X connect 155 0 7 1;
#X connect 156 0 152 0;
#X connect 157 0 156 0;
