#N canvas 0 25 1440 847 12;
#X obj 434 207 tgl 19 0 empty a-7 empty 0 -10 0 12 #ffc7c6 #000000 #000000 0 1;
#X obj 509 238 tgl 19 0 empty empty empty 0 -10 0 12 #feffc6 #000000 #000000 0 1;
#X obj 434 257 alpha;
#X floatatom 535 239 5 0 0 0 - - - 0;
#X obj 373 1564 loadbang;
#X floatatom 482 498 4 0 360 0 - - - 0;
#X floatatom 518 497 4 0 360 0 - - - 0;
#X floatatom 440 497 5 0 0 0 - - - 0;
#X obj 421 522 rotateXYZ;
#X obj 411 666 scaleXYZ;
#X floatatom 495 641 5 1 5 0 - - - 0;
#X floatatom 548 640 5 -2 10 0 - - - 0;
#X floatatom 439 641 5 1 5 0 - - - 0;
#X msg 475 588 1;
#X obj 1339 640 hsl 162 19 0 10 0 0 empty empty empty -2 -10 0 12 #c6ffc7 #000000 #000000 0 1;
#X obj 223 1518 tgl 19 0 empty r-7 empty 0 -10 0 12 #ffe3c6 #000000 #000000 0 1;
#X obj 348 1542 sel 0;
#X obj 222 1546 sel 1;
#X obj 1573 887 hsl 162 19 3 38 0 0 empty empty empty -2 -10 0 12 #c6ffc7 #000000 #000000 0 1;
#X obj 95 1518 tgl 19 0 empty s-7 empty 0 -10 0 12 #ffe3c6 #000000 #000000 0 1;
#X obj 95 1543 sel 1;
#X obj 432 384 color;
#X floatatom 898 382 5 0 0 0 - - - 0;
#X obj 895 459 hsl 162 19 0.1 5 0 0 empty empty empty -2 -10 0 12 #c6ffc7 #000000 #000000 0 1;
#X floatatom 897 493 5 0 0 0 - - - 0;
#X obj 1335 592 / 127;
#X obj 1570 831 / 127;
#X obj 1317 849 hsl 162 19 0 10 0 0 empty empty empty -2 -10 0 12 #c6ffc7 #000000 #000000 0 1;
#X obj 1330 775 / 127;
#X obj 1330 798 * 180;
#X floatatom 1334 673 5 0 64 1 segments - - 0;
#X floatatom 1329 873 5 0 0 1 sourceAngle - - 0;
#X obj 487 1214 pix_kaleidoscope;
#X floatatom 1336 1131 5 0 0 1 outputAngle - - 0;
#X floatatom 1346 1576 5 0.1 10 1 sap - - 0;
#X floatatom 1342 1401 5 0 1 1 rlp - - 0;
#X obj 1336 1202 pack;
#X obj 1390 1202 t b f;
#X floatatom 1336 1163 4 0 100 0 - - - 0;
#X floatatom 1388 1163 4 0 100 0 - - - 0;
#X obj 1336 1182 * 0.01;
#X obj 1388 1182 * 0.01;
#X obj 1331 936 pack;
#X obj 1385 936 t b f;
#X floatatom 1331 897 4 0 100 0 - - - 0;
#X floatatom 1383 897 4 0 100 0 - - - 0;
#X obj 1331 916 * 0.01;
#X obj 1383 916 * 0.01;
#X obj 489 1946 _pix2rectangle 3;
#X obj 493 973 pix_image;
#X obj 489 306 colour-selector;
#X obj 898 358 / 127;
#X obj 1339 1091 hsl 162 19 -2 10 0 0 empty empty empty -2 -10 0 12 #c6ffc7 #000000 #000000 0 1;
#X floatatom 1338 1009 5 1 127 0 - 20-7 - 0;
#X obj 1338 1034 / 127;
#X obj 1338 1057 * 180;
#X obj 1345 1378 hsl 162 19 -2 10 0 0 empty empty empty -2 -10 0 12 #c6ffc7 #000000 #000000 0 1;
#X obj 1340 1326 / 127;
#X obj 1340 1349 * 180;
#X obj 1346 1548 hsl 162 19 -2 10 0 0 empty empty empty -2 -10 0 12 #c6ffc7 #000000 #000000 0 1;
#X obj 1343 1499 / 127;
#X obj 1522 1076 loadbang;
#X obj 1678 1098 hsl 162 19 -2 10 0 0 empty empty empty -2 -10 0 12 #c6ffc7 #000000 #000000 0 1;
#X floatatom 1675 1024 5 1 127 0 - - - 0;
#X obj 1675 1049 / 127;
#X obj 1675 1072 * 180;
#X obj 487 1785 pix_puzzle;
#X msg 94 1595 size 1 1;
#X msg 222 1592 size 5 5;
#X msg 349 1591 size 10 10;
#X obj 1330 822 + 2;
#X obj 542 853 bng 19 250 50 0 empty empty empty 0 -10 0 12 #fcfcfc #000000 #000000;
#X obj 542 830 loadbang;
#X msg 541 877 open ./Images/img1.jpg, f 13;
#X obj 897 433 + 0.5;
#X obj 1335 615 * 10;
#X floatatom 1567 785 5 0 0 0 - 19-7 - 0;
#X obj 1570 863 * 40;
#X obj 1564 1101 bng 19 250 50 0 empty cs7 empty 0 -10 0 12 #fcfcfc #000000 #000000;
#X floatatom 1675 996 5 0 0 0 - 21-7 - 0;
#X obj 509 200 loadbang;
#X msg 629 229 1;
#X obj 1469 983 loadbang;
#X msg 1470 1015 0;
#X obj 1440 783 loadbang;
#X msg 1439 816 10;
#X obj 1477 556 loadbang;
#X msg 1477 580 6;
#X obj 1084 447 loadbang;
#X msg 1084 471 1.5;
#X obj 651 855 bng 19 250 50 0 empty empty empty 0 -10 0 12 #fcfcfc #000000 #000000;
#X obj 761 855 bng 19 250 50 0 empty empty empty 0 -10 0 12 #fcfcfc #000000 #000000;
#X obj 876 851 bng 19 250 50 0 empty empty empty 0 -10 0 12 #fcfcfc #000000 #000000;
#X msg 651 877 open ./Images/img2.jpg, f 13;
#X msg 761 877 open ./Images/img3.jpg, f 13;
#X msg 876 873 open ./Images/img4.jpg, f 13;
#X obj 385 733 translateXYZ;
#X obj 1021 248 env~;
#X obj 1021 197 adc~;
#X floatatom 1021 274 8 0 0 0 - - - 0;
#X floatatom 1021 316 5 0 0 0 - - - 0;
#X floatatom 1021 391 5 0 0 0 - - - 0;
#X obj 1072 389 tgl 19 0 empty 7-5 empty 0 -10 0 12 #c6ffc7 #000000 #000000 0 1;
#X obj 1023 419 spigot;
#X obj 1793 680 bng 19 250 50 0 empty cs7 empty 0 -10 0 12 #fcfcfc #000000 #000000;
#X msg 1732 747 0;
#X obj 1343 1522 * 1;
#X obj 1021 221 lop~ 200;
#X obj 1021 294 * 0.1;
#X obj 700 769 hradio 15 1 0 5 empty 7pad empty 0 -10 0 12 #fcfcfc #000000 #000000 0;
#X obj 543 808 sel 0;
#X obj 652 829 sel 1;
#X obj 760 827 sel 2;
#X obj 871 825 sel 3;
#X obj 1641 440 env~;
#X obj 1641 350 adc~;
#X floatatom 1642 474 8 0 0 0 - - - 0;
#X floatatom 1642 516 5 0 0 0 - - - 0;
#X floatatom 1643 615 5 0 0 0 - - - 0;
#X obj 1694 611 tgl 19 0 empty 8-5 empty 0 -10 0 12 #c6ffc7 #000000 #000000 0 1;
#X obj 1645 650 spigot;
#X obj 1641 554 * 1;
#X obj 1641 388 *~;
#X floatatom 1687 369 5 0 0 0 - - - 0;
#X obj 1689 319 loadbang;
#X msg 1689 343 1;
#X obj 1642 494 * 0.5;
#X obj 1642 586 line 100;
#X obj 1641 413 hip~ 2000;
#X obj 1623 1549 env~;
#X obj 1623 1459 adc~;
#X floatatom 1624 1583 8 0 0 0 - - - 0;
#X floatatom 1624 1625 5 0 0 0 - - - 0;
#X floatatom 1625 1724 5 0 0 0 - - - 0;
#X obj 1676 1720 tgl 19 0 empty 8-4 empty 0 -10 0 12 #c6ffc7 #000000 #000000 0 1;
#X obj 1605 1768 spigot;
#X obj 1623 1663 * 1;
#X obj 1623 1497 *~;
#X floatatom 1669 1478 5 0 0 0 - - - 0;
#X obj 1671 1428 loadbang;
#X msg 1671 1452 1;
#X obj 1624 1695 line 100;
#X obj 1623 1522 hip~ 2000;
#X obj 1624 1603 * 0.1;
#X obj 1664 1288 tgl 19 0 empty 8-3 empty 0 -10 0 12 #c6ffc7 #000000 #000000 0 1;
#X obj 1611 1319 spigot;
#X obj 476 566 loadbang;
#X obj 1021 340 * 0.3;
#X obj 916 610 + 0.5;
#X obj 1021 366 line 2000;
#X obj 1217 273 bng 19 250 50 0 empty cs8 empty 0 -10 0 12 #0400ff #000000 #000000;
#X msg 1217 297 0;
#X obj 1767 580 bng 19 250 50 0 empty cs8 empty 0 -10 0 12 #0400ff #000000 #000000;
#X msg 1767 604 0;
#X obj 1778 1327 bng 19 250 50 0 empty cs8 empty 0 -10 0 12 #0400ff #000000 #000000;
#X msg 1778 1351 0;
#X obj 148 458 line;
#X obj 150 381 +;
#X floatatom 150 407 5 0 0 0 - - - 0;
#X floatatom 153 329 8 0 0 0 - - - 0;
#X obj 152 252 tgl 19 0 empty bar-tgl empty 0 -10 0 12 #c6feff #000000 #000000 0 1;
#X msg 153 279 \$1 200;
#X obj 190 250 tgl 19 0 empty 8-1 pad\ 8-1\ bounce 0 -10 0 12 #c6ffc7 #000000 #000000 0 1;
#X obj 244 303 loadbang;
#X obj 145 353 * 180;
#X obj 315 278 line;
#X obj 317 201 +;
#X floatatom 317 227 5 0 0 0 - - - 0;
#X floatatom 320 149 8 0 0 0 - - - 0;
#X obj 319 72 tgl 19 0 empty bar-tgl empty 0 -10 0 12 #c6feff #000000 #000000 0 1;
#X msg 320 99 \$1 200;
#X obj 357 70 tgl 19 0 empty 8-2 pad\ 8-2\ bounce 0 -10 0 12 #c6ffc7 #000000 #000000 0 1;
#X obj 411 123 loadbang;
#X obj 312 173 * 180;
#X msg 411 146 0;
#X msg 244 326 0;
#X obj 434 231 gemhead 8;
#X obj 635 474 line;
#X obj 637 397 +;
#X floatatom 637 423 5 0 0 0 - - - 0;
#X floatatom 640 345 8 0 0 0 - - - 0;
#X obj 639 268 tgl 19 0 empty bar-tgl empty 0 -10 0 12 #c6feff #000000 #000000 0 1;
#X msg 640 295 \$1 200;
#X obj 677 266 tgl 19 0 empty 5-1 pad\ 5-1\ bounce 0 -10 0 12 #c6ffc7 #000000 #000000 0 1;
#X obj 731 319 loadbang;
#X obj 632 369 * 180;
#X msg 731 342 0;
#X obj 540 1888 pix_texture;
#X obj 688 1854 / 127;
#X obj 691 1908 + 1;
#X floatatom 734 1913 5 0 0 0 - - - 0;
#X obj 688 1878 * 13;
#X obj 651 1936 cube 3;
#X obj 322 125 line 0 5000;
#X obj 155 305 line 0 5000;
#X msg 635 451 \$1 5000;
#X obj 642 321 line 0 5000;
#X msg 148 435 \$1 5000;
#X msg 315 255 \$1 5000;
#X obj 898 404 * 4;
#X obj 619 133 hradio 19 1 0 8 empty colour empty 0 -10 0 12 #fcfcfc #000000 #000000 0;
#X floatatom 893 286 5 0 0 0 - 16-7 - 0;
#X floatatom 1343 538 5 0 0 0 - 17-7 - 0;
#X floatatom 1327 740 5 0 0 0 - 18-7 - 0;
#X floatatom 686 1817 5 0 0 0 - 7slide - 0;
#X floatatom 1344 1277 5 0 0 0 - 22-7 - 0;
#X floatatom 1342 1454 5 0 0 0 - 23-7 - 0;
#X msg 1524 1115 52.4;
#X connect 0 0 176 0;
#X connect 1 0 2 0;
#X connect 2 0 21 0;
#X connect 3 0 2 1;
#X connect 4 0 67 0;
#X connect 5 0 8 2;
#X connect 6 0 8 3;
#X connect 7 0 8 1;
#X connect 8 0 9 0;
#X connect 9 0 96 0;
#X connect 10 0 9 2;
#X connect 11 0 9 3;
#X connect 12 0 9 1;
#X connect 13 0 12 0;
#X connect 13 0 10 0;
#X connect 13 0 11 0;
#X connect 14 0 30 0;
#X connect 15 0 16 0;
#X connect 15 0 17 0;
#X connect 16 0 69 0;
#X connect 17 0 68 0;
#X connect 18 0 44 0;
#X connect 18 0 45 0;
#X connect 19 0 20 0;
#X connect 19 0 16 0;
#X connect 20 0 67 0;
#X connect 21 0 8 0;
#X connect 22 0 199 0;
#X connect 23 0 24 0;
#X connect 24 0 10 0;
#X connect 24 0 148 0;
#X connect 25 0 75 0;
#X connect 26 0 77 0;
#X connect 27 0 31 0;
#X connect 28 0 29 0;
#X connect 29 0 70 0;
#X connect 30 0 32 1;
#X connect 31 0 32 2;
#X connect 32 0 66 0;
#X connect 33 0 32 4;
#X connect 34 0 32 7;
#X connect 35 0 32 6;
#X connect 36 0 32 5;
#X connect 37 0 36 0;
#X connect 37 1 36 1;
#X connect 38 0 40 0;
#X connect 39 0 41 0;
#X connect 40 0 36 0;
#X connect 41 0 37 0;
#X connect 42 0 32 3;
#X connect 43 0 42 0;
#X connect 43 1 42 1;
#X connect 44 0 46 0;
#X connect 45 0 47 0;
#X connect 46 0 42 0;
#X connect 47 0 43 0;
#X connect 49 0 32 0;
#X connect 50 0 21 1;
#X connect 51 0 22 0;
#X connect 52 0 33 0;
#X connect 53 0 54 0;
#X connect 54 0 55 0;
#X connect 55 0 52 0;
#X connect 56 0 35 0;
#X connect 57 0 58 0;
#X connect 58 0 56 0;
#X connect 59 0 34 0;
#X connect 60 0 106 0;
#X connect 61 0 207 0;
#X connect 62 0 38 0;
#X connect 62 0 39 0;
#X connect 63 0 64 0;
#X connect 64 0 65 0;
#X connect 65 0 62 0;
#X connect 66 0 187 0;
#X connect 67 0 66 0;
#X connect 68 0 66 0;
#X connect 69 0 66 0;
#X connect 70 0 27 0;
#X connect 71 0 73 0;
#X connect 72 0 71 0;
#X connect 73 0 49 0;
#X connect 74 0 23 0;
#X connect 75 0 14 0;
#X connect 76 0 26 0;
#X connect 77 0 18 0;
#X connect 78 0 207 0;
#X connect 79 0 63 0;
#X connect 80 0 1 0;
#X connect 80 0 81 0;
#X connect 81 0 3 0;
#X connect 82 0 83 0;
#X connect 83 0 33 0;
#X connect 84 0 85 0;
#X connect 85 0 31 0;
#X connect 86 0 87 0;
#X connect 87 0 30 0;
#X connect 88 0 89 0;
#X connect 89 0 24 0;
#X connect 90 0 93 0;
#X connect 91 0 94 0;
#X connect 92 0 95 0;
#X connect 93 0 49 0;
#X connect 94 0 49 0;
#X connect 95 0 49 0;
#X connect 96 0 49 0;
#X connect 97 0 99 0;
#X connect 98 0 107 0;
#X connect 98 1 107 0;
#X connect 99 0 108 0;
#X connect 100 0 147 0;
#X connect 101 0 103 0;
#X connect 102 0 103 1;
#X connect 103 0 74 0;
#X connect 104 0 105 0;
#X connect 104 0 207 0;
#X connect 105 0 30 0;
#X connect 105 0 77 0;
#X connect 105 0 33 0;
#X connect 106 0 59 0;
#X connect 107 0 97 0;
#X connect 108 0 100 0;
#X connect 109 0 110 0;
#X connect 109 0 111 0;
#X connect 109 0 112 0;
#X connect 109 0 113 0;
#X connect 110 0 71 0;
#X connect 111 0 90 0;
#X connect 112 0 91 0;
#X connect 113 0 92 0;
#X connect 114 0 116 0;
#X connect 115 0 122 0;
#X connect 115 1 122 0;
#X connect 116 0 126 0;
#X connect 117 0 121 0;
#X connect 118 0 120 0;
#X connect 119 0 120 1;
#X connect 120 0 18 0;
#X connect 121 0 127 0;
#X connect 122 0 128 0;
#X connect 123 0 122 1;
#X connect 124 0 125 0;
#X connect 125 0 123 0;
#X connect 126 0 117 0;
#X connect 127 0 118 0;
#X connect 128 0 114 0;
#X connect 129 0 131 0;
#X connect 130 0 137 0;
#X connect 130 1 137 0;
#X connect 131 0 143 0;
#X connect 132 0 136 0;
#X connect 133 0 135 0;
#X connect 133 0 145 0;
#X connect 134 0 135 1;
#X connect 135 0 59 0;
#X connect 136 0 141 0;
#X connect 137 0 142 0;
#X connect 138 0 137 1;
#X connect 139 0 140 0;
#X connect 140 0 138 0;
#X connect 141 0 133 0;
#X connect 142 0 129 0;
#X connect 143 0 132 0;
#X connect 144 0 145 1;
#X connect 145 0 56 0;
#X connect 146 0 13 0;
#X connect 147 0 149 0;
#X connect 148 0 12 0;
#X connect 149 0 101 0;
#X connect 150 0 151 0;
#X connect 151 0 102 0;
#X connect 152 0 153 0;
#X connect 153 0 119 0;
#X connect 154 0 155 0;
#X connect 155 0 144 0;
#X connect 155 0 134 0;
#X connect 156 0 7 0;
#X connect 157 0 158 0;
#X connect 158 0 197 0;
#X connect 159 0 164 0;
#X connect 160 0 161 0;
#X connect 161 0 194 0;
#X connect 162 0 161 0;
#X connect 163 0 175 0;
#X connect 164 0 157 0;
#X connect 165 0 5 0;
#X connect 166 0 167 0;
#X connect 167 0 198 0;
#X connect 168 0 173 0;
#X connect 169 0 170 0;
#X connect 170 0 193 0;
#X connect 171 0 170 0;
#X connect 172 0 174 0;
#X connect 173 0 166 0;
#X connect 174 0 166 1;
#X connect 175 0 157 1;
#X connect 176 0 2 0;
#X connect 177 0 6 0;
#X connect 178 0 179 0;
#X connect 179 0 195 0;
#X connect 180 0 185 0;
#X connect 181 0 182 0;
#X connect 182 0 196 0;
#X connect 183 0 182 0;
#X connect 184 0 186 0;
#X connect 185 0 178 0;
#X connect 186 0 178 1;
#X connect 187 0 192 0;
#X connect 188 0 191 0;
#X connect 189 0 192 1;
#X connect 190 0 192 1;
#X connect 191 0 189 0;
#X connect 193 0 168 0;
#X connect 194 0 159 0;
#X connect 195 0 177 0;
#X connect 196 0 180 0;
#X connect 197 0 156 0;
#X connect 198 0 165 0;
#X connect 199 0 74 0;
#X connect 200 0 50 0;
#X connect 201 0 51 0;
#X connect 202 0 25 0;
#X connect 203 0 28 0;
#X connect 204 0 188 0;
#X connect 205 0 57 0;
#X connect 206 0 60 0;
#X connect 207 0 39 0;
#X connect 207 0 38 0;
