#N canvas 0 -28 1440 872 12;
#X obj 498 548 part_velocity;
#X obj 543 518 r domain;
#X obj 610 518 r arg;
#X obj 674 543 domains;
#X obj 674 493 hradio 40 1 0 5 empty 2pad empty 0 -10 0 12 #ffe3c6 #000000 #000000 0;
#X obj 501 286 part_head;
#X obj 490 929 part_render;
#X obj 499 409 part_size 5;
#X obj 499 453 part_source 20;
#X obj 502 140 tgl 19 0 empty a-2 on/off 0 -10 0 12 #ffc7c6 #000000 #000000 0 1;
#X obj 605 195 tgl 19 0 empty empty empty 0 -10 0 12 #feffc6 #000000 #000000 0 1;
#X obj 488 1186 scaleXYZ;
#X floatatom 510 1159 5 0 1.5 0 - - - 0;
#X floatatom 552 1159 5 0 1.5 0 - - - 0;
#X floatatom 593 1160 5 0 1.5 0 - - - 0;
#X msg 757 1107 0;
#X obj 568 1105 hsl 162 19 0 2.5 0 0 empty empty empty -2 -10 0 12 #c6ffc7 #000000 #000000 0 1;
#X msg 376 1444 draw line;
#X msg 279 1443 draw fill;
#X msg 174 1444 draw point;
#X msg 962 646 0.1;
#X obj 661 385 pack f f f f;
#X obj 661 360 metro 100;
#X obj 660 338 tgl 19 0 empty empty empty 0 -10 0 12 #fcfcfc #000000 #000000 0 1;
#X obj 660 315 loadbang;
#X obj 742 360 / 10;
#X obj 797 1085 loadbang;
#X msg 797 1109 0.05;
#X obj 678 456 r d0;
#X obj 718 456 r d1;
#X obj 759 456 r d2;
#X obj 800 456 r d3;
#X obj 839 456 r d4;
#X obj 879 457 r d5;
#X obj 279 1392 tgl 19 0 empty s-2 empty 0 -10 0 12 #ffe3c6 #000000 #000000 0 1;
#X obj 376 1418 sel 0;
#X obj 279 1417 sel 1;
#X obj 174 1394 tgl 19 0 empty r-2 empty 0 -10 0 12 #ffe3c6 #000000 #000000 0 1;
#X obj 174 1419 sel 1;
#X obj 564 1026 / 127;
#X obj 565 1081 + 0.01;
#X obj 564 1055 * 2.5;
#X obj 422 1418 loadbang;
#X obj 602 783 + 1;
#X obj 927 612 loadbang;
#X obj 495 684 part_targetcolor 0 1 1 0.05;
#X msg 902 646 1 1 0;
#X obj 652 654 part_color;
#X obj 752 602 loadbang;
#X msg 790 629 1 1 1;
#X msg 720 628 1 1 0;
#X obj 609 601 colour-selector;
#X obj 606 166 loadbang;
#X obj 502 169 gemhead 2;
#X obj 502 231 alpha 2;
#X obj 507 361 loadbang;
#X msg 507 385 5;
#X obj 571 338 / 127;
#X obj 571 360 * 10;
#X obj 572 383 + 1;
#X obj 552 1433 / 127;
#X obj 485 1483 sphere 0.5;
#X obj 552 1457 * 10;
#X obj 487 1342 rotateXYZ;
#X obj 536 1271 / 127;
#X obj 536 1295 * 360;
#X obj 622 1269 / 127;
#X obj 622 1296 * 360;
#X obj 711 1267 / 127;
#X obj 711 1295 * 360;
#X msg 692 195 2;
#X floatatom 562 994 5 0 0 0 - 16-2 - 0;
#X floatatom 437 413 5 0 0 0 - 16-2 - 0;
#X floatatom 746 333 5 0 0 0 - 17-2 - 0;
#X floatatom 600 753 5 0 0 0 - 18-2 - 0;
#X obj 493 832 part_killold 1;
#X floatatom 541 1234 5 0 0 0 - 20-2 - 0;
#X floatatom 623 1234 5 0 0 0 - 21-2 - 0;
#X floatatom 713 1233 5 0 0 0 - 22-2 - 0;
#X floatatom 553 1406 5 0 0 0 - 23-2 - 0;
#X obj 436 436 + 0.1;
#X floatatom 568 309 5 0 0 0 - 19-2 - 0;
#X obj 607 575 hradio 19 1 0 8 empty colour empty 0 -10 0 12 #fcfcfc #000000 #000000 0;
#X obj 1097 34 tgl 19 0 empty 2-dcy-dsp empty 0 -10 0 12 #c6ffc7 #000000 #000000 0 1;
#X obj 1055 34 adc~;
#X obj 1055 67 *~;
#X obj 1065 91 loadbang;
#X obj 1054 139 bp~;
#X msg 1065 112 1000;
#X obj 1053 165 env~;
#X floatatom 1054 192 5 0 0 0 - - - 0;
#X obj 1077 273 sel 1;
#X obj 1101 194 loadbang;
#X msg 1102 220 75;
#X floatatom 1074 375 6 0 0 0 - - - 0;
#X obj 1074 351 line;
#X obj 954 291 tgl 19 0 empty empty empty 0 -10 0 12 #fcfcfc #000000 #000000 0 1;
#X msg 1073 325 \$1 20;
#X msg 1109 298 0;
#X obj 904 268 loadbang;
#X obj 1075 415 spigot;
#X obj 1125 374 tgl 19 0 empty 1-dcy-dsp empty 0 -10 0 12 #fcfcfc #000000 #000000 0 1;
#X obj 1077 246 > 57;
#X floatatom 994 371 5 0 0 0 - - - 0;
#X msg 1072 298 1.5;
#X obj 996 337 +;
#X obj 1010 243 / 100;
#X connect 0 0 45 0;
#X connect 1 0 0 1;
#X connect 2 0 0 2;
#X connect 4 0 3 0;
#X connect 5 0 7 0;
#X connect 6 0 11 0;
#X connect 7 0 8 0;
#X connect 8 0 0 0;
#X connect 9 0 53 0;
#X connect 10 0 54 0;
#X connect 11 0 63 0;
#X connect 12 0 11 1;
#X connect 13 0 11 2;
#X connect 14 0 11 3;
#X connect 15 0 14 0;
#X connect 15 0 13 0;
#X connect 15 0 12 0;
#X connect 16 0 14 0;
#X connect 16 0 13 0;
#X connect 16 0 12 0;
#X connect 17 0 61 0;
#X connect 18 0 61 0;
#X connect 19 0 61 0;
#X connect 20 0 45 2;
#X connect 21 0 8 3;
#X connect 22 0 21 0;
#X connect 23 0 22 0;
#X connect 24 0 23 0;
#X connect 25 0 21 3;
#X connect 26 0 27 0;
#X connect 27 0 14 0;
#X connect 27 0 13 0;
#X connect 27 0 12 0;
#X connect 28 0 4 0;
#X connect 29 0 4 0;
#X connect 30 0 4 0;
#X connect 31 0 4 0;
#X connect 32 0 4 0;
#X connect 34 0 35 0;
#X connect 34 0 36 0;
#X connect 35 0 17 0;
#X connect 36 0 18 0;
#X connect 37 0 38 0;
#X connect 37 0 35 0;
#X connect 38 0 19 0;
#X connect 39 0 41 0;
#X connect 40 0 16 0;
#X connect 41 0 40 0;
#X connect 42 0 17 0;
#X connect 43 0 75 1;
#X connect 44 0 46 0;
#X connect 44 0 20 0;
#X connect 45 0 75 0;
#X connect 46 0 45 1;
#X connect 48 0 49 0;
#X connect 48 0 50 0;
#X connect 49 0 47 2;
#X connect 50 0 47 1;
#X connect 51 0 47 1;
#X connect 51 0 45 1;
#X connect 52 0 10 0;
#X connect 52 0 70 0;
#X connect 53 0 54 0;
#X connect 54 0 5 0;
#X connect 55 0 56 0;
#X connect 56 0 7 1;
#X connect 57 0 58 0;
#X connect 58 0 59 0;
#X connect 59 0 7 1;
#X connect 60 0 62 0;
#X connect 62 0 61 2;
#X connect 63 0 61 0;
#X connect 64 0 65 0;
#X connect 65 0 63 1;
#X connect 66 0 67 0;
#X connect 67 0 63 2;
#X connect 68 0 69 0;
#X connect 69 0 63 3;
#X connect 70 0 54 1;
#X connect 71 0 39 0;
#X connect 72 0 80 0;
#X connect 73 0 25 0;
#X connect 74 0 43 0;
#X connect 75 0 6 0;
#X connect 76 0 64 0;
#X connect 77 0 66 0;
#X connect 78 0 68 0;
#X connect 79 0 60 0;
#X connect 81 0 57 0;
#X connect 82 0 51 0;
#X connect 83 0 85 1;
#X connect 84 0 85 0;
#X connect 84 1 85 0;
#X connect 85 0 87 0;
#X connect 86 0 88 0;
#X connect 87 0 89 0;
#X connect 88 0 87 1;
#X connect 89 0 90 0;
#X connect 90 0 102 0;
#X connect 90 0 106 0;
#X connect 91 0 104 0;
#X connect 91 1 98 0;
#X connect 92 0 93 0;
#X connect 93 0 102 1;
#X connect 94 0 105 1;
#X connect 95 0 94 0;
#X connect 96 0 97 0;
#X connect 97 0 95 0;
#X connect 98 0 97 0;
#X connect 99 0 96 0;
#X connect 100 0 21 3;
#X connect 101 0 100 1;
#X connect 102 0 91 0;
#X connect 103 0 100 0;
#X connect 104 0 97 0;
#X connect 105 0 103 0;
#X connect 106 0 105 0;
