#N canvas 457 25 898 847 12;
#X obj 255 625 t a b;
#X obj 262 864 rotateXYZ;
#X obj 318 1334 alpha;
#X msg 115 748 \$1 125;
#X obj 115 772 line;
#X obj 113 674 r index;
#X obj 248 178 tgl 19 0 empty a-5 empty 0 -10 0 12 #fcfcfc #000000 #000000 0 1;
#X obj 294 757 f;
#X obj 404 668 r ratio;
#X obj 404 692 / 14;
#X msg 404 712 \$1 125;
#X obj 404 736 line;
#X obj 294 805 +;
#X obj 306 1388 t a b;
#X obj 347 1452 f;
#X obj 347 1476 + 1;
#X obj 302 1534 spigot;
#X obj 379 1092 * 0.1;
#X obj 246 239 gemframebuffer;
#X obj 246 339 t a a;
#X obj 451 232 pix_texture;
#X obj 552 242 gemframebuffer;
#X obj 553 345 t a a;
#X obj 584 372 pix_texture;
#X obj 554 524 alpha;
#X obj 301 355 pix_texture;
#X obj 249 405 depth;
#X obj 394 1428 loadbang;
#X obj 113 698 / 6;
#X obj 115 724 + 0.1;
#X obj 262 888 translateXYZ 0.5 0 0;
#X obj 609 180 tgl 19 0 empty a-5 empty 0 -10 0 12 #fcfcfc #000000 #000000 0 1;
#X obj 453 152 loadbang;
#X obj 150 200 index;
#X obj 588 492 tgl 19 0 empty empty empty 0 -10 0 12 #fcfcfc #000000 #000000 0 1;
#X obj 248 201 gemhead 10;
#X obj 552 218 gemhead 11;
#X obj 448 372 alpha;
#X obj 486 350 tgl 19 0 empty a-5 empty 0 -10 0 12 #fcfcfc #000000 #000000 0 1;
#X msg 391 1453 20;
#X floatatom 394 1296 5 0 0 0 - 23-5 - 0;
#X obj 253 597 translateXYZ 0 0 0;
#X obj 251 522 scaleXYZ 1 1 1;
#X floatatom 85 384 5 0 0 0 - 16-5 - 0;
#X obj 394 1319 + 1;
#X floatatom 141 392 5 0 0 0 - 17-5 - 0;
#X msg 721 1173 draw line;
#X msg 641 1174 draw fill;
#X msg 559 1174 draw point;
#X obj 632 1094 loadbang;
#X obj 648 1124 tgl 19 0 empty s-5 empty 0 -10 0 12 #00faff #000000 #000000 0 1;
#X obj 722 1126 sel 0;
#X obj 648 1149 sel 1;
#X obj 562 1122 tgl 19 0 empty r-5 empty 0 -10 0 12 #ff0400 #000000 #000000 0 1;
#X obj 562 1147 sel 1;
#X obj 540 648 colour-selector;
#X obj 537 700 unpack f f f;
#X floatatom 534 733 5 0 0 0 - - - 0;
#X floatatom 574 733 5 0 0 0 - - - 0;
#X floatatom 616 733 5 0 0 0 - - - 0;
#X obj 543 600 hradio 19 1 0 8 empty colour empty 0 -10 0 12 #fcfcfc #000000 #000000 0;
#X obj 318 1357 sphere 1 5;
#X obj 303 393 alpha;
#X obj 359 386 tgl 19 0 empty empty empty 0 -10 0 12 #fcfcfc #000000 #000000 0 1;
#X obj 585 402 alpha;
#X obj 652 398 tgl 19 0 empty empty empty 0 -10 0 12 #fcfcfc #000000 #000000 0 1;
#X obj 377 1269 tgl 19 0 empty empty empty 0 -10 0 12 #fcfcfc #000000 #000000 0 1;
#X obj 705 427 / 127;
#X floatatom 707 398 5 0 0 0 - 5slide - 0;
#X obj 246 315 translateXYZ 0 -1 -4;
#X obj 584 427 rectangle 6 4;
#X msg 377 1244 0;
#X obj 378 1220 loadbang;
#X obj 316 1150 colorRGB 0 1 0 1;
#X obj 301 420 rectangle 6 4;
#X obj 449 411 rectangle 6 4;
#X obj 87 457 + 1;
#X obj 141 415 / 127;
#X obj 141 437 * 5;
#X floatatom 548 1277 5 0 0 0 - 20-5 - 0;
#X obj 83 407 / 127;
#X obj 84 432 * 10;
#X floatatom 369 793 5 0 0 0 - 21-5 - 0;
#X obj 368 815 / 127;
#X obj 315 1045 rotateXYZ;
#X floatatom 355 967 5 0 0 0 - 22-5 - 0;
#X obj 337 994 / 127;
#X obj 554 459 colorRGB 0 0 0 0.9;
#X obj 696 506 loadbang;
#X obj 554 548 rectangle 10;
#X floatatom 375 284 5 0 0 0 - 19-5 - 0;
#X obj 404 762 * 180;
#X obj 553 321 translateXYZ -1 1 -6;
#X obj 294 781 + 0.1;
#X floatatom 331 687 5 0 0 0 - 18-5 - 0;
#X obj 341 1505 mod 1;
#X obj 546 1302 / 127;
#X obj 542 1365 + 1;
#X obj 421 587 loadbang;
#X msg 421 610 0.1;
#X obj 146 463 + 0.1;
#X obj 337 1019 * 45;
#X obj 367 839 * 45;
#X obj 543 1332 * 40;
#X obj 451 208 gemhead -1;
#X msg 453 176 dimen 1360 960;
#X obj 718 60 delay 10;
#X msg 721 90 0;
#X msg 781 89 1;
#X obj 810 41 loadbang;
#X connect 0 0 1 0;
#X connect 0 1 7 0;
#X connect 1 0 30 0;
#X connect 2 0 61 0;
#X connect 3 0 4 0;
#X connect 4 0 61 1;
#X connect 4 0 73 4;
#X connect 5 0 28 0;
#X connect 6 0 35 0;
#X connect 7 0 93 0;
#X connect 8 0 9 0;
#X connect 9 0 10 0;
#X connect 10 0 11 0;
#X connect 11 0 91 0;
#X connect 12 0 1 1;
#X connect 12 0 1 2;
#X connect 13 0 16 0;
#X connect 13 1 14 0;
#X connect 14 0 15 0;
#X connect 15 0 14 1;
#X connect 15 0 95 0;
#X connect 16 0 1 0;
#X connect 17 0 73 2;
#X connect 18 0 69 0;
#X connect 18 1 20 1;
#X connect 18 1 23 1;
#X connect 19 0 26 0;
#X connect 19 1 25 0;
#X connect 20 0 37 0;
#X connect 21 0 92 0;
#X connect 21 1 25 1;
#X connect 22 0 87 0;
#X connect 22 1 23 0;
#X connect 23 0 64 0;
#X connect 24 0 89 0;
#X connect 25 0 62 0;
#X connect 26 0 42 0;
#X connect 27 0 39 0;
#X connect 28 0 29 0;
#X connect 29 0 3 0;
#X connect 30 0 84 0;
#X connect 31 0 36 0;
#X connect 31 0 104 0;
#X connect 32 0 105 0;
#X connect 34 0 24 1;
#X connect 35 0 18 0;
#X connect 36 0 21 0;
#X connect 37 0 75 0;
#X connect 38 0 37 1;
#X connect 39 0 95 1;
#X connect 40 0 44 0;
#X connect 41 0 0 0;
#X connect 42 0 41 0;
#X connect 43 0 80 0;
#X connect 44 0 61 2;
#X connect 45 0 77 0;
#X connect 46 0 61 0;
#X connect 47 0 61 0;
#X connect 48 0 61 0;
#X connect 49 0 47 0;
#X connect 50 0 51 0;
#X connect 50 0 52 0;
#X connect 51 0 46 0;
#X connect 52 0 47 0;
#X connect 53 0 54 0;
#X connect 53 0 51 0;
#X connect 54 0 48 0;
#X connect 55 0 56 0;
#X connect 56 0 57 0;
#X connect 56 1 58 0;
#X connect 56 2 59 0;
#X connect 57 0 73 1;
#X connect 58 0 73 2;
#X connect 59 0 73 3;
#X connect 60 0 55 0;
#X connect 61 0 13 0;
#X connect 62 0 74 0;
#X connect 63 0 62 1;
#X connect 64 0 70 0;
#X connect 65 0 64 1;
#X connect 66 0 2 1;
#X connect 67 0 87 4;
#X connect 68 0 67 0;
#X connect 69 0 19 0;
#X connect 71 0 66 0;
#X connect 72 0 71 0;
#X connect 73 0 2 0;
#X connect 76 0 42 1;
#X connect 76 0 42 2;
#X connect 77 0 78 0;
#X connect 78 0 100 0;
#X connect 79 0 96 0;
#X connect 80 0 81 0;
#X connect 81 0 76 0;
#X connect 82 0 83 0;
#X connect 83 0 102 0;
#X connect 84 0 73 0;
#X connect 85 0 86 0;
#X connect 86 0 101 0;
#X connect 87 0 24 0;
#X connect 88 0 34 0;
#X connect 90 0 69 3;
#X connect 91 0 12 1;
#X connect 92 0 22 0;
#X connect 93 0 12 0;
#X connect 93 0 7 1;
#X connect 94 0 93 1;
#X connect 95 0 16 1;
#X connect 95 0 17 0;
#X connect 96 0 103 0;
#X connect 97 0 95 1;
#X connect 98 0 99 0;
#X connect 99 0 93 1;
#X connect 100 0 42 3;
#X connect 101 0 84 2;
#X connect 102 0 1 3;
#X connect 103 0 97 0;
#X connect 104 0 20 0;
#X connect 105 0 18 0;
#X connect 106 0 107 0;
#X connect 107 0 6 0;
#X connect 107 0 38 0;
#X connect 107 0 31 0;
#X connect 108 0 6 0;
#X connect 108 0 38 0;
#X connect 108 0 31 0;
#X connect 109 0 108 0;
#X connect 109 0 106 0;
