#N canvas 248 25 622 771 12;
#X obj 434 207 tgl 19 0 empty a-4 empty 0 -10 0 12 #ffc7c6 #000000 #000000 0 1;
#X obj 509 238 tgl 19 0 empty empty empty 0 -10 0 12 #feffc6 #000000 #000000 0 1;
#X obj 434 257 alpha;
#X floatatom 535 239 5 0 0 0 - - - 0;
#X msg 332 970 draw line;
#X obj 356 946 loadbang;
#X obj 435 669 rotateXYZ;
#X obj 434 817 scaleXYZ;
#X msg 487 783 1;
#X msg 206 967 draw fill;
#X obj 206 900 tgl 19 0 empty s-4 empty 0 -10 0 12 #ffe3c6 #000000 #000000 0 1;
#X obj 331 924 sel 0;
#X obj 206 925 sel 1;
#X obj 78 900 tgl 19 0 empty r-4 empty 0 -10 0 12 #ffe3c6 #000000 #000000 0 1;
#X obj 78 925 sel 1;
#X msg 78 967 draw point;
#X obj 470 351 colour-selector;
#X obj 434 231 gemhead 4;
#X obj 464 940 bng 19 250 50 0 empty 4-1 empty 0 -10 0 12 #fcfcfc #000000 #000000;
#X obj 557 939 tgl 19 0 empty empty empty 0 -10 0 12 #fcfcfc #000000 #000000 0 1;
#X obj 586 940 tgl 19 0 empty empty empty 0 -10 0 12 #fcfcfc #000000 #000000 0 1;
#X obj 432 384 color;
#X obj 504 912 / 3;
#X obj 504 940 + 0.5;
#X obj 504 883 ctlin 16 4;
#X obj 457 570 ctlin 17 4;
#X obj 548 596 / 127;
#X obj 548 619 * 180;
#X obj 457 594 / 127;
#X obj 457 618 * 180;
#X obj 548 568 ctlin 18 4;
#X obj 637 595 / 127;
#X obj 637 618 * 180;
#X obj 637 568 ctlin 19 4;
#X floatatom 622 827 5 0 0 0 - - - 0;
#X obj 624 766 loadbang;
#X msg 624 790 13;
#X obj 207 705 line;
#X floatatom 208 772 5 0 0 0 - - - 0;
#X obj 205 589 tgl 19 0 empty 4-2 empty 0 -10 0 12 #fcfcfc #000000 #000000 0 2;
#X obj 266 794 + 1;
#X msg 207 681 \$1 2000;
#X obj 308 670 line;
#X floatatom 309 737 5 0 0 0 - - - 0;
#X obj 306 554 tgl 19 0 empty 4-3 empty 0 -10 0 12 #fcfcfc #000000 #000000 0 2;
#X obj 367 759 + 1;
#X msg 308 646 \$1 2000;
#X obj 433 995 ripple 16 16;
#X obj 458 441 bng 19 250 50 0 empty 4-4 empty 0 -10 0 12 #fcfcfc #000000 #000000;
#X msg 458 473 0 \, 180 1000 100;
#X obj 457 510 line;
#X floatatom 458 533 5 0 0 0 - - - 0;
#X obj 590 440 bng 19 250 50 0 empty 4-5 empty 0 -10 0 12 #fcfcfc #000000 #000000;
#X msg 590 472 0 \, 180 1000 100;
#X obj 589 509 line;
#X floatatom 590 532 5 0 0 0 - - - 0;
#X obj 497 423 bng 19 250 50 0 empty bar empty 0 -10 0 12 #fcfcfc #000000 #000000;
#X connect 0 0 17 0;
#X connect 1 0 2 0;
#X connect 2 0 21 0;
#X connect 3 0 2 1;
#X connect 4 0 47 0;
#X connect 5 0 4 0;
#X connect 6 0 7 0;
#X connect 7 0 47 0;
#X connect 8 0 7 1;
#X connect 8 0 7 2;
#X connect 8 0 7 3;
#X connect 9 0 47 0;
#X connect 10 0 11 0;
#X connect 10 0 12 0;
#X connect 11 0 4 0;
#X connect 12 0 9 0;
#X connect 13 0 14 0;
#X connect 13 0 11 0;
#X connect 14 0 15 0;
#X connect 15 0 47 0;
#X connect 16 0 21 1;
#X connect 17 0 2 0;
#X connect 18 0 47 0;
#X connect 19 0 47 3;
#X connect 20 0 47 4;
#X connect 21 0 6 0;
#X connect 22 0 23 0;
#X connect 23 0 47 1;
#X connect 24 0 22 0;
#X connect 25 0 28 0;
#X connect 26 0 27 0;
#X connect 27 0 6 2;
#X connect 28 0 29 0;
#X connect 29 0 6 1;
#X connect 30 0 26 0;
#X connect 31 0 32 0;
#X connect 32 0 6 3;
#X connect 33 0 31 0;
#X connect 34 0 47 2;
#X connect 35 0 36 0;
#X connect 36 0 34 0;
#X connect 37 0 38 0;
#X connect 38 0 40 0;
#X connect 39 0 41 0;
#X connect 40 0 7 1;
#X connect 41 0 37 0;
#X connect 42 0 43 0;
#X connect 43 0 45 0;
#X connect 44 0 46 0;
#X connect 45 0 7 2;
#X connect 46 0 42 0;
#X connect 48 0 49 0;
#X connect 49 0 50 0;
#X connect 50 0 51 0;
#X connect 51 0 6 1;
#X connect 52 0 53 0;
#X connect 53 0 54 0;
#X connect 54 0 55 0;
#X connect 55 0 6 2;
#X connect 56 0 49 0;
#X connect 56 0 53 0;
