#N canvas 0 25 1440 847 12;
#X obj 258 315 pix_video;
#X msg 300 244 dialog;
#X obj 256 385 pix_alpha;
#X obj 254 346 pix_rgba;
#X obj 221 313 tgl 19 0 empty empty empty 0 -10 0 12 #fcfcfc #000000 #000000 0 1;
#X obj 255 244 alpha;
#X obj 255 1177 pix_texture;
#X obj 254 1293 rotateXYZ;
#X obj 250 1450 scaleXYZ;
#X obj 257 444 pix_metaimage;
#X obj 256 165 tgl 19 0 empty a-3 on/off 0 -10 0 12 #ffc7c6 #000000 #000000 0 1;
#X obj 288 1394 loadbang;
#X obj 440 255 / 127;
#X obj 263 912 pix_gain;
#X msg 288 750 1;
#X obj 430 849 pack f f f;
#X floatatom 493 823 5 0 0 0 - - - 0;
#X floatatom 536 823 5 0 0 0 - - - 0;
#X floatatom 578 823 5 0 0 0 - - - 0;
#X obj 431 825 bng 19 250 50 0 empty empty empty 0 -10 0 12 #fcfcfc #000000 #000000;
#X obj 253 1102 pix_lumaoffset;
#X obj 291 1022 tgl 19 0 empty r-3 empty 0 -10 0 12 #ffc7c6 #000000 #000000 0 1;
#X msg 291 1046 smooth \$1;
#X obj 381 1024 tgl 19 0 empty s-3 empty 0 -10 0 12 #c6feff #000000 #000000 0 1;
#X msg 381 1047 fill \$1;
#X obj 531 1048 * 5;
#X obj 611 594 vsl 19 162 -1 1 0 0 empty empty empty 0 -9 0 12 #00ff04 #000000 #000000 0 1;
#X obj 780 588 vsl 19 162 -1 1 0 0 empty empty empty 0 -9 0 12 #00ff04 #000000 #000000 0 1;
#X obj 950 582 vsl 19 162 -1 1 0 0 empty empty empty 0 -9 0 12 #00ff04 #000000 #000000 0 1;
#X obj 430 771 metro 600;
#X msg 429 747 1;
#X obj 360 716 loadbang;
#X obj 611 561 * 4;
#X obj 780 536 expr ((($f1 - 0) * (1 - -1)) / (127 - 0)) + -1, f 16;
#X obj 611 503 expr ((($f1 - 0) * (1 - -1)) / (127 - 0)) + -1, f 18;
#X obj 950 540 expr ((($f1 - 0) * (1 - -1)) / (127 - 0)) + -1, f 23;
#X msg 329 752 0;
#X obj 432 364 / 127;
#X obj 432 389 + 0.05;
#X obj 279 1756 + 1;
#X obj 280 1710 / 127;
#X floatatom 440 228 5 0 0 0 - 3slide - 0;
#X obj 548 217 loadbang;
#X obj 632 1198 sel 1;
#X msg 671 1225 0;
#X obj 631 1172 tgl 19 0 empty empty empty 0 -10 0 12 #fcfcfc #000000 #000000 0 1;
#X obj 377 1380 / 127;
#X obj 432 1657 env~;
#X obj 432 1636 adc~;
#X obj 432 1681 spigot;
#X obj 471 1658 tgl 19 0 empty 3-5 empty 0 -10 0 12 #00ff04 #000000 #000000 0 1;
#X obj 432 1753 line;
#X msg 155 1756 draw fill;
#X msg 548 241 0.5;
#X obj 625 1048 / 4;
#X obj 542 1201 / 127;
#X obj 542 1225 * 360;
#X msg 631 1225 180;
#X obj 465 1200 / 127;
#X obj 465 1224 * 360;
#X obj 381 1202 / 127;
#X obj 380 1227 * 360;
#X obj 453 1025 loadbang;
#X msg 453 1048 0;
#X msg 321 1423 1;
#X obj 279 1734 * 4;
#X obj 356 1728 loadbang;
#X floatatom 375 1427 5 0 0 0 - - - 0;
#X obj 293 717 bng 19 250 50 0 empty 3-1 empty 0 -10 0 12 #fcfcfc #000000 #000000;
#X obj 249 1620 translateXYZ;
#X msg 287 1423 1;
#X obj 377 1404 * 2;
#X msg 356 1751 5;
#X obj 423 1380 loadbang;
#X msg 423 1404 0.3;
#X msg 157 142 dialog;
#X obj 548 321 env~;
#X obj 548 291 adc~;
#X obj 548 349 spigot;
#X obj 602 334 tgl 19 0 empty 3-4 empty 0 -10 0 12 #00ff04 #000000 #000000 0 1;
#X obj 547 423 line;
#X obj 256 194 gemhead 8;
#X obj 626 290 bng 19 250 50 0 empty cs3 empty 0 -10 0 12 #fcfcfc #000000 #000000;
#X msg 626 314 0;
#X obj 472 1613 bng 19 250 50 0 empty cs3 empty 0 -10 0 12 #fcfcfc #000000 #000000;
#X msg 472 1635 0;
#X obj 247 1789 cube;
#X msg 301 276 dimen 64 64;
#X msg 432 1728 \$1 100;
#X obj 432 1704 * 0.1;
#X msg 547 399 \$1 100;
#X obj 547 374 * 0.008;
#X obj 331 1548 bng 19 250 50 0 empty 3-2 empty 0 -10 0 12 #fcfcfc #000000 #000000;
#X obj 331 1597 line;
#X msg 331 1571 -17 \, 0 1000 100;
#X obj 727 1181 bng 19 250 50 0 empty 3-3 empty 0 -10 0 12 #fcfcfc #000000 #000000;
#X obj 278 1221 line;
#X msg 727 1204 180 \, 0 10000 100;
#X floatatom 611 480 5 0 0 0 - 48-1 - 0;
#X floatatom 786 479 5 0 0 0 - 49-1 - 0;
#X floatatom 952 502 5 0 0 0 - 50-1 - 0;
#X floatatom 528 1012 5 0 0 0 - 18-3 - 0;
#X floatatom 631 1014 5 0 0 0 - 19-3 - 0;
#X floatatom 380 1166 5 0 0 0 - 20-3 - 0;
#X floatatom 468 1165 5 0 0 0 - 21-3 - 0;
#X floatatom 542 1168 5 0 0 0 - 22-3 - 0;
#X floatatom 383 1348 5 0 0 0 - 17-3 - 0;
#X floatatom 279 1674 5 0 0 0 - 16-3 - 0;
#X floatatom 429 332 5 0 0 0 - 23-3 - 0;
#X obj 431 487 loadbang;
#X obj 430 515 1;
#X obj 504 44 delay 10;
#X msg 507 74 0;
#X msg 567 73 1;
#X obj 631 60 loadbang;
#X obj 571 126 depth;
#X connect 0 0 3 0;
#X connect 1 0 0 0;
#X connect 2 0 9 0;
#X connect 3 0 2 0;
#X connect 4 0 3 0;
#X connect 5 0 0 0;
#X connect 6 0 7 0;
#X connect 7 0 8 0;
#X connect 8 0 69 0;
#X connect 9 0 13 0;
#X connect 10 0 81 0;
#X connect 11 0 70 0;
#X connect 11 0 64 0;
#X connect 12 0 2 1;
#X connect 12 0 2 2;
#X connect 13 0 20 0;
#X connect 14 0 13 1;
#X connect 15 0 13 2;
#X connect 16 0 15 0;
#X connect 17 0 15 1;
#X connect 18 0 15 2;
#X connect 19 0 15 0;
#X connect 20 0 6 0;
#X connect 21 0 22 0;
#X connect 22 0 20 0;
#X connect 23 0 24 0;
#X connect 24 0 20 0;
#X connect 25 0 20 1;
#X connect 26 0 16 0;
#X connect 26 0 30 0;
#X connect 27 0 17 0;
#X connect 27 0 19 0;
#X connect 28 0 18 0;
#X connect 28 0 19 0;
#X connect 29 0 19 0;
#X connect 30 0 29 0;
#X connect 31 0 36 0;
#X connect 32 0 26 0;
#X connect 33 0 27 0;
#X connect 34 0 32 0;
#X connect 35 0 28 0;
#X connect 36 0 29 0;
#X connect 37 0 38 0;
#X connect 38 0 9 1;
#X connect 39 0 86 1;
#X connect 40 0 65 0;
#X connect 41 0 12 0;
#X connect 42 0 53 0;
#X connect 43 0 57 0;
#X connect 43 1 44 0;
#X connect 44 0 7 3;
#X connect 44 0 7 2;
#X connect 44 0 7 1;
#X connect 45 0 43 0;
#X connect 46 0 71 0;
#X connect 47 0 49 0;
#X connect 48 0 47 0;
#X connect 48 1 47 0;
#X connect 49 0 89 0;
#X connect 50 0 49 1;
#X connect 51 0 86 1;
#X connect 52 0 86 0;
#X connect 53 0 2 2;
#X connect 54 0 20 2;
#X connect 55 0 56 0;
#X connect 56 0 7 3;
#X connect 57 0 7 3;
#X connect 58 0 59 0;
#X connect 59 0 7 2;
#X connect 60 0 61 0;
#X connect 61 0 7 1;
#X connect 62 0 63 0;
#X connect 63 0 20 1;
#X connect 63 0 20 2;
#X connect 64 0 8 2;
#X connect 65 0 39 0;
#X connect 66 0 72 0;
#X connect 67 0 8 3;
#X connect 68 0 14 0;
#X connect 68 0 36 0;
#X connect 69 0 86 0;
#X connect 70 0 8 1;
#X connect 71 0 67 0;
#X connect 72 0 86 1;
#X connect 73 0 74 0;
#X connect 74 0 67 0;
#X connect 75 0 0 0;
#X connect 76 0 78 0;
#X connect 77 0 76 0;
#X connect 77 1 76 0;
#X connect 78 0 91 0;
#X connect 79 0 78 1;
#X connect 80 0 9 1;
#X connect 81 0 115 0;
#X connect 82 0 83 0;
#X connect 83 0 79 0;
#X connect 84 0 85 0;
#X connect 85 0 50 0;
#X connect 87 0 0 0;
#X connect 88 0 51 0;
#X connect 89 0 88 0;
#X connect 90 0 80 0;
#X connect 91 0 90 0;
#X connect 92 0 94 0;
#X connect 93 0 69 3;
#X connect 94 0 93 0;
#X connect 95 0 97 0;
#X connect 96 0 7 1;
#X connect 97 0 96 0;
#X connect 98 0 34 0;
#X connect 99 0 33 0;
#X connect 100 0 35 0;
#X connect 101 0 25 0;
#X connect 102 0 54 0;
#X connect 103 0 60 0;
#X connect 104 0 58 0;
#X connect 105 0 55 0;
#X connect 106 0 46 0;
#X connect 107 0 40 0;
#X connect 108 0 37 0;
#X connect 109 0 110 0;
#X connect 110 0 9 1;
#X connect 111 0 112 0;
#X connect 112 0 10 0;
#X connect 113 0 10 0;
#X connect 114 0 113 0;
#X connect 114 0 111 0;
#X connect 115 0 5 0;
