#N canvas 64 53 1440 900 12;
#X obj 451 101 tgl 19 0 empty a-1 on/off 0 -10 0 12 #ffc7c6 #000000 #000000 0 1;
#X obj 450 202 part_head;
#X obj 446 743 part_render;
#X obj 449 298 part_size 5;
#X msg 477 178 speed 5;
#X obj 700 251 line;
#X obj 446 589 part_color;
#X obj 632 531 loadbang;
#X obj 448 450 part_source 20;
#X obj 446 707 part_killold 100;
#X obj 543 426 pack f f f f;
#X obj 543 382 metro 100;
#X obj 542 360 tgl 19 0 empty empty empty 0 -10 0 12 #fcfcfc #000000 #000000 0 1;
#X obj 555 657 + 1;
#X obj 542 337 loadbang;
#X obj 555 682 * 1;
#X obj 846 117 ctlin 16 1;
#X obj 624 378 ctlin 17 1;
#X obj 555 633 ctlin 18 1;
#X obj 556 125 tgl 19 0 empty empty empty 0 -10 0 12 #feffc6 #000000 #000000 0 1;
#X obj 451 151 alpha;
#X msg 670 558 1 1 1;
#X obj 624 400 / 10;
#X msg 355 1459 draw line;
#X obj 379 1435 loadbang;
#X msg 548 926 0;
#X obj 500 1437 hradio 19 1 0 3 empty empty empty 0 -10 0 12 #fcfcfc #000000 #000000 0;
#X obj 501 1459 + 1;
#X obj 449 1051 rotateXYZ;
#X obj 446 1261 scaleXYZ;
#X msg 501 1415 0;
#X obj 501 1394 loadbang;
#X obj 1001 1160 / 12;
#X obj 1001 1136 ctlin 19 1;
#X msg 280 1460 draw fill;
#X obj 280 1411 tgl 19 0 empty s-1 empty 0 -10 0 12 #00faff #000000 #000000 0 1;
#X obj 354 1413 sel 0;
#X obj 280 1436 sel 1;
#X obj 447 1501 sphere;
#X obj 640 1439 / 3;
#X obj 640 1461 + 0.5;
#X obj 554 891 bng 19 250 50 0 empty cs1 empty 0 -10 0 12 #c7c6ff #000000 #000000;
#X obj 194 1409 tgl 19 0 empty r-1 empty 0 -10 0 12 #ff0400 #000000 #000000 0 1;
#X obj 194 1434 sel 1;
#X msg 194 1459 draw point;
#X obj 846 139 / 127;
#X obj 700 206 +;
#X msg 700 228 \$1 10;
#X msg 600 557 1 1 0;
#X obj 482 531 colour-selector;
#X obj 451 125 gemhead 1;
#X text 549 841 Track 1 Clip Stop - Reset Rotation, f 12;
#X obj 700 161 line 0 100;
#X obj 699 112 tgl 19 0 empty bar-tgl empty 0 -10 0 12 #c6feff #000000 #000000 0 1;
#X msg 700 139 \$1 200;
#X obj 700 184 * 2;
#X obj 1223 714 tgl 19 0 empty 1-4 Pad\ 1-4\ ScaleZ 0 -10 0 12 #c6ffc7 #000000 #000000 0 1;
#X obj 893 741 adc~;
#X obj 933 743 tgl 19 0 empty 1-3 pad\ 1-3\ SIZE 0 -10 0 12 #c6ffc7 #000000 #000000 0 1;
#X obj 1031 700 adc~;
#X obj 1068 801 tgl 19 0 empty 1-5 pad\ 1-5\ SPIN 0 -10 0 12 #c6ffc7 #000000 #000000 0 1;
#X msg 880 1158 0.5;
#X obj 1011 937 * 0.01;
#X obj 590 71 loadbang;
#X floatatom 623 118 5 0 0 0 - - - 0;
#X obj 893 767 *~;
#X obj 893 791 lop~;
#X obj 962 749 loadbang;
#X obj 1181 714 adc~;
#X obj 1181 747 *~;
#X obj 1033 887 env~;
#X obj 1191 771 loadbang;
#X obj 846 183 + 0.05;
#X obj 846 160 * 2;
#X obj 1030 821 *~;
#X obj 1054 732 loadbang;
#X obj 1030 788 hip~;
#X msg 1054 755 2000;
#X obj 1180 819 bp~;
#X obj 157 985 / 127;
#X obj 157 1009 * 180;
#X obj 237 984 / 127;
#X obj 237 1008 * 180;
#X obj 319 988 / 127;
#X obj 319 1012 * 180;
#X obj 685 930 line;
#X obj 686 883 +;
#X floatatom 687 837 8 0 0 0 - - - 0;
#X obj 686 760 tgl 19 0 empty bar-tgl spin\ beat 0 -10 0 12 #c6ffc7 #000000 #000000 0 1;
#X obj 686 861 * 180;
#X obj 783 760 tgl 19 0 empty 1-2 pad\ 1-2\ SPIN 0 -10 0 12 #c6ffc7 #000000 #000000 0 1;
#X obj 726 114 tgl 19 0 empty 1-1 pad\ 1-1\ bounce 0 -10 0 12 #c6ffc7 #000000 #000000 0 1;
#X msg 687 787 \$1 200;
#X obj 689 813 line 0 200;
#X msg 686 906 \$1 200;
#X obj 568 1435 loadbang;
#X msg 568 1459 5;
#X obj 780 159 loadbang;
#X msg 780 182 5;
#X obj 1144 939 * 0.01;
#X msg 1191 792 1000;
#X msg 556 98 1;
#X obj 1010 484 bng 19 250 50 0 empty cs1 RESET\ ALL 0 -10 0 12 #c7c6ff #000000 #000000;
#X msg 1001 520 0, f 4;
#X obj 699 56 bng 19 250 50 0 empty cs1 clip\ stop 0 -10 0 12 #c7c6ff #000000 #000000;
#X msg 699 79 0;
#X msg 962 771 100;
#X obj 880 1130 loadbang;
#X msg 623 96 3;
#X obj 887 939 * 2;
#X obj 157 962 ctlin 20 1;
#X obj 237 961 ctlin 21 1;
#X obj 319 962 ctlin 22 1;
#X obj 640 1417 ctlin 23 1;
#X floatatom 523 270 5 0 0 0 - - - 0;
#X text 840 100 Track 1 - Knob 1 - Size;
#X connect 0 0 50 0;
#X connect 1 0 3 0;
#X connect 2 0 28 0;
#X connect 3 0 8 0;
#X connect 4 0 1 0;
#X connect 5 0 114 0;
#X connect 6 0 9 0;
#X connect 7 0 21 0;
#X connect 7 0 48 0;
#X connect 8 0 6 0;
#X connect 9 0 2 0;
#X connect 10 0 8 3;
#X connect 11 0 10 0;
#X connect 12 0 11 0;
#X connect 13 0 15 0;
#X connect 14 0 12 0;
#X connect 15 0 9 1;
#X connect 16 0 45 0;
#X connect 17 0 22 0;
#X connect 18 0 13 0;
#X connect 19 0 20 0;
#X connect 20 0 1 0;
#X connect 21 0 6 2;
#X connect 22 0 10 3;
#X connect 23 0 38 0;
#X connect 24 0 23 0;
#X connect 25 0 28 1;
#X connect 25 0 28 3;
#X connect 26 0 27 0;
#X connect 27 0 38 1;
#X connect 28 0 29 0;
#X connect 29 0 38 0;
#X connect 30 0 26 0;
#X connect 31 0 30 0;
#X connect 32 0 29 3;
#X connect 33 0 32 0;
#X connect 34 0 38 0;
#X connect 35 0 36 0;
#X connect 35 0 37 0;
#X connect 36 0 23 0;
#X connect 37 0 34 0;
#X connect 39 0 40 0;
#X connect 40 0 38 2;
#X connect 41 0 25 0;
#X connect 42 0 43 0;
#X connect 42 0 36 0;
#X connect 43 0 44 0;
#X connect 44 0 38 0;
#X connect 45 0 73 0;
#X connect 46 0 47 0;
#X connect 47 0 5 0;
#X connect 48 0 6 1;
#X connect 49 0 6 1;
#X connect 49 0 6 2;
#X connect 50 0 20 0;
#X connect 52 0 55 0;
#X connect 53 0 54 0;
#X connect 54 0 52 0;
#X connect 55 0 46 0;
#X connect 56 0 69 1;
#X connect 57 0 65 0;
#X connect 58 0 65 1;
#X connect 59 0 76 0;
#X connect 60 0 74 1;
#X connect 61 0 29 1;
#X connect 61 0 29 2;
#X connect 61 0 29 3;
#X connect 62 0 29 1;
#X connect 62 0 29 2;
#X connect 63 0 108 0;
#X connect 63 0 101 0;
#X connect 64 0 20 1;
#X connect 65 0 66 0;
#X connect 66 0 70 0;
#X connect 67 0 106 0;
#X connect 68 0 69 0;
#X connect 69 0 78 0;
#X connect 70 0 99 0;
#X connect 70 0 62 0;
#X connect 70 0 109 0;
#X connect 71 0 100 0;
#X connect 72 0 46 0;
#X connect 72 0 46 1;
#X connect 73 0 72 0;
#X connect 74 0 70 0;
#X connect 75 0 77 0;
#X connect 76 0 74 0;
#X connect 77 0 76 1;
#X connect 78 0 70 0;
#X connect 79 0 80 0;
#X connect 80 0 28 1;
#X connect 81 0 82 0;
#X connect 82 0 28 2;
#X connect 83 0 84 0;
#X connect 84 0 28 3;
#X connect 85 0 28 3;
#X connect 85 0 28 2;
#X connect 86 0 94 0;
#X connect 87 0 89 0;
#X connect 88 0 92 0;
#X connect 89 0 86 0;
#X connect 90 0 92 0;
#X connect 91 0 54 0;
#X connect 92 0 93 0;
#X connect 93 0 87 0;
#X connect 94 0 85 0;
#X connect 95 0 96 0;
#X connect 96 0 38 2;
#X connect 97 0 98 0;
#X connect 98 0 46 1;
#X connect 99 0 29 3;
#X connect 100 0 78 1;
#X connect 101 0 19 0;
#X connect 102 0 103 0;
#X connect 103 0 60 0;
#X connect 103 0 58 0;
#X connect 103 0 56 0;
#X connect 103 0 90 0;
#X connect 104 0 105 0;
#X connect 105 0 91 0;
#X connect 106 0 66 1;
#X connect 107 0 61 0;
#X connect 108 0 64 0;
#X connect 109 0 28 3;
#X connect 110 0 79 0;
#X connect 111 0 81 0;
#X connect 112 0 83 0;
#X connect 113 0 39 0;
#X connect 114 0 3 1;
