#N canvas 41 25 631 847 12;
#X obj 391 352 tgl 15 0 empty 5-4 empty 0 -6 0 8 #14e814 #000000 #000000 0 1;
#X obj 100 162 t a;
#X msg 139 126 type BYTE;
#X msg 121 293 mode clear;
#X msg 122 313 mode fill;
#X msg 122 333 mode line;
#X msg 122 373 mode waterfall;
#X msg 127 264 upsidedown 0;
#X obj 102 41 tgl 19 0 empty a-8 empty 0 -10 0 12 #fcfcfc #000000 #000000 0 1;
#X obj 373 118 adc~;
#X obj 374 161 *~;
#X obj 437 151 tgl 19 0 empty dsp empty 0 -10 0 12 #fcfcfc #000000 #000000 0 1;
#X obj 250 257 lop~ 1000;
#X obj 216 350 loadbang;
#X msg 260 435 0.5;
#X msg 128 105 dimen 64 64;
#X obj 100 445 pix_sig2pix~ 64 64;
#X obj 320 937 scaleXYZ;
#X obj 339 908 + 1;
#X obj 371 909 + 1;
#X obj 339 884 * 5;
#X obj 339 860 / 127;
#X obj 424 887 * 5;
#X obj 424 863 / 127;
#X obj 548 892 loadbang;
#X msg 548 916 5;
#X obj 39 1059 _pix2rectangle 0.5 \; quality 0;
#X obj 307 1081 pix_texture;
#X obj 421 1072 tgl 19 0 empty empty empty 0 -10 0 12 #fcfcfc #000000 #000000 0 1;
#X floatatom 354 1127 5 0 0 0 - - - 0;
#X floatatom 426 1154 5 0 0 0 - - - 0;
#X msg 424 1100 quality \$1;
#X obj 670 1077 loadbang;
#X obj 319 976 spigot;
#X obj 376 966 tgl 19 0 empty s-8 empty 0 -10 0 12 #fcfcfc #000000 #000000 0 1;
#X obj 306 1166 sphere 4;
#X msg 616 1087 2;
#X msg 666 1114 4;
#X obj 518 256 env~;
#X obj 512 481 line;
#X msg 720 1115 1;
#X obj 285 531 scaleXYZ;
#X floatatom 332 474 5 0 0 0 - - - 0;
#X obj 514 410 spigot;
#X obj 556 343 tgl 19 0 empty r-8 empty 0 -10 0 12 #c6ffc7 #000000 #000000 0 1;
#X obj 671 361 sel 0;
#X msg 663 488 1;
#X obj 289 593 rotateXYZ;
#X obj 588 477 line;
#X obj 589 429 tgl 19 0 empty 5-2 empty 0 -10 0 12 #c6ffc7 #000000 #000000 0 1;
#X floatatom 579 537 5 0 0 0 - - - 0;
#X msg 588 456 \$1 5000;
#X obj 740 474 line;
#X obj 741 426 tgl 19 0 empty 5-3 empty 0 -10 0 12 #c6ffc7 #000000 #000000 0 1;
#X floatatom 754 530 5 0 0 0 - - - 0;
#X msg 740 453 \$1 5000;
#X obj 579 560 * 180;
#X obj 747 558 * 180;
#X obj 135 946 pix_texture;
#X obj 145 1012 cube 0.5;
#X obj 131 977 scaleXYZ;
#X floatatom 50 887 5 0 0 0 - - - 0;
#X obj 53 823 loadbang;
#X msg 53 847 2;
#X obj 47 771 / 127;
#X obj 47 795 * 10;
#X obj 484 351 tgl 15 0 empty 5-5 empty 0 -6 0 8 #14e814 #000000 #000000 0 1;
#X obj 415 374 *~;
#X obj 343 375 *~;
#X obj 418 346 cos~ 1;
#X obj 428 299 osc~ 0.5;
#X obj 429 321 phasor~ 0.5;
#X obj 355 332 cos~ 1;
#X obj 330 256 lop~ 100;
#X obj 421 254 hip~ 6000;
#X obj 513 434 * 0.02;
#X msg 512 460 \$1 2;
#X floatatom 44 734 5 0 0 0 - 8slide - 0;
#X floatatom 342 829 5 0 0 0 - 16-8 - 0;
#X floatatom 421 827 5 0 0 0 - 17-8 - 0;
#X obj 217 29 loadbang;
#X obj 149 225 loadbang;
#X msg 217 53 1;
#X obj 296 705 rotateXYZ;
#X floatatom 314 658 5 0 0 0 - 20-8 - 0;
#X floatatom 362 659 5 0 0 0 - 21-8 - 0;
#X floatatom 411 659 5 0 0 0 - 22-8 - 0;
#X msg 185 875 quality \$1;
#X obj 104 73 gemhead 1;
#X obj 504 44 delay 10;
#X msg 507 74 0;
#X msg 567 73 1;
#X obj 567 15 loadbang;
#X obj 61 110 depth;
#X obj 279 70 block~ 64;
#X connect 0 0 68 1;
#X connect 1 0 16 0;
#X connect 2 0 1 0;
#X connect 3 0 16 0;
#X connect 4 0 16 0;
#X connect 5 0 16 0;
#X connect 6 0 16 0;
#X connect 7 0 16 0;
#X connect 8 0 88 0;
#X connect 9 0 10 0;
#X connect 9 1 10 0;
#X connect 10 0 38 0;
#X connect 10 0 12 0;
#X connect 10 0 73 0;
#X connect 10 0 74 0;
#X connect 11 0 10 1;
#X connect 12 0 16 0;
#X connect 13 0 6 0;
#X connect 14 0 16 3;
#X connect 15 0 1 0;
#X connect 16 0 41 0;
#X connect 17 0 33 0;
#X connect 17 0 58 0;
#X connect 18 0 17 1;
#X connect 19 0 17 2;
#X connect 20 0 18 0;
#X connect 21 0 20 0;
#X connect 22 0 19 0;
#X connect 23 0 22 0;
#X connect 24 0 25 0;
#X connect 25 0 17 1;
#X connect 25 0 17 2;
#X connect 27 0 35 0;
#X connect 28 0 31 0;
#X connect 28 0 87 0;
#X connect 29 0 35 1;
#X connect 30 0 35 2;
#X connect 31 0 27 0;
#X connect 32 0 36 0;
#X connect 32 0 40 0;
#X connect 32 0 37 0;
#X connect 33 0 27 0;
#X connect 34 0 33 1;
#X connect 36 0 35 2;
#X connect 37 0 30 0;
#X connect 38 0 43 0;
#X connect 39 0 42 0;
#X connect 40 0 29 0;
#X connect 41 0 47 0;
#X connect 42 0 41 1;
#X connect 42 0 41 2;
#X connect 43 0 75 0;
#X connect 44 0 43 1;
#X connect 44 0 45 0;
#X connect 45 0 46 0;
#X connect 46 0 41 1;
#X connect 47 0 83 0;
#X connect 48 0 50 0;
#X connect 49 0 51 0;
#X connect 50 0 56 0;
#X connect 51 0 48 0;
#X connect 52 0 54 0;
#X connect 53 0 55 0;
#X connect 54 0 57 0;
#X connect 55 0 52 0;
#X connect 56 0 47 3;
#X connect 57 0 47 2;
#X connect 58 0 60 0;
#X connect 60 0 59 0;
#X connect 61 0 60 3;
#X connect 62 0 63 0;
#X connect 63 0 61 0;
#X connect 64 0 65 0;
#X connect 65 0 61 0;
#X connect 66 0 67 1;
#X connect 67 0 16 0;
#X connect 68 0 16 1;
#X connect 69 0 67 0;
#X connect 70 0 71 0;
#X connect 71 0 69 0;
#X connect 71 0 72 0;
#X connect 72 0 68 0;
#X connect 73 0 16 1;
#X connect 74 0 16 2;
#X connect 75 0 76 0;
#X connect 76 0 39 0;
#X connect 77 0 64 0;
#X connect 78 0 21 0;
#X connect 79 0 23 0;
#X connect 80 0 82 0;
#X connect 81 0 7 0;
#X connect 83 0 17 0;
#X connect 84 0 83 1;
#X connect 85 0 83 2;
#X connect 86 0 83 3;
#X connect 87 0 58 0;
#X connect 88 0 93 0;
#X connect 89 0 90 0;
#X connect 90 0 8 0;
#X connect 91 0 8 0;
#X connect 92 0 89 0;
#X connect 92 0 91 0;
#X connect 93 0 1 0;
